<svg viewBox="0 0 62 36" xmlns="http://www.w3.org/2000/svg">
  <path fill="#363757" fill-rule="evenodd" clip-rule="evenodd" d="M31.025.2C48 .2 58.432 12.548 61.411 16.664a2.38 2.38 0 010 2.61c-3.044 4.116-13.412 16.464-30.386 16.464C14.05 35.738 3.62 23.39.637 19.274a2.161 2.161 0 010-2.607C3.683 12.548 14.049.2 31.028.2h-.003zm0 4.528c-6.933 0-12.505 5.9-12.505 13.244 0 7.336 5.572 13.238 12.505 13.238 6.933 0 12.505-5.9 12.505-13.241 0-7.342-5.572-13.241-12.505-13.241zM31 9.552c4.374 0 7.921 3.769 7.921 8.417S35.374 26.386 31 26.386c-4.374 0-7.921-3.77-7.921-8.417 0-4.648 3.547-8.417 7.921-8.417z" />
</svg>
