<?xml version="1.0" encoding="UTF-8"?>
<svg width="30px" height="30px" viewBox="0 0 30 30" version="1.1" xmlns="http://www.w3.org/2000/svg" xmlns:xlink="http://www.w3.org/1999/xlink">
    <title>Illus/Small/Arrow</title>
    <defs>
        <polygon id="path-1" points="0 0.000112518063 21.3786 0.000112518063 21.3786 9.91529601 0 9.91529601"></polygon>
    </defs>
    <g id="Illus/Small/Arrow" stroke="none" stroke-width="1" fill="none" fill-rule="evenodd">
        <g id="Group-3" transform="translate(4.000000, 10.000000)">
            <mask id="mask-2" fill="white">
                <use xlink:href="#path-1"></use>
            </mask>
            <g id="Clip-2"></g>
            <path d="M21.06396,4.81122 C19.46304,3.40866 18.07812,1.78146 16.54524,0.30834 C16.12476,-0.09558 15.43608,-0.10962 15.01776,0.30834 C14.6106,0.71586 14.59584,1.4301 15.01776,1.83582 C15.84216,2.62782 16.62408,3.4641 17.41932,4.28634 C13.25664,4.25214 9.09288,4.23378 4.93128,4.34178 C3.6468,4.3749 2.36268,4.4217 1.08,4.49514 C0.49752,4.52826 0,4.96746 0,5.57514 C0,6.13386 0.49464,6.68826 1.08,6.65514 C5.94864,6.37722 10.836,6.40422 15.7104,6.43374 C16.16148,6.43662 16.6122,6.44094 17.06364,6.44454 C16.26552,6.91074 15.45804,7.37046 14.70492,7.89606 C14.2272,8.22978 14.00652,8.84142 14.31756,9.37386 C14.59368,9.84654 15.3144,10.09674 15.795,9.76122 C16.6338,9.1755 17.5104,8.67114 18.4032,8.1747 C19.3518,7.6473 20.22156,7.02234 21.06396,6.3387 C21.4974,5.98698 21.46968,5.16654 21.06396,4.81122" id="Fill-1" fill="#464CD0" mask="url(#mask-2)"></path>
        </g>
    </g>
</svg>