<?xml version="1.0" encoding="UTF-8"?>
<svg width="50px" height="50px" viewBox="0 0 50 50" version="1.1" xmlns="http://www.w3.org/2000/svg" xmlns:xlink="http://www.w3.org/1999/xlink">
    <title>Illus/Small/03</title>
    <g id="Illus/Small/03" stroke="none" stroke-width="1" fill="none" fill-rule="evenodd">
        <path d="M31.8277213,25.3139029 C30.6573885,23.1198701 28.7189489,21.5167732 26.4873204,20.5803106 C26.9719303,20.1224573 27.4383673,19.643848 27.8599779,19.1261686 C28.9757921,17.7501669 30.7736948,15.4670053 30.4490062,13.5684404 C30.0273956,11.0960327 26.7272023,11.153417 24.8190509,11.0435322 C22.3015025,10.8970192 19.7875887,11.1289982 17.3148668,11.6088284 C15.020239,12.0556932 15.9918818,15.5866576 18.280452,15.1422347 C19.8978375,14.8272316 21.5249152,14.6648463 23.1725888,14.6611835 C23.9576568,14.6587416 24.7415133,14.6917071 25.5229467,14.7576379 C25.8282509,14.7820568 26.1347667,14.8150222 26.4388594,14.8528714 C26.2498615,15.1532232 26.0402678,15.4401445 25.8973079,15.662356 C25.5338504,16.2349778 25.1243551,16.7612039 24.6651872,17.2605692 C23.6753715,18.33744 22.5510766,19.1835529 21.2692834,19.8807108 C19.6216098,20.7756613 20.4575619,23.2285339 22.1876192,23.2932438 C24.7657438,23.3884773 27.3063111,24.7046529 28.6050656,27.0049077 C29.7669178,29.0609741 29.6433423,31.9179785 28.1664936,33.7933455 C26.4836858,35.9287732 23.5421038,36.3072652 21.0160748,36.3365678 C18.8256381,36.3622076 14.9499705,36.2852882 14.533206,33.3586901 C14.3914576,32.370948 13.1605485,31.8508267 12.2967314,32.0791429 C11.2511856,32.3575177 10.8889397,33.3574692 11.028265,34.331781 C11.2875313,36.1509846 12.8649365,37.7919307 14.3660156,38.713742 C16.1711875,39.8211364 18.1968568,39.9676495 20.2564488,39.9969521 C24.1757312,40.0543364 28.4754324,39.3217711 31.0269035,36.0191229 C33.3615116,32.9948494 33.6183549,28.6678308 31.8277213,25.3139029" id="Fill-4" fill="#464CD0"></path>
        <path d="M38.9995045,38.9998627 C41.6641009,38.9998627 41.6682407,34.9998627 38.9995045,34.9998627 C36.3349081,34.9998627 36.3307684,38.9998627 38.9995045,38.9998627" id="Fill-4" fill="#464CD0"></path>
    </g>
</svg>