<?xml version="1.0" encoding="UTF-8"?>
<svg width="50px" height="50px" viewBox="0 0 50 50" version="1.1" xmlns="http://www.w3.org/2000/svg" xmlns:xlink="http://www.w3.org/1999/xlink">
    <title>Illus/Small/02</title>
    <g id="Illus/Small/02" stroke="none" stroke-width="1" fill="none" fill-rule="evenodd">
        <path d="M30.1992147,35.4844882 C24.3890674,35.6406925 22.7295581,35.8667442 16.9206539,36.0534275 C18.6572341,33.9148253 20.3540358,31.7444743 21.963822,29.5042759 C24.0186301,26.6494198 26.3357278,23.6878876 27.7739692,20.4418858 C28.8280995,18.0619924 29.5117925,15.1410987 28.0710649,12.7599354 C27.3078149,11.5001413 26.0485768,10.6911807 24.7048093,10.2098683 C23.1422601,9.6510886 21.3857906,10.2835256 20.055697,11.2118618 C17.2997928,13.1358417 16.3500811,16.5596371 16.650906,19.8284981 C16.873417,22.24903 20.6038945,22.2731591 20.3801404,19.8284981 C20.1253094,17.0650787 20.8537532,14.6547064 23.5027527,13.8305065 C24.7259416,14.2889598 25.3338068,15.0687114 25.1349143,16.5443977 C24.8701387,18.5064762 23.6867283,20.242503 22.648758,21.8528044 C19.2775301,27.083744 15.5445664,32.0505332 11.4884025,36.7455523 C10.4703215,37.9266093 11.1055344,40.0436222 12.8073084,39.9991738 C19.9873277,39.8048709 23.0191953,39.4861125 30.1992147,39.2943495 C32.5946263,39.2295818 32.6045709,35.4197205 30.1992147,35.4844882" id="Fill-1" fill="#464CD0"></path>
        <path d="M37.9995045,38.9998627 C40.6641009,38.9998627 40.6682407,34.9998627 37.9995045,34.9998627 C35.3349081,34.9998627 35.3307684,38.9998627 37.9995045,38.9998627" id="Fill-4" fill="#464CD0"></path>
    </g>
</svg>