<?xml version="1.0" encoding="UTF-8"?>
<svg width="50px" height="50px" viewBox="0 0 50 50" version="1.1" xmlns="http://www.w3.org/2000/svg" xmlns:xlink="http://www.w3.org/1999/xlink">
    <title>Illus/Small/01</title>
    <g id="Illus/Small/01" stroke="none" stroke-width="1" fill="none" fill-rule="evenodd">
        <path d="M24.390236,16.0956739 C23.8402015,23.5328791 23.6932374,30.9915729 24.0022941,38.445969 C24.087663,40.5131726 27.3305971,40.5228424 27.2441477,38.445969 C26.8734958,29.4819986 27.1231185,20.5072839 27.9930159,11.5776953 C28.1324156,10.1476288 26.1494818,9.50404515 25.2255536,10.4377249 C21.4779708,14.2283143 18.2912288,18.2155245 15.2827887,22.6056459 C14.1049153,24.3236597 16.913441,25.9374537 18.0826696,24.2312587 C20.0602002,21.3464138 22.130664,18.6700084 24.390236,16.0956739" id="Fill-1" fill="#464CD0"></path>
        <path d="M33.9995045,39.9998627 C36.6641009,39.9998627 36.6682407,35.9998627 33.9995045,35.9998627 C31.3349081,35.9998627 31.3307684,39.9998627 33.9995045,39.9998627" id="Fill-4" fill="#464CD0"></path>
    </g>
</svg>