<svg width="85" height="85" xmlns="http://www.w3.org/2000/svg"><g fill="none" fill-rule="evenodd"><path d="M52.015 9.377c7.445-5.172 13.91 3.047 8.586 12.438 9.16-1.035 14.695 10.953 5.04 18.047 9.167 2.562 8.308 10.641.257 15.324 1.97 10.785-15.012 10.367-21.57 3.852-.844-.836-3.328-1.188-4.422-.59-4.93 2.695-10.566 1.426-13.805-3.02-14.008-1.246-8.59-10.277-4.106-12.297C9.91 41.678 8.32 30.494 19.777 27.101c-4.817-5.485.543-11.665 13.491-11.43-1.285-4.942 8.762-17.177 18.747-6.294z" fill="#01BF7D"/><path d="M47.107 49.937c3.136-3.417 7.828-4.77 11.248-7.857 3.488-3.15 5.526-7.666 5.804-12.331.115-1.928-2.886-1.921-3 0-.25 4.19-2.323 8.184-5.614 10.796-2.485 1.972-5.432 3.237-7.997 5.058.058-.578.128-1.153.165-1.736.226-3.607.246-7.243.073-10.856 3.132-2.251 5.668-5.287 7.173-8.852.304-.721.241-1.641-.539-2.052-.64-.34-1.726-.234-2.052.538a19.726 19.726 0 01-1.182 2.357 19.116 19.116 0 01-1.08 1.638l-.204.27-.003.005a20.62 20.62 0 01-1.788 1.963c-.186.18-.384.347-.578.518-.33-3.534-.913-7.043-1.88-10.461-.524-1.855-3.419-1.066-2.892.797 1.372 4.856 1.953 9.853 2.094 14.888.138 4.988.086 10.099-.816 15.019-.402 2.195-.866 4.35-1.27 6.513-1.896-2.454-4.5-4.326-7.13-5.952-3.36-2.077-7.12-3.958-9.543-7.192-.485-.647-1.296-.98-2.052-.538-.638.373-1.027 1.4-.538 2.052 2.527 3.374 6.07 5.519 9.625 7.663 3.333 2.01 6.745 4.225 8.53 7.816.112.226.254.393.413.515a39.947 39.947 0 00-.283 3.669c-.144 5.069.191 10.16.374 15.226.07 1.925 3.07 1.934 3 0-.275-7.634-.935-15.36.51-22.905.441.243.971.267 1.474.018a32.2 32.2 0 011.536-.703 31.85 31.85 0 012.828-1.017c.75-.228 1.302-1.06 1.048-1.845-.245-.756-1.04-1.293-1.845-1.047a33.38 33.38 0 00-4.472 1.736c.245-1.185.48-2.37.688-3.555.06-.048.118-.094.175-.156" fill="#363757"/><path d="M42.136 43.392c.743.321 1.61.22 2.052-.538.371-.634.21-1.729-.538-2.052-5.664-2.452-10.468-6.577-13.66-11.868-.996-1.651-3.591-.145-2.59 1.514 3.436 5.696 8.625 10.3 14.736 12.944" fill="#363757"/></g></svg>