<svg width="85" height="85" xmlns="http://www.w3.org/2000/svg"><g fill="none" fill-rule="evenodd"><path d="M43.545 15.02c2.51-.023 4.559-.02 6.92.456 1.375.277 2.781.644 3.993 1.376 1.956 1.178 2.562 3.785 2.873 6.117.856 6.414.89 12.946.104 19.37-.11.897-.26 1.847-.831 2.528-.7.833-1.842 1.05-2.894 1.198a94.967 94.967 0 01-19.445.735c-.79-.05-1.601-.118-2.322-.461-2.096-1.001-2.62-3.814-2.748-6.213-.362-6.707-.347-13.244 1.166-19.774.286-1.238.973-3.071 2.05-3.672 3.407-1.9 7.433-1.687 11.134-1.66" fill="#01BF7D"/><path d="M52.605 64.311c-1.994-1.597.927-3.378 1.146-5.161.17-1.39-.769-2.338-1.808-3.095-.277-.203-1.058-.578-1.259-.943.12.096.335-.6.421-.729.304-.445.716-.817 1.062-1.23 1.78-2.132-.26-5.48-1.392-7.501-.834-1.492-3.133-.156-2.298 1.338.604 1.082 1.188 2.208 1.544 3.399.232.774.297.809-.16 1.362-.537.647-1.115 1.258-1.483 2.024-.547 1.136-.435 2.29.445 3.214.501.528 2.194 1.262 2.25 1.938.032.37-1.214 1.856-1.392 2.25-.367.814-.602 1.662-.464 2.562.256 1.679 1.47 2.254 2.614 3.287 1.529 1.38-2 3.751-2.962 4.645l-4.586 4.26a38.017 38.017 0 01-4.351-4.24c-.77-.888-1.786-1.886-2.148-3.031-.392-1.24-.058-2.821 0-4.094.247-5.499.306-11.003.196-16.507-.034-1.705-2.697-1.711-2.662 0 .122 6.084.023 12.165-.282 18.242-.06 1.194-.1 2.364.34 3.495.434 1.113 1.245 2.051 1.994 2.965 1.785 2.179 3.816 4.126 6.03 5.867.58.455 1.304.535 1.883 0l5.889-5.47c1.436-1.336 3.398-2.745 3.771-4.802.353-1.956-.994-2.97-2.338-4.045M46.131 24.351a65.818 65.818 0 01-8.14.094l-.247-.014.001-.304c.003-.42.004-.843.005-1.263 0-.38-.004-.759-.005-1.139 4.127-.12 8.257-.14 12.383-.23.05.35.084.702.1 1.056.015.341.037.698.004 1.038a1.44 1.44 0 01-.02.259c-.01.025-.012.037-.02.057-1.296.308-2.735.35-4.06.446m-8.907.044l.011.009c-.176-.009-.186-.012-.01-.009m-1.949 1.53c.669 1.169 2.383.986 3.602 1.03a65.8 65.8 0 008.285-.215c1.264-.113 2.743-.122 3.95-.507 2.643-.845 1.865-4.417 1.449-6.325-.112-.514-.74-.922-1.299-.908-4.957.13-9.916.112-14.872.292-.27.008-.48.09-.666.196-.39.18-.689.514-.681 1.04.012.879.01 1.76.008 2.64-.002.84-.213 1.992.224 2.758M46.131 35.351a65.815 65.815 0 01-8.14.094l-.247-.013.001-.306c.003-.42.004-.842.005-1.262 0-.38-.004-.758-.005-1.139 4.127-.12 8.257-.14 12.383-.23.05.35.084.702.1 1.057.015.34.037.696.004 1.037.002.087-.006.173-.02.26-.01.024-.012.037-.02.056-1.296.308-2.735.35-4.06.446m-8.907.044l.011.01c-.176-.01-.186-.013-.01-.01m1.653 2.56a66.06 66.06 0 008.285-.215c1.264-.113 2.743-.122 3.95-.506 2.643-.845 1.865-4.417 1.449-6.326-.112-.514-.74-.922-1.299-.908-4.957.129-9.916.112-14.872.29-.27.01-.48.092-.666.198-.39.18-.689.513-.681 1.039.012.88.01 1.76.008 2.641-.002.84-.213 1.991.224 2.758.669 1.168 2.383.984 3.602 1.03" fill="#363757"/><path d="M43.293 57c-.679 0-1.319.623-1.292 1.362l.413 11.276c.028.735.575 1.362 1.293 1.362.679 0 1.32-.623 1.292-1.362l-.413-11.276C44.559 57.627 44.01 57 43.293 57M16.119 22.835L9.526 21.04c-.608-.165-1.348.198-1.491.77-.15.593.196 1.178.845 1.355l6.595 1.795c.607.165 1.347-.199 1.49-.77.15-.593-.195-1.178-.846-1.355M16.672 12.163c-.216-.26-.433-.518-.65-.777-.427-.51-1.258-.519-1.683 0a1.475 1.475 0 000 1.882c.996 1.188 1.993 2.38 2.988 3.57l.65.777c.428.51 1.26.517 1.684 0a1.476 1.476 0 000-1.882c-.995-1.19-1.992-2.38-2.989-3.57M25.08 5.001c-.521.026-1.15.546-1.074 1.228l.84 7.542c.071.635.444 1.26 1.074 1.228.521-.026 1.15-.546 1.074-1.228l-.84-7.542c-.071-.635-.444-1.26-1.074-1.228M64.16 12.909l-.26.19c.91-.67 1.824-1.338 2.726-2.017.24-.18.374-.587.374-.862 0-.299-.14-.656-.374-.861-.243-.214-.561-.372-.901-.358-.114.014-.226.03-.34.043a1.293 1.293 0 00-.563.315c-.365.274-.732.547-1.1.818l.26-.19c-.871.643-1.746 1.278-2.61 1.931-.238.18-.372.585-.372.862 0 .299.138.657.373.862.243.214.562.372.902.357.114-.014.226-.03.34-.043.215-.058.402-.163.561-.314.326-.247.655-.49.983-.733M70.818 16.009l-7.636 1.204c-.61.096-1.213.57-1.18 1.389.023.67.524 1.493 1.18 1.39l7.636-1.205c.61-.096 1.212-.57 1.18-1.39-.024-.668-.524-1.49-1.18-1.388" fill="#363757"/></g></svg>