<svg width="85" height="85" xmlns="http://www.w3.org/2000/svg"><g fill="none" fill-rule="evenodd"><path d="M79.411 64.134c-.226-3.216-.45-6.432-.677-9.648-.285-4.07-.86-8.71-3.959-10.976-1.353-.99-2.984-1.342-4.619-1.525-1.07-8.05-3.567-18.955-4.382-21.438-.916-2.79-2.32-3.031-2.898-3.441-.535-.381-3.246-.857-3.907-.884-15.462-.632-21.95.235-37.416.766-1.114.039-2.17.345-3.182.788-1.762.77-2.936 4.286-3.216 5.33-1.906 7.08-2.834 13.497-3.599 20.628-2.178 1.719-4.189 4.93-4.848 7.296-1.389 4.987-1.884 12.834-1.654 14.646.147 1.162 1.632 1.947 3.775 2.186 10.926 1.213 45.28 1.006 67.21-.484.548-.037 2.49-.652 2.903-1.05.535-.514.524-1.415.47-2.194" fill="#FFD314"/><path d="M73.171 62.246c-1.294.006-2.587.013-3.881.018-9.108.04-18.218.047-27.326.014-9.985-.037-19.972-.127-29.957-.24-.087-3.438.314-6.86 1.285-10.174.684-2.332 2.544-5.295 4.976-6.125 7.662-.244 15.325-.287 22.99-.422 4.492-.079 8.98-.242 13.472-.363a172.24 172.24 0 017.259-.065c2.355.037 4.825.003 7.148.433 1.971.364 3.436 1.355 4.217 3.236.684 1.652.86 3.49 1.002 5.254.201 2.52.402 5.041.581 7.563.01.151.043.9.087.853-.163.17-1.619.017-1.853.018M22.385 27.05c.292-1.29.55-2.63.976-3.884.416-1.219 1.164-1.324 2.355-1.378 2.721-.123 5.448-.179 8.171-.237 4.721-.1 9.441-.108 14.161-.009 2.543.053 5.084.133 7.625.227 1.355.051 2.81-.04 4.148.17.968.15 1.353 1.783 1.696 2.572 2.282 5.25 3.766 10.858 4.448 16.54-15.277.193-30.554.44-45.832.633.517-4.914 1.16-9.809 2.252-14.634m55.27 30.666c-.313-4.073-.12-9.027-2.773-12.425-1.429-1.83-3.52-2.664-5.779-3.05-.602-6.055-2.005-11.999-4.315-17.635-.953-2.325-1.735-5.306-4.624-5.635-3.048-.347-6.205-.273-9.271-.359a340.885 340.885 0 00-15.763-.085c-3.138.056-6.279.12-9.414.261-1.09.05-2.225.132-3.191.696-1.197.7-1.788 1.951-2.159 3.231-1.914 6.591-2.697 13.518-3.38 20.326-2.908 1.194-5.179 4.193-6.261 7.031-1.59 4.168-1.94 9.042-1.65 13.452.054.817.644 1.491 1.5 1.5 19.892.23 39.783.327 59.676.237 1.302-.006 2.605-.008 3.906-.019 1.112-.01 2.224-.046 3.042-.902.618-.646.787-1.533.776-2.399-.02-1.403-.212-2.825-.32-4.225" fill="#363757"/><path d="M20.104 50.579c-1.038 2.36-.31 3.336-.018 4.432.583 2.192 3.47 2.853 5.598 2.069 1.295-.476 2.466-1.416 2.98-2.695.837-2.087-.427-4.687-2.51-5.535-2.082-.85-4.644-.025-6.05 1.729M66.576 50.292c-1.963-1.67-3.108-1.25-4.24-1.286-2.268-.069-3.729 2.508-3.587 4.77.086 1.377.65 2.768 1.73 3.627 1.758 1.401 4.612.933 6.021-.819 1.41-1.752 1.354-4.442.076-6.292" fill="#363757"/><path d="M37.015 33.803c.36-.22.698-.466.973-.766 1.7-1.86 1.48-4.84-.253-6.958h-.001c-2.6-1.958-4.036-1.558-5.485-1.66-2.895-.202-4.617 2.568-4.31 5.08.186 1.528.983 3.099 2.409 4.11.144.102.306.173.459.26-4.986 1.08-5.335 4.832-5.376 7.737l17.904-.093c-.25-1.26.1-6.511-6.32-7.71" fill="#464CD0"/><path d="M55.094 33.803c.36-.22.698-.466.973-.766 1.7-1.86 1.48-4.84-.254-6.958-2.6-1.958-4.036-1.558-5.485-1.66-2.895-.202-4.617 2.568-4.31 5.08.185 1.528.983 3.099 2.409 4.11.144.102.306.173.459.26-4.986 1.08-5.335 4.832-5.376 7.737l17.904-.093c-.25-1.26.1-6.511-6.32-7.71" fill="#01BF7D"/></g></svg>