<svg width="92" height="123" xmlns="http://www.w3.org/2000/svg">
 <title>Illus/XL/Docs</title>

 <g>
  <title>Layer 1</title>
  <g fill-rule="evenodd" fill="none" id="Illus/XL/Docs">
   <g id="Group-31">
    <path fill="#01BF7D" id="Fill-1" d="m17.01824,12.70752c0,-1.74 0.2664,-2.9608 0.7016,-5.244c0.12,-0.6312 1.6928,-0.1904 2.1352,-0.656c0.6888,-0.724 2.2416,-0.08 3.2376,0c21.784,1.7464 38.136,-0.8136 59.9208,0.9336c0.3768,0.0304 0.7944,0.0808 1.04,0.368c0.2408,0.2824 0.2296,0.6944 0.2056,1.0648c-2.076,32.0224 0.5856,63.9288 -2.708,95.8496c-0.0712,0.6888 -2.3816,2.5224 -2.8336,3.0464c-0.4712,0.5448 -8.8336,0.46 -9.1216,-0.2c-0.4456,-1.016 5.464,-89.4904 1.78,-90.3992"/>
    <path fill="#363757" id="Fill-3" d="m70.58312,80.08992c-0.3272,10.9072 -1.14,21.7368 -2.7048,32.536c-0.1744,1.1984 -0.348,2.3976 -0.52,3.5968c-0.1632,1.1408 -0.1344,2.6008 -0.6336,3.6672c-0.4296,0.9176 -1.356,0.8584 -2.2256,0.8416c-0.9824,-0.0192 -1.9592,-0.1288 -2.9368,-0.204c-2.8672,-0.2192 -5.7808,-0.1536 -8.6552,-0.2344c-3.1904,-0.0904 -6.38,-0.196 -9.5704,-0.316c-6.2456,-0.2368 -12.4896,-0.5304 -18.7304,-0.8816c-3.1872,-0.18 -6.3728,-0.3744 -9.5576,-0.5848c-2.816,-0.1856 -5.652,-0.2832 -8.4544,-0.6328c-1.216,-0.152 -2.8752,-0.1864 -3.9408,-0.832c-1.0088,-0.6104 -0.876,-2.0632 -0.8344,-3.0968c0.1072,-2.6184 0.3544,-5.2376 0.52,-7.8544c0.3568,-5.6304 0.6688,-11.2632 0.9584,-16.8976c1.1736,-22.8856 1.952,-45.792 3.384,-68.6648c0.1424,-2.2776 0.296,-4.5544 0.4544,-6.8304c8.6608,1.0472 17.4472,1.044 26.1552,1.1792c9.5904,0.1496 19.2384,0.1968 28.776,1.3064c1.9992,0.2328 3.9912,0.524 5.9656,0.9112c0.98,0.192 2.508,0.2528 2.8128,1.3944c0.1384,0.5208 0.0592,1.1904 0.0616,1.7192c0.0056,0.932 0.0104,1.864 0.0152,2.796c0.0344,6.3256 0.064,12.6504 0.0704,18.976c0.0136,12.7008 -0.0272,25.4088 -0.4096,38.1056m2.1784,-49.0912c-0.0136,-3.196 -0.0296,-6.392 -0.0472,-9.588c-0.0072,-1.2552 0.1984,-2.752 -0.3192,-3.9344c-0.4872,-1.1136 -1.556,-1.5936 -2.6776,-1.8624c-4.168,-0.996 -8.5304,-1.3888 -12.7928,-1.716c-4.936,-0.3784 -9.8872,-0.5448 -14.8352,-0.6584c-9.9208,-0.2272 -19.8688,-0.1264 -29.7712,-0.8416c-2.0104,-0.1448 -4.0176,-0.3328 -6.0168,-0.5904c-0.54,-0.0696 -0.82,0.296 -0.8488,0.716c-0.0168,0.0616 -0.0456,0.1144 -0.0512,0.184c-1.6712,23.668 -2.4744,47.388 -3.6344,71.084c-0.284,5.8184 -0.588,11.6352 -0.932,17.4504c-0.1624,2.7584 -0.3344,5.5168 -0.5176,8.2744c-0.0872,1.3128 -0.1896,2.6248 -0.2712,3.9392c-0.0696,1.124 -0.1128,2.3392 0.2624,3.4192c0.8832,2.5448 4.404,2.5864 6.6328,2.8448c2.8216,0.3264 5.6728,0.432 8.5056,0.6176c6.6352,0.4352 13.2752,0.8032 19.9176,1.1072c6.5096,0.2968 13.0224,0.532 19.5368,0.7032c2.6888,0.0712 5.3728,0.088 8.0536,0.2976c1.7608,0.1384 3.9192,0.4 5.0792,-1.2456c0.62,-0.8784 0.7008,-1.9752 0.8472,-3.0072c0.2112,-1.4944 0.4272,-2.988 0.644,-4.4816c0.312,-2.1512 0.6256,-4.3024 0.908,-6.4568c0.7504,-5.72 1.2176,-11.4744 1.536,-17.2328c0.7192,-12.9968 0.7744,-26.0352 0.8152,-39.048c0.02,-6.6584 0.0056,-13.3168 -0.0232,-19.9744"/>
    <path fill="#363757" id="Fill-6" d="m14.58936,28.22272c6.4536,-0.2584 12.9048,0.236 19.3568,0.32c1.1592,0.0144 1.16,-1.7856 0,-1.8c-6.452,-0.084 -12.9032,-0.5784 -19.3568,-0.32c-1.1544,0.0464 -1.16,1.8464 0,1.8"/>
    <path fill="#363757" id="Fill-8" d="m14.29248,36.26808c6.4464,0.296 12.9064,0.0664 19.3512,0.3624c1.1584,0.0528 1.156,-1.7472 0,-1.8c-6.4448,-0.296 -12.9048,-0.0664 -19.3512,-0.3624c-1.1576,-0.0528 -1.1544,1.7472 0,1.8"/>
    <path fill="#363757" id="Fill-10" d="m13.85576,45.0376c6.5192,0.3856 13.0408,0.616 19.5712,0.64961c1.1584,0.00559 1.16,-1.79441 0,-1.80001c-6.5304,-0.0336 -13.052,-0.264 -19.5712,-0.6496c-1.1568,-0.068 -1.1528,1.732 0,1.8"/>
    <path fill="#363757" id="Fill-12" d="m58.58776,65.57512c-0.3352,-1.8696 -1.7432,-3.1288 -3.6536,-3.2144c-1.6024,-0.0712 -3.1456,0.4472 -4.1816,1.6144c-0.0448,-0.1304 -0.0936,-0.2576 -0.1512,-0.3808c-0.7552,-1.604 -2.7504,-2.316 -4.4136,-2.2024c-1.9408,0.1328 -3.2736,1.5736 -4.1,3.2304c-0.968,1.9408 -0.6624,4.228 -0.892,6.3176c-0.1264,1.1496 1.6744,1.1408 1.8,0c0.1784,-1.6304 -0.008,-3.3408 0.4696,-4.9272c0.3648,-1.2128 1.3648,-2.6768 2.7224,-2.8208c1.2032,-0.128 2.7104,0.388 2.9488,1.7112c0.3528,1.952 0.3152,4.04 0.3856,6.0184c0.0424,1.1704 1.7064,1.1448 1.8,0c0.0688,-0.832 0.0616,-1.6632 0.0496,-2.496c-0.0096,-0.7344 -0.0944,-1.5416 0.1376,-2.2512c0.488,-1.4952 1.9376,-2.1096 3.4248,-2.0136c1.4704,0.096 1.9648,1.3104 1.9552,2.6208c-0.012,1.4904 -0.1168,2.9872 -0.236,4.472c-0.0936,1.1552 1.7072,1.1488 1.8,0c0.1472,-1.8272 0.46,-3.8624 0.1344,-5.6784"/>
    <path fill="#363757" id="Fill-14" d="m58.88936,82.87744c-0.2832,1.1248 -1.6024,1.6192 -2.5784,1.9816c-1.5048,0.5584 -3.084,0.6112 -4.672,0.5776c-1.796,-0.0376 -3.5904,-0.1104 -5.3848,-0.168c-1.3744,-0.0432 -3.0608,0.124 -4.3368,-0.4984c-1.3776,-0.672 -1.2744,-2.5888 -0.9944,-3.8808c0.3496,-1.6144 1.8976,-1.9016 3.3272,-2.0136c3.4872,-0.2728 6.9472,-0.3224 10.432,-0.0128c0.0064,0.0008 0.0104,-0.0016 0.016,-0.0016c1.2304,0.144 3.0584,0.1696 3.856,1.1432c0.516,0.6288 0.5296,2.0968 0.3352,2.8728m1.3416,-3.6456c-1.1216,-1.7736 -3.4512,-1.8672 -5.3088,-2.136c-0.0408,-0.0056 -0.0728,0.0072 -0.1112,0.0056c-0.044,-0.0104 -0.0792,-0.0336 -0.1288,-0.0384c-2.0144,-0.1792 -4.0312,-0.276 -6.0544,-0.2232c-1.948,0.052 -3.9936,0.0544 -5.9112,0.4272c-1.724,0.336 -3.1336,1.3664 -3.5296,3.144c-0.3568,1.604 -0.4208,3.752 0.7248,5.0656c1.0672,1.224 2.7736,1.452 4.304,1.5256c2.3568,0.1128 4.7192,0.1624 7.0768,0.2256c2.0656,0.056 4.0736,-0.044 6.0064,-0.8344c1.2992,-0.532 2.6248,-1.2264 3.176,-2.6008c0.488,-1.2176 0.472,-3.428 -0.244,-4.5608"/>
    <path fill="#363757" id="Fill-16" d="m49.70656,106.63288c-2.7296,0.1112 -5.4688,0.0096 -8.1984,-0.092c0.2432,-1.9744 0.4344,-3.9536 0.5528,-5.9384c0.06,0.0048 0.1192,0.008 0.1856,0c2.9256,-0.3592 5.8792,-0.624 8.8296,-0.5808c1.98,0.0288 4.7096,0.8088 4.9008,3.1832c0.2408,2.9784 -4.2296,3.3448 -6.2704,3.428m3.8056,-11.6336c0.3536,0.5896 0.7288,1.8208 0.1328,2.4016c-0.3624,0.3528 -1.1616,0.3152 -1.6232,0.3656c-0.6184,0.0688 -1.236,0.1296 -1.856,0.1824c-2.6544,0.2272 -5.3184,0.3104 -7.9824,0.2624c-0.008,0 -0.0136,0.0024 -0.0216,0.0024c0.0464,-1.3248 0.068,-2.6496 0.06,-3.976c1.9064,-0.2424 3.816,-0.48 5.7352,-0.596c1.844,-0.1104 4.4416,-0.4952 5.5552,1.3576m3.4528,5.8544c-0.6584,-0.8832 -1.4744,-1.508 -2.3888,-1.9288c0.3616,-0.2464 0.6584,-0.5832 0.856,-1.0336c0.7448,-1.6936 0.0256,-3.8128 -1.3496,-4.9648c-1.6016,-1.34 -3.8264,-1.2056 -5.7928,-1.1032c-2.3328,0.1216 -4.6504,0.4352 -6.9664,0.728c-0.0984,0.0128 -0.1888,0.0416 -0.2776,0.0744c-0.344,0.0928 -0.6288,0.3616 -0.6224,0.8256c0.0712,4.6816 -0.2024,9.36 -0.82,14.0016c-0.064,0.4856 0.46,0.8952 0.9,0.9c0.1152,0.0008 0.2128,-0.0264 0.3056,-0.06c0.0392,0.0056 0.0688,0.0248 0.1112,0.0264c2.7296,0.1008 5.4616,0.1992 8.1928,0.132c2.4272,-0.06 5.2376,-0.2616 7.1704,-1.9088c1.66,-1.4152 1.9976,-3.9248 0.6816,-5.6888"/>
    <path fill="#363757" id="Fill-18" d="m81.75728,8.82272c-0.9704,-0.74 -2.6792,-0.5544 -3.832,-0.6376c-1.664,-0.1208 -3.3288,-0.2272 -4.9944,-0.3216c-3.0568,-0.1736 -6.1168,-0.304 -9.1768,-0.4032c-5.8336,-0.1904 -11.6696,-0.268 -17.5056,-0.38c-6.7496,-0.1296 -13.5,-0.3232 -20.2392,-0.744c-1.8216,-0.1136 -3.6416,-0.264 -5.4632,-0.3896c-1.2104,-0.0832 -2.5552,-0.052 -3.4624,0.88c-0.8616,0.8848 -1.0512,2.3848 -1.1408,3.56c-0.06,0.7808 0.164,1.5392 0.176,2.3208c0.016,1.1568 1.816,1.1608 1.8,0c-0.0096,-0.66 -0.176,-1.2976 -0.1936,-1.9504c-0.0256,-0.9208 0.1488,-2.6008 1.136,-2.9512c1.0616,-0.376 2.5776,0.0128 3.6624,0.0928c1.5424,0.1136 3.0848,0.216 4.6288,0.3072c5.5464,0.3264 11.0992,0.5048 16.6536,0.6248c11.1184,0.24 22.2392,0.3232 33.3384,1.0992c0.6536,0.0448 1.3064,0.0928 1.96,0.1424c0.3312,0.0256 0.8816,-0.028 1.1896,0.0936c0.4384,0.1728 0.3472,0.0368 0.3456,0.532c-0.0064,1.5816 -0.1936,3.18 -0.272,4.76c-0.1504,3.0328 -0.2592,6.0672 -0.3352,9.1032c-0.1536,6.0472 -0.1784,12.0968 -0.156,18.1464c0.0472,12.1952 0.2888,24.392 0.0624,36.5872c-0.1272,6.84 -0.4008,13.6784 -0.9344,20.4992c-0.1344,1.7144 -0.2848,3.428 -0.4528,5.1392c-0.0672,0.6808 -0.0352,1.4888 -0.2928,2.1272c-0.3896,0.9672 -1.1816,1.0352 -2.0856,0.9256c-2.1512,-0.2616 -4.2248,-0.468 -6.3384,-0.984c-1.1256,-0.2744 -1.6056,1.4616 -0.4792,1.736c1.9992,0.4872 3.9736,0.7424 6.0144,0.9568c1.2224,0.12743 2.2632,0.3376 3.3376,-0.4152c1.104,-0.772 1.3816,-1.892 1.5248,-3.1592c0.7392,-6.5472 1.084,-13.1552 1.3176,-19.7376c0.464,-13.1104 0.24,-26.2304 0.1504,-39.344c-0.0448,-6.5704 -0.0552,-13.1424 0.0704,-19.712c0.0632,-3.2968 0.1608,-6.5928 0.304,-9.8872c0.0696,-1.5864 0.1504,-3.172 0.2424,-4.7576c0.0688,-1.1832 0.5552,-3.0096 -0.56,-3.8592"/>
    <path fill="#363757" id="Fill-20" d="m91.36984,4.28056c0.0296,-0.5096 -0.4384,-0.868 -0.9,-0.9c-16.1,-1.1 -32.2144,-1.7504 -48.3392,-2.3536c-2.0336,-0.0768 -4.7424,-0.6944 -6.5632,0.5048c-1.584,1.0424 -1.7112,3.3512 -1.9688,5.036c-0.1744,1.1336 1.5592,1.6224 1.7352,0.4792c0.2088,-1.3576 0.1888,-3.7888 1.8016,-4.2424c0.9824,-0.2752 2.04,-0.128 3.0416,-0.064c1.0616,0.068 2.1264,0.092 3.1896,0.132c3.7824,0.1416 7.5648,0.28 11.3472,0.4256c7.224,0.2792 14.4472,0.596 21.6664,1.0008c4.3856,0.2464 8.7712,0.524 13.1544,0.82c-0.3088,5.9448 -0.24,11.8992 -0.2392,17.8496c0,6.3048 -0.3328,12.572 -0.5984,18.868c-0.2688,6.3584 -0.4272,12.7216 -0.8536,19.072c-0.4184,6.2352 -0.648,12.4336 -0.616,18.6848c0.0176,3.3608 0.056,6.7216 0.0256,10.0824c-0.008,0.888 0.024,1.7928 -0.0392,2.6792c-0.0336,0.4672 0.0832,0.9528 -0.5072,1.084c-0.3248,0.072 -0.8128,-0.0464 -1.156,-0.036c-1.4984,0.0448 -3.0112,0.1144 -4.4976,-0.1312c-1.1336,-0.1872 -1.6208,1.5472 -0.4784,1.736c1.34,0.2216 2.6936,0.2656 4.0496,0.2304c1.1448,-0.0296 2.5672,0.2496 3.5088,-0.5224c1.1688,-0.9584 0.888,-2.536 0.9064,-3.8968c0.0224,-1.6368 0.0272,-3.2736 0.0232,-4.9104c-0.0152,-6.4336 -0.148,-12.8704 0.192,-19.2992c0.3584,-6.7688 0.8144,-13.5216 1.0664,-20.2968c0.248,-6.6416 0.7104,-13.2736 0.7624,-19.92c0.0576,-7.3712 -0.1424,-14.7488 0.2864,-22.112"/>
    <path fill="#464CD0" id="Fill-23" d="m14.12216,58.872c5.1072,0 9.7304,0.9336 14.8216,1.4776c0.3616,0.0392 0.7392,0.0832 1.0384,0.2896c0.472,0.3264 0.612,0.952 0.7032,1.5184c0.5736,3.5536 0.7048,7.1624 0.788,10.76c0.28,12.0048 0.044,24.0208 -0.7072,36.0048c-0.0144,0.2288 -0.044,0.4864 -0.2264,0.6248c-0.1536,0.1168 -0.3664,0.1072 -0.5592,0.092c-5.7544,-0.4432 -11.4992,-1.016 -17.228,-1.7168c-0.3432,-0.0416 -0.7144,-0.0984 -0.9528,-0.348c-0.2184,-0.2272 -0.2728,-0.5616 -0.3112,-0.8736c-0.3184,-2.5944 -0.26,-5.2192 -0.1624,-7.8312"/>
    <path fill="#363757" id="Fill-25" d="m14.0628,91.372c0.3416,-8.4624 0.6832,-16.924 1.0248,-25.3864c0.0656,-1.6384 0.132,-3.2776 0.1984,-4.9168c4.7016,0.2344 9.4024,0.468 14.104,0.7016c-0.464,15.22 -0.9272,30.4416 -1.3912,45.6624c-4.8464,-0.3576 -9.6984,-0.6264 -14.5456,-0.9824c0.2032,-5.0264 0.4064,-10.052 0.6096,-15.0784m16.2528,-31.356c-5.2968,-0.2632 -10.5944,-0.5264 -15.8912,-0.7896c-0.5008,-0.0248 -0.8808,0.4328 -0.9,0.9c-0.2144,5.304 -0.4288,10.608 -0.6432,15.912c-0.3408,8.4624 -0.6824,16.924 -1.0248,25.3864c-0.0776,1.9528 -0.1576,3.9064 -0.236,5.8592c-0.02,0.4952 0.3,0.7648 0.6736,0.8368c0.0736,0.024 0.1408,0.0568 0.2264,0.0632c5.4464,0.4144 10.9016,0.696 16.3488,1.1104c0.496,0.0376 0.8856,-0.4432 0.9,-0.9c0.4824,-15.8264 0.9648,-31.652 1.4464,-47.4784c0.016,-0.504 -0.4248,-0.8768 -0.9,-0.9"/>
    <path fill="#FFD314" id="Fill-27" d="m42.69088,26.20088c0.1096,7.3664 0.2192,14.7328 0.3288,22.0992c0.0024,0.1176 0.0088,0.2472 0.0912,0.3304c0.084,0.0848 0.2152,0.092 0.3344,0.0944c7.5688,0.136 13.1784,0.272 20.748,0.4088c0.212,0.0032 0.4424,0.00069 0.6064,-0.1328c0.208,-0.1672 0.2264,-0.4728 0.22418,-0.74c-0.05778,-7.1528 0,-13.9496 -0.01858,-21.3024c-6.8888,-0.3032 -12.0752,-1.1312 -22.3144,-0.7576"/>
    <path fill="#363757" id="Fill-29" d="m59.72528,50.85752c-0.9208,-0.0176 -1.8424,-0.0352 -2.7624,-0.0536c-1.64,-0.0328 -3.28,-0.0664 -4.9208,-0.1c-1.6344,-0.0344 -3.2704,-0.068 -4.9064,-0.1008c-0.8528,-0.0168 -1.7056,-0.0336 -2.5584,-0.0496c-0.5048,-0.0104 -1.0104,-0.02 -1.516,-0.0296c-0.2712,-0.0048 -0.7472,-0.0928 -1.0984,-0.072c-0.0016,-0.0904 -0.0032,-0.18 -0.004,-0.2704c-0.008,-0.5256 -0.0168,-1.0528 -0.024,-1.5784c-0.0136,-0.9208 -0.0264,-1.8416 -0.0408,-2.7624c-0.0272,-1.8416 -0.0544,-3.6832 -0.0832,-5.5248c-0.052,-3.5224 -0.104,-7.044 -0.1568,-10.5664c3.8352,-0.1104 7.6688,-0.0736 11.5008,0.1472c3.0016,0.1728 5.9976,0.4264 9,0.5832c0.0056,3.3544 -0.0008,6.7096 -0.0048,10.064c-0.0032,1.7544 -0.004,3.5096 -0.0008,5.264c0.0024,0.8824 0.0048,1.7648 0.0088,2.6464c0.0024,0.4432 0.0048,0.8872 0.008,1.3312c0.0016,0.2944 0.0856,0.7704 0.0216,1.1312c-0.768,0.1312 -1.7528,-0.0456 -2.4624,-0.0592m4.2376,-1.6432c-0.0072,-1.1984 -0.0112,-2.396 -0.0136,-3.5944c-0.0088,-5.3304 0.0192,-10.6608 0.0056,-15.9912c-0.0008,-0.5024 -0.412,-0.8776 -0.9,-0.9c-3.304,-0.1488 -6.5984,-0.4416 -9.9,-0.632c-4.136,-0.2384 -8.2744,-0.2712 -12.4136,-0.1248c-0.1816,0.0056 -0.324,0.0656 -0.4488,0.1448c-0.2592,0.1304 -0.4568,0.3736 -0.45132,0.7552c0.07212,4.8672 0.14492,9.7336 0.21772,14.6008c0.0368,2.484 -0.0744,5.0216 0.112,7.4984c0.0504,0.6768 0.3448,1.1336 1.0248,1.292c1.036,0.2424 2.3192,0.0696 3.3816,0.0904c4.3696,0.0832 8.74,0.1784 13.1096,0.2648c1.1256,0.0224 2.252,0.0432 3.3776,0.064c0.908,0.0168 2.068,0.228 2.6384,-0.6592c0.4896,-0.7624 0.2648,-1.9512 0.26,-2.8088"/>
   </g>
  </g>
 </g>
</svg>