
<svg width="50px" height="50px" viewBox="0 0 50 50" version="1.1" xmlns="http://www.w3.org/2000/svg" xmlns:xlink="http://www.w3.org/1999/xlink">
    <title>Illus/Small/Bon a savoir</title>
    <g id="Illus/Small/Bon-a-savoir" stroke="none" stroke-width="1" fill="none" fill-rule="evenodd">
        <path d="M20.446178,9.303068 C15.118658,9.971648 10.661678,13.844528 8.539778,18.776708 C6.417878,23.709548 8.178098,29.550548 10.428698,34.425308 C11.272178,36.250868 12.773678,37.575488 14.246138,38.944988 C18.276758,42.693788 23.955398,43.819748 29.349578,42.720848 C33.892358,41.795528 37.649078,38.962148 40.032338,34.984988 C41.931818,31.815008 44.006198,29.115608 43.807538,25.425548 C43.665638,22.767068 42.376658,19.369388 41.219678,16.972268 C39.173018,12.729788 34.790618,9.912908 30.173258,8.981648 C25.556558,8.051048 25.556558,8.051048 20.446178,9.303068" id="Fill-1" fill="#FFD314"></path>
        <path d="M39.025442,21.266228 C35.113622,25.453268 31.201802,29.639648 27.291302,33.826688 C24.046082,37.299608 20.854982,41.029928 16.629002,43.352468 C15.903662,43.751768 15.081302,44.036228 14.247722,43.850108 C13.100642,43.594028 12.195122,42.562448 11.292902,41.861528 C10.331282,41.113748 9.354482,40.375868 8.509682,39.493448 C7.820642,38.773388 6.587102,37.512788 7.107182,36.448868 C7.656302,35.325548 8.621882,34.287368 9.363062,33.284828 C10.133282,32.244008 10.910102,31.208468 11.698802,30.181508 C13.312502,28.077428 14.976362,26.009648 16.703582,23.995988 C18.417602,21.998168 20.197622,20.055128 22.059482,18.193928 C23.916722,16.337348 25.929722,14.647748 27.682022,12.687548 C29.198042,10.992008 30.636842,8.952608 32.599022,7.738868 C34.664822,6.460448 36.784082,6.942908 38.634722,8.361248 C39.137642,8.747348 39.775862,9.421868 39.925022,10.100348 C40.149422,11.118728 39.157442,12.562808 38.634062,13.405628 C37.358282,15.460208 35.831042,17.395328 34.389602,19.335728 C31.427522,23.322788 28.211342,27.137588 24.471782,30.421088 C23.001962,31.712048 21.439082,33.084188 19.729022,34.055048 C19.429382,34.225328 19.406942,34.340828 19.188482,34.050428 C19.104662,33.938888 18.921182,33.532328 18.911282,33.626708 C18.935702,33.393728 19.306622,32.982548 19.454462,32.774648 C19.706582,32.420888 19.975862,32.080988 20.252402,31.747028 C23.292362,28.078088 27.043802,25.007108 30.399902,21.639128 C31.341062,20.694008 32.261762,19.728428 33.160682,18.743048 C34.018022,17.803208 32.622122,16.398728 31.760822,17.342528 C27.823262,21.656948 23.298302,25.388588 19.387802,29.725448 C18.802382,30.374888 18.251282,31.063268 17.745062,31.775408 C17.250722,32.469068 16.767602,33.216188 17.005862,34.102568 C17.252042,35.021288 18.024902,35.931428 18.968042,36.161768 C19.957382,36.403988 20.905802,35.689868 21.670082,35.157248 C25.971962,32.164148 29.706902,28.371128 33.008222,24.322028 C34.798142,22.126868 36.466622,19.841948 38.127182,17.548448 C38.931062,16.437668 39.778502,15.352628 40.484702,14.175188 C41.116322,13.121828 41.923502,11.718008 41.962442,10.458728 C42.031082,8.254988 39.824702,6.594428 38.085602,5.712008 C35.767682,4.535228 33.173882,4.859288 31.087622,6.375308 C28.910942,7.957328 27.321662,10.206608 25.493462,12.149648 C23.454062,14.318408 21.155942,16.235048 19.098722,18.392588 C14.988242,22.703048 11.284322,27.383108 7.742762,32.165468 C6.916442,33.280868 5.872982,34.415408 5.286242,35.678648 C4.668482,37.009208 5.129822,38.283668 5.919182,39.424808 C6.696662,40.547468 7.655642,41.482688 8.714282,42.338048 C9.782162,43.200008 10.846082,44.117408 11.956862,44.920628 C13.974482,46.377248 16.205282,45.945608 18.197822,44.726588 C20.508482,43.312868 22.592762,41.573768 24.502802,39.658448 C28.834382,35.316308 32.917142,30.702248 37.104182,26.220848 C38.211662,25.036148 39.318482,23.851448 40.425302,22.666748 C41.294522,21.736148 39.897302,20.332988 39.025442,21.266228" id="Fill-3" fill="#363757"></path>
    </g>
</svg>
