<?xml version="1.0" encoding="UTF-8"?>
<svg xmlns="http://www.w3.org/2000/svg" xmlns:xlink="http://www.w3.org/1999/xlink" viewBox="0 0 24 24" width="24px" height="24px">
<g id="surface13441041">
<path style=" stroke:none;fill-rule:nonzero;fill:rgb(90.588236%,29.803923%,23.529412%);fill-opacity:1;" d="M 16.9375 1.0625 L 3.875 14.125 L 1.074219 22.925781 L 9.875 20.125 L 22.9375 7.0625 C 22.9375 7.0625 22.835938 4.960938 20.9375 3.0625 C 19.039062 1.164062 16.9375 1.0625 16.9375 1.0625 Z M 17.3125 2.6875 C 18.382812 2.890625 19.238281 3.34375 19.894531 4.023438 C 20.554688 4.699219 21.019531 5.59375 21.3125 6.6875 L 19.5 8.5 L 15.5 4.5 Z M 4.976562 15.125 C 4.992188 15.128906 6.179688 15.429688 7.375 16.625 C 8.675781 17.824219 8.875 18.925781 8.875 18.925781 L 8.917969 18.976562 L 5.367188 20.117188 L 3.871094 18.621094 Z M 4.976562 15.125 "/>
</g>
</svg>
