<svg width="85" height="85" xmlns="http://www.w3.org/2000/svg" xmlns:xlink="http://www.w3.org/1999/xlink"><defs><path id="a" d="M0 0h55v56H0z"/></defs><g fill="none" fill-rule="evenodd"><path d="M33.879 18.75c-8.672 1.098-13.617 7.481-17.071 15.578-3.455 8.096-2.899 17.657.766 25.66 1.372 2.996 3.179 5.827 5.576 8.075 6.56 6.153 16.56 7.05 25.34 5.248 7.395-1.52 14.855-5.078 18.734-11.607 3.091-5.203 3.505-11.577 3.183-17.634-.232-4.363-.83-8.795-2.712-12.73-3.332-6.964-10.465-11.588-17.98-13.116-7.516-1.529-7.516-1.529-15.836.527" fill="#464CD0"/><g transform="translate(15 18)"><mask id="b" fill="#fff"><use xlink:href="#a"/></mask><path d="M47.557 42.101c-1.89 2.354-4.362 4.083-6.881 5.678-1.963 1.243-4 2.425-6.191 3.209-2.057.734-4.188 1.123-6.361 1.276-2.435.172-5.024.305-7.451.03-2.005-.228-4.008-.809-5.93-1.402-1.928-.596-4.126-1.225-5.785-2.434-1.972-1.436-3.15-4.32-3.933-6.628a28.79 28.79 0 01-1.479-7.304c-.774-11.289 4.555-22.923 14.142-28.98 1.66-.525 3.353-1.459 4.838-1.831 2.284-.573 5.071-.099 7.383.112 5.249.476 10.905 1.637 15.147 4.994 4.695 3.717 6.266 9.607 6.45 15.394.19 5.957-.07 13.05-3.95 17.886m3.11-32.43c-4.145-5.585-10.883-8.01-17.5-8.963C29.886.236 26.348-.214 23.038.11c-2.252.218-4.245 1.458-6.397 2.105-.155.03-.312.087-.473.17a1.673 1.673 0 00-.389.24C6.165 8.775.33 19.925.014 31.348c-.157 5.675 1.019 11.934 4.114 16.757 1.505 2.344 3.29 3.693 5.797 4.755 2.331.988 4.768 1.743 7.233 2.317 4.928 1.149 10.466 1.047 15.407-.006 5.321-1.133 10.462-4.279 14.602-7.748 2.64-2.213 4.714-4.958 5.948-8.2 1.236-3.254 1.596-6.8 1.79-10.256.367-6.601-.18-13.822-4.24-19.296" fill="#363757" mask="url(#b)"/></g><path d="M67.166 16.154l3.77-5.922c.421-.663.16-1.684-.539-2.053-.742-.392-1.6-.17-2.052.538-1.255 1.975-2.513 3.949-3.77 5.923-.422.663-.159 1.683.538 2.052.743.392 1.603.17 2.053-.538M72.146 21.421a30.7 30.7 0 007.09-1.843c.727-.285 1.315-1.018 1.047-1.845-.229-.707-1.063-1.354-1.845-1.047a30.684 30.684 0 01-7.09 1.842c-.344.047-.73.406-.896.689-.188.322-.268.796-.151 1.156.278.859 1.008 1.161 1.845 1.048M61.246 10.308c.008-.298.023-.596.052-.893l.024-.222c.008-.06.041-.33.006-.062-.035.265.023-.146.037-.23.09-.56.206-1.116.304-1.675.275-1.567.4-3.134.337-4.725-.032-.782-.669-1.537-1.5-1.5-.787.036-1.534.66-1.5 1.5.032.828.027 1.657-.04 2.482a24.15 24.15 0 01-.052.54c-.01.087-.022.172-.03.258-.023.203.057-.387.005-.052-.045.293-.092.586-.145.878-.221 1.226-.47 2.45-.498 3.7-.018.786.703 1.537 1.5 1.5.828-.036 1.48-.658 1.5-1.5" fill="#363757"/><path d="M45.696 41.321l5.411 1.311c.637.155 1.113.59 1.306 1.2a1.709 1.709 0 01-.38 1.706L37.368 61.535a1.859 1.859 0 01-2.285.36c-.761-.427-1.1-1.293-.82-2.102L37.3 50.95l-5.411-1.31c-.643-.157-1.114-.592-1.307-1.2a1.704 1.704 0 01.38-1.707l14.663-15.996a1.863 1.863 0 012.287-.36c.76.427 1.1 1.293.82 2.102l-3.037 8.842z" fill="#FFD314"/></g></svg>