<svg width="85" height="85" xmlns="http://www.w3.org/2000/svg" xmlns:xlink="http://www.w3.org/1999/xlink"><defs><path id="a" d="M0 .238h68.2V65H0z"/><path id="c" d="M.142.267h8.072v5.072H.142z"/></defs><g fill="none" fill-rule="evenodd"><g transform="translate(7 11.134)"><mask id="b" fill="#fff"><use xlink:href="#a"/></mask><path d="M67.117 39.095C62.157 56.952 48.277 65 29.437 65 8.243 65 0 53.508 0 34.974S13.54.238 35.325.238c18.533 0 37.679 17.662 31.792 38.857" fill="#01BF7D" mask="url(#b)"/></g><path d="M60.318 49.691c-.086 1.899-.482 3.49-2.265 4.424-1.694.888-3.787 1.101-5.662 1.266-7.687.677-15.537.541-23.242.316-2.992-.087-8.04.506-8.378-3.608-.224-2.719.42-5.169.716-7.938.2-2.147.83-4.23 1.633-6.223.725-1.8 1.563-3.652 2.836-5.136 1.1-1.282 2.472-2.34 4.124-2.781 2.086-.557 4.419-.349 6.558-.347 4.586.004 9.176.121 13.754.387 1.903.111 3.865.29 5.234 1.773 1.285 1.392 1.84 3.303 2.425 5.059 1.377 4.139 2.467 8.413 2.267 12.808m2.74-3.898c-.262-2.495-.808-4.945-1.518-7.349-1.202-4.069-2.507-9.061-6.972-10.613-2.256-.785-4.851-.686-7.205-.788a252.433 252.433 0 00-7.926-.22c-2.878-.034-5.865-.215-8.723.169-2.318.312-4.368 1.367-6.042 2.995-1.752 1.704-2.878 3.833-3.837 6.052-1.128 2.609-1.942 5.274-2.206 8.112-.29 2.696-.965 5.535-.69 8.259.167 1.659.855 3.242 2.142 4.345 1.53 1.312 3.542 1.564 5.484 1.665 4.355.228 8.724.265 13.083.248 4.5-.018 9.036-.038 13.523-.41 4-.331 9.156-1.058 10.576-5.496.69-2.162.548-4.746.312-6.969" fill="#363757"/><path d="M42.781 26.774a3.159 3.159 0 01-.397-.1c-.012-.005-.024-.014-.037-.02v-.002a1.943 1.943 0 01-.053-.199 4.54 4.54 0 01.005-.68l.016-.084c.016-.066.04-.128.06-.192.02-.035.04-.072.062-.105.002-.002.003-.002.005-.002.052-.017.104-.032.157-.044l.066.002c.12.033.238.07.354.116.171.077.334.166.491.267.048.043.095.09.141.137l.037.06c0 .031 0 .063-.002.093-.035.15-.08.296-.134.44a3.387 3.387 0 01-.18.33 4.158 4.158 0 01-.59-.017m3.633-1.74c-.275-.758-.782-1.338-1.452-1.777-.31-.204-.665-.345-1.007-.48-.372-.148-.745-.284-1.153-.294-.643-.015-1.366.122-1.907.486-.687.46-1.145 1.16-1.339 1.96-.337 1.517-.12 3.328 1.325 4.2.61.367 1.321.466 2.016.518.78.059 1.557-.069 2.188-.556.615-.476.936-1.125 1.214-1.832.271-.69.372-1.515.115-2.226" fill="#363757"/><path d="M37.834 25.413l.06-.037h.093c.15.037.296.082.44.136.113.054.223.114.329.18.008.198.004.394-.016.59a3.035 3.035 0 01-.1.398l-.021.036h-.001a2.24 2.24 0 01-.2.054 4.54 4.54 0 01-.68-.005l-.084-.016c-.065-.016-.128-.04-.192-.06a1.968 1.968 0 01-.105-.063l-.002-.005a1.38 1.38 0 01-.042-.156c-.002-.022 0-.045 0-.067a3.83 3.83 0 01.116-.353c.077-.171.166-.334.267-.491.044-.05.09-.096.138-.141m3.222-1.435c-.475-.615-1.123-.936-1.831-1.214-.69-.271-1.516-.372-2.226-.115-.757.274-1.338.782-1.777 1.452-.202.31-.344.665-.48 1.006-.148.373-.284.746-.293 1.153-.015.644.12 1.366.485 1.908.46.687 1.16 1.144 1.96 1.338 1.517.337 3.328.12 4.2-1.324.368-.61.468-1.321.519-2.017.058-.78-.07-1.556-.557-2.187M60.286 51.528c-.395 3.864-5.839 3.818-8.776 3.986-7.118.41-14.29.371-21.416.224-1.852-.038-3.723-.038-5.57-.19-1.353-.111-3.014-.447-3.598-1.855-.256-.617-.197-1.373-.162-2.024.022-.42.065-.752.09-.907.223-1.422.447-2.839.633-4.266.382-3.288 2.2-7.089 4.668-9.326 2.923-2.65 6.804-2.31 10.483-2.307 4.197.003 8.395.092 12.588.268 1.845.076 3.954-.01 5.624.899 1.615.88 2.395 2.611 3.063 4.233 1.456 3.538 2.77 7.383 2.373 11.265m2.789-3.547c-.272-2.288-.89-4.5-1.69-6.657-1.459-3.933-3.164-7.83-7.725-8.68-2.288-.426-4.678-.392-6.997-.47a304.112 304.112 0 00-7.46-.157c-4.822-.044-10.187-.675-14.242 2.45-3.563 2.746-5.823 7.636-6.333 12.03-.318 2.438-1.203 5.269-.533 7.716 1.042 3.808 5.216 4.178 8.507 4.29 8.209.283 16.484.327 24.688-.117 3.597-.195 9.163-.334 11.125-4.01 1-1.872.904-4.348.66-6.394M65.466 14.198c.513-1.98 1.025-2.96 1.538-4.94.13-.506-.166-1.11-.7-1.23-.52-.12-1.088.156-1.23.698-.511 1.98-1.024 2.96-1.537 4.94-.131.506.167 1.109.699 1.23.522.119 1.09-.156 1.23-.698M69.884 16.607a13.39 13.39 0 011.466-1.48c.137-.121.276-.24.417-.356l.225-.183.113-.09a12.66 12.66 0 01.844-.602c.436-.288.664-.895.359-1.367-.28-.434-.902-.668-1.368-.36-1.27.843-2.493 1.85-3.47 3.024-.174.209-.293.426-.293.707 0 .245.109.538.293.707.369.339 1.057.429 1.414 0" fill="#363757"/><g transform="translate(70 16.134)"><mask id="d" fill="#fff"><use xlink:href="#c"/></mask><path d="M1.64 5.217c2.9-1.402 2.806-1.927 5.884-2.964 1.218-.41.689-2.344-.532-1.928C3.712 1.44 3.686 2.014.63 3.49c-.487.235-.616.928-.358 1.368.29.497.88.595 1.367.359" fill="#363757" mask="url(#d)"/></g></g></svg>