<?xml version="1.0" encoding="UTF-8"?>
<svg width="85px" height="85px" viewBox="0 0 85 85" version="1.1" xmlns="http://www.w3.org/2000/svg" xmlns:xlink="http://www.w3.org/1999/xlink">
    <title>Illus/Big/ipad</title>
    <g id="Illus/Big/ipad" stroke="none" stroke-width="1" fill="none" fill-rule="evenodd">
        <path d="M18.6319,15.4878 C37.3249,15.0998 74.7629,14.1338 77.2589,16.8518 C79.0419,18.7928 78.8449,23.2798 79.0419,25.4968 C80.0689,37.0058 79.3779,49.2928 79.4009,60.9448 C79.4039,62.8868 79.3099,65.6388 78.4169,66.6878 C76.7229,68.6798 73.7849,68.4418 70.2059,68.5988 C50.7439,69.4578 32.2059,69.6578 11.0999,69.7968 C9.1709,69.8088 7.6859,69.7658 6.7099,67.8528 C6.1469,66.7478 6.0679,56.5088 6.0509,51.7068 C6.0159,42.0548 5.8519,33.5378 6.3879,23.9008 C6.4989,21.9058 6.4229,18.6298 7.8959,17.2798 C10.0259,15.3258 12.1759,15.9248 18.6319,15.4878" id="Fill-1" fill="#FFD314"></path>
        <path d="M42.5343,19.5395 C41.8843,18.9855 41.5053,19.1245 41.1293,19.1135 C40.3783,19.0905 39.8933,19.9445 39.9403,20.6945 C39.9693,21.1505 40.1553,21.6115 40.5133,21.8965 C41.0973,22.3605 42.0423,22.2055 42.5103,21.6245 C42.9763,21.0445 42.9583,20.1525 42.5343,19.5395" id="Fill-4" fill="#363757"></path>
        <path d="M15.0108,35.4673 C19.8588,35.5733 24.7288,35.3643 29.5748,35.2863 C36.6218,35.1723 43.6678,35.0463 50.7138,34.9483 C52.6948,34.9213 54.6828,34.8563 56.6628,34.9003 C58.1118,34.9313 58.1118,32.6813 56.6628,32.6503 C51.8158,32.5433 46.9458,32.7523 42.0978,32.8303 C35.0518,32.9453 28.0058,33.0713 20.9598,33.1683 C18.9788,33.1963 16.9908,33.2603 15.0108,33.2173 C13.5618,33.1853 13.5628,35.4353 15.0108,35.4673" id="Fill-6" fill="#363757"></path>
        <path d="M15.0108,47.1172 C19.8588,47.2232 24.7288,47.0142 29.5748,46.9362 C36.6218,46.8222 43.6678,46.6962 50.7138,46.5982 C52.6948,46.5712 54.6828,46.5062 56.6628,46.5492 C58.1118,46.5812 58.1118,44.3312 56.6628,44.2992 C51.8158,44.1932 46.9458,44.4022 42.0978,44.4802 C35.0518,44.5952 28.0058,44.7212 20.9598,44.8182 C18.9788,44.8462 16.9908,44.9102 15.0108,44.8672 C13.5618,44.8352 13.5628,47.0852 15.0108,47.1172" id="Fill-8" fill="#363757"></path>
        <path d="M15.0108,58.7666 C19.8588,58.8736 24.7288,58.6636 29.5748,58.5856 C36.6218,58.4716 43.6678,58.3456 50.7138,58.2476 C52.6948,58.2206 54.6828,58.1556 56.6628,58.1996 C58.1118,58.2306 58.1118,55.9806 56.6628,55.9496 C51.8158,55.8426 46.9458,56.0516 42.0978,56.1306 C35.0518,56.2446 28.0058,56.3706 20.9598,56.4676 C18.9788,56.4956 16.9908,56.5606 15.0108,56.5166 C13.5618,56.4846 13.5628,58.7346 15.0108,58.7666" id="Fill-10" fill="#363757"></path>
        <path d="M63.9122,35.1426 C64.3202,35.5136 65.1142,35.6406 65.5032,35.1426 C67.1802,32.9966 68.8552,30.8506 70.5322,28.7046 C70.8932,28.2416 71.0162,27.5586 70.5322,27.1126 C70.1282,26.7426 69.3272,26.6176 68.9402,27.1126 C67.5102,28.9456 66.0782,30.7786 64.6472,32.6106 C64.5752,32.5066 64.5032,32.4026 64.4362,32.2946 C64.2822,32.0446 64.1442,31.7846 64.0242,31.5166 C64.0092,31.4726 63.9212,31.2536 63.9112,31.2256 C63.8612,31.0806 63.8172,30.9356 63.7752,30.7886 C63.6162,30.2226 62.9732,29.8146 62.3912,30.0026 C61.8142,30.1896 61.4342,30.7806 61.6062,31.3866 C62.0122,32.8216 62.8082,34.1386 63.9122,35.1426" id="Fill-12" fill="#363757"></path>
        <path d="M68.9405,38.7627 C67.5095,40.5957 66.0785,42.4287 64.6475,44.2607 C64.5755,44.1567 64.5035,44.0527 64.4365,43.9447 C64.2825,43.6947 64.1445,43.4337 64.0245,43.1667 C64.0085,43.1217 63.9205,42.9037 63.9115,42.8747 C63.8615,42.7307 63.8175,42.5857 63.7755,42.4387 C63.6165,41.8727 62.9725,41.4647 62.3915,41.6527 C61.8145,41.8397 61.4345,42.4297 61.6065,43.0367 C62.0115,44.4717 62.8075,45.7877 63.9125,46.7927 C64.3205,47.1627 65.1145,47.2897 65.5025,46.7927 C67.1795,44.6467 68.8555,42.4997 70.5325,40.3537 C70.8935,39.8907 71.0165,39.2077 70.5325,38.7627 C70.1275,38.3917 69.3275,38.2677 68.9405,38.7627" id="Fill-14" fill="#363757"></path>
        <path d="M68.9405,50.4126 C67.5095,52.2456 66.0785,54.0786 64.6475,55.9106 C64.5755,55.8066 64.5035,55.7026 64.4365,55.5946 C64.2825,55.3446 64.1445,55.0836 64.0245,54.8166 C64.0085,54.7716 63.9205,54.5536 63.9115,54.5246 C63.8615,54.3806 63.8175,54.2346 63.7755,54.0886 C63.6165,53.5226 62.9725,53.1146 62.3915,53.3026 C61.8145,53.4896 61.4345,54.0796 61.6065,54.6866 C62.0115,56.1216 62.8075,57.4376 63.9125,58.4426 C64.3205,58.8126 65.1145,58.9396 65.5025,58.4426 C67.1795,56.2956 68.8555,54.1496 70.5325,52.0036 C70.8935,51.5406 71.0165,50.8576 70.5325,50.4126 C70.1275,50.0416 69.3275,49.9166 68.9405,50.4126" id="Fill-16" fill="#363757"></path>
    </g>
</svg>