<?xml version="1.0" encoding="UTF-8"?>
<svg width="85px" height="85px" viewBox="0 0 85 85" version="1.1" xmlns="http://www.w3.org/2000/svg" xmlns:xlink="http://www.w3.org/1999/xlink">
    <title>Illus/Big/Graph</title>
    <g id="Illus/Big/Graph" stroke="none" stroke-width="1" fill="none" fill-rule="evenodd">
        <path d="M31.47478,14.11108 C23.20278,13.24758 17.27708,17.89398 12.37108,24.38508 C7.46508,30.87728 5.96908,39.52988 7.68178,47.44988 C8.32418,50.41548 9.40438,53.32608 11.15228,55.84178 C15.94168,62.72778 25.02108,65.65378 33.54058,65.91008 C40.71478,66.12568 48.38068,64.53508 53.35048,59.53228 C57.31048,55.54588 59.03638,49.94468 60.01098,44.47108 C60.71388,40.52758 61.09228,36.44438 60.17488,32.53278 C58.55128,25.60938 52.91048,19.96748 46.26538,17.00518 C39.61918,14.04398 39.61918,14.04398 31.47478,14.11108" id="Fill-1" fill="#01BF7D"></path>
        <path d="M54.5,69 C56.70133,71.46067 58.5,73.5 64.5,79.5 C66.003664,81.003664 68.3753556,78.777955 66.9013,77.2406 C59,69 60.99093,71.38717 53.5,62.5 C52.1632302,60.9140687 49.7779,62.7862 51,64.5 L54.5,69 Z" id="Fill-6" fill="#363757"></path>
        <path d="M24.01546,24.4612 C27.57506,24.7054 28.06896,24.1301 31.62856,24.3743 C30.90366,33.578 31.24906,43.786 30.85306,53.4077 C29.02156,53.5936 25.63796,53.3274 23.72066,53.4077 C24.21676,43.8278 23.26636,33.8178 24.01546,24.4612" id="Fill-8" fill="#FFD314"></path>
        <path d="M33.84671,33.83056 C35.38121,33.68866 36.92341,33.63256 38.46231,33.66336 C38.73401,33.66886 39.02551,33.68316 39.23891,33.85036 C39.54141,34.08576 39.57111,34.52246 39.57661,34.90526 C39.63271,39.30746 39.62941,43.71076 39.56561,48.11406 C39.54361,49.69806 39.38301,53.32146 39.14101,53.47546 C38.94411,53.60196 35.78931,53.50076 34.60461,53.40836 C34.07991,53.36766 33.55741,53.41826 33.08991,53.17736 L33.84671,33.83056 Z" id="Fill-10" fill="#FFD314"></path>
        <path d="M41.64978,40.00244 C42.98628,39.61304 44.24688,39.93644 45.65598,39.80664 C45.87378,39.78684 46.11358,39.77364 46.29288,39.88034 C46.53268,40.02224 46.55578,40.30714 46.55578,40.55354 C46.54808,44.55314 46.53928,48.55164 46.53158,52.55124 C46.53158,52.83504 46.50848,53.15954 46.24118,53.33664 C46.03658,53.47194 45.75168,53.47414 45.49208,53.46974 C44.41848,53.45434 42.15028,53.48624 41.07668,53.47084 L41.64978,40.00244 Z" id="Fill-12" fill="#FFD314"></path>
        <path d="M60.75394,14.48277 C61.94084,12.33447 63.12664,10.18617 64.31354,8.03787 C64.64244,7.44387 64.47854,6.59577 63.84824,6.26357 C63.23994,5.94127 62.42594,6.09417 62.07504,6.72887 L58.51434,13.17377 C58.18654,13.76777 58.34934,14.61587 58.97964,14.94807 C59.58794,15.27037 60.40304,15.11747 60.75394,14.48277" id="Fill-14" fill="#363757"></path>
        <path d="M67.70297,19.33718 C69.36397,18.34498 71.02497,17.35388 72.68377,16.36168 C73.26677,16.01408 73.53187,15.18028 73.14907,14.58738 C72.77177,14.00108 71.99847,13.75028 71.37587,14.12208 C69.71487,15.11428 68.05387,16.10538 66.39507,17.09758 C65.81207,17.44628 65.54697,18.28008 65.92977,18.87188 C66.30597,19.45708 67.08037,19.70898 67.70297,19.33718" id="Fill-17" fill="#363757"></path>
        <path d="M67.9189,27.5313 C70.5842,27.7634 73.2495,27.9966 75.9148,28.2287 C76.5913,28.2881 77.2403,27.5907 77.2106,26.9318 C77.1765,26.1794 76.6397,25.6987 75.9148,25.6349 C73.2495,25.4028 70.5842,25.1707 67.9189,24.9386 C67.2413,24.8792 66.5923,25.5766 66.622,26.2344 C66.6561,26.9879 67.1929,27.4675 67.9189,27.5313" id="Fill-19" fill="#363757"></path>
    </g>
</svg>