<?xml version="1.0" encoding="UTF-8"?>
<svg width="85px" height="85px" viewBox="0 0 85 85" version="1.1" xmlns="http://www.w3.org/2000/svg" xmlns:xlink="http://www.w3.org/1999/xlink">
    <title>Illus/Big/Mobile</title>
    <g id="Illus/Big/Mobile" stroke="none" stroke-width="1" fill="none" fill-rule="evenodd">
        <path d="M24.1544297,13.768682 C25.0839297,8.58548204 26.2477297,5.10618204 30.2000297,5.00388204 C32.1415297,4.95328204 49.1563297,5.37348204 60.8163297,7.68018204 C62.7446297,8.06188204 64.9798297,8.40838204 66.2481297,9.78338204 C67.3195297,10.947182 67.8552297,13.164782 67.8564332,14.683882 C67.8739297,34.854582 65.6464297,54.936182 61.4026297,74.733982 C61.0847297,76.216782 60.6964297,77.797482 59.4853297,78.831482 C58.0905297,80.021682 55.9994297,80.160282 54.0887297,80.203182 C41.8127297,80.473782 32.8521297,79.092182 20.8368297,76.785482 C19.9073297,76.606182 18.8425297,76.324582 17.8767297,75.167382 C17.2761297,74.447982 17.0011297,72.262282 17,71.361382 C16.9879297,51.617482 20.6784297,33.258482 24.1544297,13.768682" id="Fill-1" fill="#464CD0"></path>
        <path d="M32.27196,29.8863 C35.98116,30.3461 39.69036,30.807 43.40066,31.2668 C44.06506,31.3493 44.63816,30.6398 44.63816,30.0293 C44.63816,29.2923 44.06726,28.8754 43.40066,28.7918 C39.69036,28.332 35.98116,27.8711 32.27196,27.4113 C31.60756,27.3288 31.03446,28.0394 31.03446,28.6488 C31.03446,29.3858 31.60646,29.8038 32.27196,29.8863" id="Fill-4" fill="#FFD314"></path>
        <path d="M41.22871,14.63986 C44.93791,15.09966 48.64711,15.56056 52.35631,16.02036 C53.02181,16.10286 53.59381,15.39336 53.59381,14.78286 C53.59381,14.04586 53.02401,13.62896 52.35631,13.54536 C48.64711,13.08556 44.93791,12.62466 41.22871,12.16486 C40.56431,12.08236 39.99121,12.79296 39.99121,13.40236 C39.99121,14.13936 40.56211,14.55736 41.22871,14.63986" id="Fill-6" fill="#363757"></path>
        <path d="M30.33189,42.72968 C34.15549,43.20378 37.97799,43.67788 41.80159,44.15308 C42.46599,44.23558 43.03909,43.52498 43.03909,42.91558 C43.03909,42.17858 42.46819,41.76058 41.80159,41.67808 C37.97799,41.20288 34.15549,40.72878 30.33189,40.25468 C29.66749,40.17218 29.09439,40.88278 29.09439,41.49218 C29.09439,42.22918 29.66529,42.64718 30.33189,42.72968" id="Fill-8" fill="#FFD314"></path>
        <path d="M28.34353,56.75622 C32.24853,57.24022 36.15353,57.72532 40.05743,58.20932 C40.72183,58.29182 41.29493,57.58232 41.29493,56.97182 C41.29493,56.23482 40.72403,55.81682 40.05743,55.73432 C36.15353,55.25032 32.24853,54.76522 28.34353,54.28122 C27.67913,54.19872 27.10603,54.90932 27.10603,55.51872 C27.10603,56.25572 27.67803,56.67372 28.34353,56.75622" id="Fill-10" fill="#FFD314"></path>
        <path d="M59.59365,24.81057 C59.09975,24.31667 58.34185,24.36177 57.84355,24.81057 C55.72275,26.72017 53.60305,28.62977 51.48225,30.53937 C51.07085,29.74407 50.78155,28.89927 50.69465,28.04237 C50.62755,27.37687 50.17435,26.80487 49.45715,26.80487 C48.84115,26.80487 48.15255,27.37357 48.21965,28.04237 C48.40555,29.86507 49.01715,31.60967 50.14355,33.06827 C50.64295,33.71617 51.43715,33.90537 52.08835,33.31907 C54.58975,31.06627 57.09225,28.81347 59.59365,26.56067 C60.09085,26.11297 60.04905,25.26597 59.59365,24.81057" id="Fill-12" fill="#FFD314"></path>
        <path d="M56.11204,38.76253 C53.99124,40.67213 51.87154,42.58173 49.75074,44.49133 C49.34044,43.69713 49.05114,42.85123 48.96424,41.99433 C48.89494,41.32883 48.44284,40.75683 47.72674,40.75683 C47.10964,40.75683 46.41994,41.32553 46.48924,41.99433 C46.67404,43.81813 47.28674,45.56163 48.41314,47.02133 C48.91254,47.66813 49.70564,47.85733 50.35684,47.27103 C52.85824,45.01823 55.35964,42.76543 57.86324,40.51263 C58.35934,40.06603 58.31754,39.21793 57.86324,38.76253 C57.36934,38.26863 56.61034,38.31373 56.11204,38.76253" id="Fill-14" fill="#FFD314"></path>
        <path d="M54.47392,51.96792 C52.35312,53.87752 50.23342,55.78712 48.11262,57.69672 C47.70232,56.90252 47.41302,56.05662 47.32502,55.19972 C47.25792,54.53422 46.80472,53.96222 46.08752,53.96222 C45.47042,53.96222 44.78182,54.53092 44.85002,55.19972 C45.03592,57.02352 45.64862,58.76702 46.77502,60.22672 C47.27442,60.87352 48.06752,61.06272 48.71872,60.47642 C51.22012,58.22362 53.72152,55.97082 56.22402,53.71802 C56.72122,53.27142 56.67942,52.42332 56.22402,51.96792 C55.73122,51.47402 54.97222,51.51912 54.47392,51.96792" id="Fill-16" fill="#FFD314"></path>
        <path d="M42.15898,69.36816 C40.94898,68.33856 40.24388,68.59706 39.54538,68.57506 C38.14838,68.53326 37.24858,70.12056 37.33548,71.51536 C37.38828,72.36346 37.73588,73.22146 38.40138,73.75056 C39.48488,74.61406 41.24378,74.32476 42.11278,73.24566 C42.98068,72.16546 42.94768,70.50776 42.15898,69.36816" id="Fill-18" fill="#363757"></path>
    </g>
</svg>