<svg viewBox="0 0 230 116" xmlns="http://www.w3.org/2000/svg">
<path d="M195.242 74.591c-2.502 4.796-6.07 8.561-10.7 11.3C179.91 88.63 174.405 90 168.03 90l-105.062-.002c-6.374 0-11.88-1.368-16.51-4.108-4.632-2.738-8.199-6.504-10.701-11.298C33.253 69.797 32 64.434 32 58.5c0-5.936 1.253-11.299 3.758-16.091 2.502-4.796 6.07-8.561 10.7-11.3C51.09 28.37 56.596 27 62.97 27l105.062.001c6.375 0 11.88 1.37 16.51 4.11 4.632 2.737 8.199 6.504 10.701 11.296C197.748 47.202 199 52.567 199 58.5c0 5.935-1.252 11.299-3.758 16.091m26.57-46.046c-5.455-8.721-12.884-15.66-22.284-20.811C190.128 2.577 179.439 0 167.46 0H62.54C50.562 0 39.873 2.58 30.472 7.733 21.073 12.89 13.644 19.827 8.187 28.546 2.73 37.266 0 47.08 0 58c0 10.917 2.729 20.737 8.187 29.455 5.457 8.721 12.886 15.66 22.286 20.811 9.4 5.157 20.089 7.734 32.067 7.734h104.92c11.979 0 22.667-2.58 32.068-7.732 9.4-5.158 16.83-12.095 22.285-20.813C227.273 78.734 230 68.92 230 58c0-10.918-2.728-20.737-8.187-29.455" fill="#464CD0" fill-rule="evenodd"/></svg>