<svg width="115" height="60" xmlns="http://www.w3.org/2000/svg"><g fill="#01BF7D" fill-rule="evenodd"><path d="M53.169 50.48c.486 0 .916.076 1.29.23.374.153.688.37.943.65.254.28.448.61.583.988.135.377.202.79.202 1.24 0 .568-.114 1.067-.342 1.497-.229.43-.548.769-.96 1.015-.411.247-.897.37-1.458.37-.24 0-.47-.033-.69-.1a1.994 1.994 0 01-.595-.292 1.856 1.856 0 01-.443-.449h-.011v3.175H50.15v-5.217c0-.628.123-1.176.37-1.643a2.613 2.613 0 011.05-1.083c.452-.254.985-.382 1.598-.382zm-39.549 0c.591 0 1.119.132 1.582.398.464.266.83.625 1.1 1.077.27.453.404.96.404 1.52 0 .561-.135 1.068-.404 1.52-.27.453-.636.812-1.1 1.077-.463.266-.99.399-1.582.399-.59 0-1.118-.133-1.581-.399a2.98 2.98 0 01-1.1-1.077 2.918 2.918 0 01-.404-1.52c0-.56.135-1.067.404-1.52.27-.452.636-.811 1.1-1.077.463-.266.99-.399 1.581-.399zm21.508 0c.59 0 1.118.132 1.582.398.464.266.83.625 1.1 1.077.269.453.403.96.403 1.52 0 .561-.134 1.068-.404 1.52-.269.453-.635.812-1.099 1.077-.464.266-.991.399-1.582.399-.59 0-1.118-.133-1.582-.399a2.975 2.975 0 01-1.1-1.077 2.916 2.916 0 01-.403-1.52c0-.56.134-1.067.404-1.52a2.98 2.98 0 011.1-1.077 3.128 3.128 0 011.581-.399zm49.31 0c.59 0 1.118.132 1.582.398.463.266.83.625 1.1 1.077.268.453.403.96.403 1.52 0 .561-.135 1.068-.404 1.52-.27.453-.636.812-1.1 1.077-.463.266-.99.399-1.581.399s-1.119-.133-1.582-.399a2.975 2.975 0 01-1.1-1.077 2.916 2.916 0 01-.404-1.52c0-.56.135-1.067.404-1.52a2.98 2.98 0 011.1-1.077 3.128 3.128 0 011.582-.399zm5.688-2.334v3.175h.011c.12-.172.267-.321.443-.449.176-.127.374-.224.595-.292.22-.067.45-.1.69-.1.56 0 1.047.123 1.458.37.412.247.732.585.96 1.015.228.43.342.93.342 1.498 0 .449-.068.862-.202 1.24-.135.378-.33.706-.584.987-.254.28-.568.498-.942.65-.374.154-.804.23-1.29.23-.614 0-1.147-.126-1.6-.38a2.613 2.613 0 01-1.048-1.083c-.247-.468-.37-1.016-.37-1.644v-5.217h1.537zM46.01 50.48c.576 0 1.067.11 1.475.33.408.221.72.519.937.892.217.375.325.786.325 1.235v3.4h-1.537v-3.4c0-.21-.054-.4-.162-.573a1.242 1.242 0 00-.432-.415 1.18 1.18 0 00-.606-.157 1.224 1.224 0 00-1.038.572 1.05 1.05 0 00-.163.573v3.4h-1.537v-3.4c0-.21-.054-.4-.162-.573a1.24 1.24 0 00-.432-.415 1.179 1.179 0 00-.606-.157 1.224 1.224 0 00-1.038.572 1.051 1.051 0 00-.163.573v3.4h-1.537v-3.4c0-.45.109-.86.326-1.235.217-.373.529-.67.937-.891.407-.221.899-.331 1.475-.331.276 0 .533.031.768.095.236.064.455.155.657.275.202.12.377.262.527.426h.011c.157-.164.337-.307.539-.426.202-.12.422-.211.662-.275.24-.064.497-.095.774-.095zm65.668 0c.643 0 1.164.134 1.565.403.4.27.693.63.88 1.083a3.92 3.92 0 01.27 1.773 1.222 1.222 0 01-.034.23h-3.87c.059.232.162.426.308.583.146.157.329.275.55.354.22.078.469.117.746.117h1.593v1.313h-1.616c-.65 0-1.217-.125-1.7-.376a2.788 2.788 0 01-1.121-1.026 2.738 2.738 0 01-.399-1.459c0-.606.123-1.133.37-1.582a2.66 2.66 0 011.01-1.043c.426-.247.909-.37 1.448-.37zm-5.05-1.302v1.436h1.605v1.313h-1.604v2.737c0 .098.035.182.106.253a.345.345 0 00.253.106h1.245v1.313h-1.515c-.508 0-.907-.146-1.194-.437-.288-.292-.432-.689-.432-1.19v-2.782h-.976v-1.313h.976v-1.436h1.537zM6.677 50.48c.576 0 1.067.11 1.475.33.408.221.72.519.937.892.217.375.325.786.325 1.235v3.4H7.876v-3.4c0-.21-.054-.4-.163-.573a1.243 1.243 0 00-.431-.415 1.181 1.181 0 00-.606-.157 1.226 1.226 0 00-1.038.572 1.051 1.051 0 00-.163.573v3.4H3.938v-3.4c0-.21-.054-.4-.162-.573a1.24 1.24 0 00-.433-.415 1.18 1.18 0 00-.605-.157 1.223 1.223 0 00-1.038.572 1.05 1.05 0 00-.163.573v3.4H0v-3.4c0-.45.108-.86.325-1.235.217-.373.53-.67.937-.891.408-.221.9-.331 1.476-.331.276 0 .532.031.768.095s.455.155.657.275c.202.12.377.262.527.426H4.7c.157-.164.337-.307.539-.426.202-.12.422-.211.661-.275.24-.064.498-.095.775-.095zm90.619.134v5.722h-1.548v-5.722h1.548zm5.991 0v5.722h-1.548v-5.722h1.548zm-3.006-2.468v8.19h-1.537v-8.19h1.537zM20.62 50.48c.591 0 1.094.116 1.51.347.415.232.732.543.953.932.22.388.331.819.331 1.29v3.287h-1.537V53.05c0-.232-.056-.443-.168-.634a1.26 1.26 0 00-.455-.454 1.226 1.226 0 00-.634-.169c-.232 0-.443.056-.633.169-.191.112-.343.263-.455.454-.112.19-.168.402-.168.634v3.287h-1.537V53.05c0-.471.11-.902.33-1.29.221-.39.541-.7.96-.932.419-.231.92-.347 1.503-.347zm56.872 0c.576 0 1.067.11 1.475.33.408.221.72.519.937.892.217.375.325.786.325 1.235v3.4h-1.537v-3.4c0-.21-.054-.4-.162-.573a1.24 1.24 0 00-.432-.415 1.18 1.18 0 00-.606-.157 1.225 1.225 0 00-1.038.572 1.05 1.05 0 00-.163.573v3.4h-1.537v-3.4c0-.21-.054-.4-.162-.573a1.242 1.242 0 00-.432-.415 1.18 1.18 0 00-.606-.157 1.226 1.226 0 00-1.038.572 1.051 1.051 0 00-.163.573v3.4h-1.537v-3.4c0-.45.109-.86.326-1.235.217-.373.529-.67.936-.891.408-.221.9-.331 1.476-.331.276 0 .533.031.768.095.236.064.455.155.657.275.202.12.377.262.527.426h.011c.157-.164.337-.307.539-.426.202-.12.422-.211.662-.275.239-.064.497-.095.774-.095zm-46.18.134v1.313h-.718c-.314 0-.585.067-.813.202a1.37 1.37 0 00-.527.555c-.124.236-.185.5-.185.791 0 .292.061.555.185.791.123.236.299.42.527.555.228.135.5.202.813.202h.719v1.313h-.719c-.59 0-1.118-.127-1.581-.381a2.937 2.937 0 01-1.1-1.027 2.683 2.683 0 01-.404-1.453c0-.538.135-1.023.404-1.453a2.94 2.94 0 011.1-1.026c.463-.255.99-.382 1.581-.382h.719zm27.668-1.436v1.436h1.604v1.313h-1.604v2.737c0 .098.035.182.106.253a.345.345 0 00.253.106h1.245v1.313H59.07c-.508 0-.907-.146-1.195-.437-.287-.292-.431-.689-.431-1.19v-2.782h-.977v-1.313h.977v-1.436h1.537zm5.049 1.301c.643 0 1.164.135 1.565.404.4.27.693.63.88 1.083a3.92 3.92 0 01.27 1.773 1.254 1.254 0 01-.034.23h-3.87c.059.232.162.426.308.583.146.157.329.275.55.354.22.078.469.117.746.117h1.593v1.313h-1.616c-.65 0-1.217-.125-1.7-.376a2.787 2.787 0 01-1.121-1.026 2.736 2.736 0 01-.399-1.459c0-.606.124-1.133.37-1.582a2.659 2.659 0 011.01-1.043c.426-.247.909-.37 1.448-.37zm27.577 1.313a1.356 1.356 0 00-1.285.83 2.033 2.033 0 00-.174.853c0 .314.058.599.174.853.116.254.284.456.505.606.22.15.48.224.78.224.307 0 .568-.075.785-.224.217-.15.383-.352.5-.606.115-.254.173-.539.173-.853 0-.314-.058-.598-.174-.853a1.45 1.45 0 00-.499-.605 1.349 1.349 0 00-.785-.225zm-7.17 0a1.45 1.45 0 00-.813.225c-.228.15-.404.351-.527.605a1.928 1.928 0 00-.185.853c0 .314.061.599.185.853.123.254.3.456.527.606.228.15.5.224.814.224.314 0 .585-.075.813-.224.228-.15.404-.352.527-.606.124-.254.185-.539.185-.853 0-.314-.061-.598-.185-.853a1.486 1.486 0 00-.527-.605 1.45 1.45 0 00-.813-.225zm-31.268 0a1.356 1.356 0 00-1.285.83 2.03 2.03 0 00-.174.853c0 .314.058.599.174.853.116.254.284.456.505.606.22.15.48.224.78.224.307 0 .568-.075.785-.224.217-.15.383-.352.5-.606.115-.254.173-.539.173-.853 0-.314-.058-.598-.173-.853a1.453 1.453 0 00-.5-.605 1.35 1.35 0 00-.785-.225zm-39.549 0a1.45 1.45 0 00-.813.225c-.228.15-.404.351-.527.605a1.928 1.928 0 00-.185.853c0 .314.061.599.185.853.123.254.299.456.527.606.228.15.5.224.813.224.315 0 .586-.075.814-.224.228-.15.404-.352.527-.606.124-.254.185-.539.185-.853 0-.314-.061-.598-.185-.853a1.488 1.488 0 00-.527-.605 1.45 1.45 0 00-.814-.225zm21.508 0a1.45 1.45 0 00-.813.225c-.229.15-.404.351-.528.605a1.928 1.928 0 00-.185.853c0 .314.062.599.185.853.124.254.3.456.528.606.228.15.499.224.813.224.314 0 .585-.075.813-.224.229-.15.404-.352.528-.606.123-.254.185-.539.185-.853 0-.314-.062-.598-.185-.853a1.486 1.486 0 00-.528-.605 1.45 1.45 0 00-.813-.225zm76.562-.045c-.187 0-.354.034-.5.101a1.065 1.065 0 00-.364.27 1.32 1.32 0 00-.23.381 1.986 1.986 0 00-.118.438h2.39a2.134 2.134 0 00-.079-.399 1.178 1.178 0 00-.157-.33 1.063 1.063 0 00-.235-.248 1.04 1.04 0 00-.315-.157 1.32 1.32 0 00-.392-.056zm-47.65 0c-.187 0-.353.034-.499.101a1.066 1.066 0 00-.364.27c-.097.112-.174.24-.23.381a1.996 1.996 0 00-.118.438h2.39a2.15 2.15 0 00-.079-.399 1.189 1.189 0 00-.157-.33 1.07 1.07 0 00-.235-.248 1.039 1.039 0 00-.315-.157 1.318 1.318 0 00-.393-.056zM96.52 48c.263 0 .489.095.68.286.19.19.286.417.286.679a.928.928 0 01-.286.679.928.928 0 01-.68.286.927.927 0 01-.678-.286.927.927 0 01-.286-.68c0-.26.096-.487.286-.678a.927.927 0 01.679-.286zm5.992 0c.262 0 .488.095.679.286.19.19.286.417.286.679a.928.928 0 01-.286.679.928.928 0 01-.679.286.927.927 0 01-.679-.286.928.928 0 01-.286-.68c0-.26.096-.487.286-.678a.927.927 0 01.68-.286zm10.917.482l-.943 1.38h-1.447l.942-1.38h1.448zM28.578 17.523c2.117 0 4.02.529 5.711 1.587 1.691 1.058 3.036 2.5 4.036 4.322 1 1.823 1.5 3.896 1.5 6.219v10.174h-5.16V29.65c0-1.235-.265-2.3-.794-3.198a5.384 5.384 0 00-2.184-2.072c-.926-.485-1.962-.728-3.11-.728-1.145 0-2.182.243-3.109.728a5.384 5.384 0 00-2.182 2.072c-.526.89-.79 1.949-.793 3.172v10.2h-5.162v-10.19l.001-.016c-.004-1.22-.268-2.276-.793-3.166a5.385 5.385 0 00-2.183-2.072c-.926-.485-1.963-.728-3.11-.728-1.146 0-2.182.243-3.109.728a5.386 5.386 0 00-2.183 2.072c-.53.897-.794 1.963-.794 3.198v10.174H0V29.65c0-2.323.5-4.396 1.5-6.219.999-1.823 2.344-3.264 4.035-4.322 1.69-1.058 3.595-1.587 5.711-1.587 2.118 0 4.021.529 5.712 1.587a11.312 11.312 0 012.954 2.679 11.3 11.3 0 012.954-2.679c1.691-1.058 3.595-1.587 5.712-1.587zm47.026-.191c2.323 0 4.395.5 6.218 1.5 1.823.998 3.264 2.344 4.322 4.034 1.059 1.691 1.588 3.595 1.588 5.712 0 2.117-.53 4.02-1.588 5.712-1.058 1.69-2.499 3.035-4.322 4.035s-3.895 1.5-6.218 1.5H55.256c-2.323 0-4.396-.5-6.218-1.5-1.823-.999-3.264-2.344-4.322-4.035-1.059-1.691-1.588-3.595-1.588-5.712 0-2.117.53-4.02 1.588-5.711 1.058-1.69 2.499-3.036 4.321-4.036 1.823-1 3.896-1.5 6.22-1.5zM102.164 0c2.324 0 4.397.5 6.22 1.5 1.823.999 3.263 2.344 4.321 4.035 1.06 1.69 1.588 3.595 1.588 5.711 0 2.118-.529 4.021-1.588 5.712a11.315 11.315 0 01-2.678 2.954 11.31 11.31 0 012.678 2.954c1.06 1.691 1.588 3.595 1.588 5.712 0 2.117-.529 4.02-1.588 5.712-1.058 1.69-2.498 3.035-4.321 4.035-1.823 1-3.896 1.5-6.22 1.5H91.992V0zm-26.56 22.492H55.256c-1.234 0-2.3.264-3.197.793a5.384 5.384 0 00-2.073 2.184c-.485.926-.728 1.962-.728 3.11 0 1.146.243 2.182.728 3.108a5.383 5.383 0 002.073 2.183c.896.53 1.963.794 3.197.794h20.348c1.234 0 2.3-.264 3.197-.793a5.384 5.384 0 002.073-2.184c.485-.926.727-1.962.727-3.109 0-1.146-.242-2.183-.727-3.11a5.385 5.385 0 00-2.073-2.182c-.897-.53-1.963-.794-3.197-.794zm26.587 0l-.026.001h-5.016v12.172h5.016c1.235 0 2.3-.265 3.197-.794a5.383 5.383 0 002.073-2.184c.485-.926.728-1.962.728-3.109 0-1.146-.243-2.183-.728-3.11a5.383 5.383 0 00-2.072-2.182c-.89-.526-1.949-.79-3.172-.793zm-.026-17.332h-5.016v12.172h5.047c1.221-.004 2.277-.268 3.167-.793a5.382 5.382 0 002.072-2.183c.485-.926.728-1.963.728-3.11 0-1.146-.243-2.182-.728-3.109a5.383 5.383 0 00-2.072-2.183c-.897-.529-1.963-.794-3.198-.794z"/></g></svg>