<svg width="115" height="40" xmlns="http://www.w3.org/2000/svg"><path d="M28.578 17.523c2.117 0 4.02.529 5.711 1.587 1.691 1.058 3.036 2.5 4.036 4.322 1 1.823 1.5 3.896 1.5 6.219v10.174h-5.16V29.65c0-1.235-.265-2.3-.794-3.198a5.384 5.384 0 00-2.184-2.072c-.926-.485-1.962-.728-3.11-.728-1.145 0-2.182.243-3.109.728a5.384 5.384 0 00-2.182 2.072c-.526.89-.79 1.949-.793 3.172v10.2h-5.162v-10.19l.001-.016c-.004-1.22-.268-2.276-.793-3.166a5.385 5.385 0 00-2.183-2.072c-.926-.485-1.963-.728-3.11-.728-1.146 0-2.182.243-3.109.728a5.386 5.386 0 00-2.183 2.072c-.53.897-.794 1.963-.794 3.198v10.174H0V29.65c0-2.323.5-4.396 1.5-6.219.999-1.823 2.344-3.264 4.035-4.322 1.69-1.058 3.595-1.587 5.711-1.587 2.118 0 4.021.529 5.712 1.587a11.312 11.312 0 012.954 2.679 11.3 11.3 0 012.954-2.679c1.691-1.058 3.595-1.587 5.712-1.587zm47.026-.191c2.323 0 4.395.5 6.218 1.5 1.823.998 3.264 2.344 4.322 4.034 1.059 1.691 1.588 3.595 1.588 5.712 0 2.117-.53 4.02-1.588 5.712-1.058 1.69-2.499 3.035-4.322 4.035s-3.895 1.5-6.218 1.5H55.256c-2.323 0-4.396-.5-6.218-1.5-1.823-.999-3.264-2.344-4.322-4.035-1.059-1.691-1.588-3.595-1.588-5.712 0-2.117.53-4.02 1.588-5.711 1.058-1.69 2.499-3.036 4.321-4.036 1.823-1 3.896-1.5 6.22-1.5zM102.164 0c2.324 0 4.397.5 6.22 1.5 1.823.999 3.263 2.344 4.321 4.035 1.06 1.69 1.588 3.595 1.588 5.711 0 2.118-.529 4.021-1.588 5.712a11.315 11.315 0 01-2.678 2.954 11.31 11.31 0 012.678 2.954c1.06 1.691 1.588 3.595 1.588 5.712 0 2.117-.529 4.02-1.588 5.712-1.058 1.69-2.498 3.035-4.321 4.035-1.823 1-3.896 1.5-6.22 1.5H91.992V0zm-26.56 22.492H55.256c-1.234 0-2.3.264-3.197.793a5.384 5.384 0 00-2.073 2.184c-.485.926-.728 1.962-.728 3.11 0 1.146.243 2.182.728 3.108a5.383 5.383 0 002.073 2.183c.896.53 1.963.794 3.197.794h20.348c1.234 0 2.3-.264 3.197-.793a5.384 5.384 0 002.073-2.184c.485-.926.727-1.962.727-3.109 0-1.146-.242-2.183-.727-3.11a5.385 5.385 0 00-2.073-2.182c-.897-.53-1.963-.794-3.197-.794zm26.587 0l-.026.001h-5.016v12.172h5.016c1.235 0 2.3-.265 3.197-.794a5.383 5.383 0 002.073-2.184c.485-.926.728-1.962.728-3.109 0-1.146-.243-2.183-.728-3.11a5.383 5.383 0 00-2.072-2.182c-.89-.526-1.949-.79-3.172-.793zm-.026-17.332h-5.016v12.172h5.047c1.221-.004 2.277-.268 3.167-.793a5.382 5.382 0 002.072-2.183c.485-.926.728-1.963.728-3.11 0-1.146-.243-2.182-.728-3.109a5.383 5.383 0 00-2.072-2.183c-.897-.529-1.963-.794-3.198-.794z" fill="#01BF7D" fill-rule="evenodd"/></svg>