<?xml version="1.0" encoding="UTF-8"?>
<svg width="150px" height="145px" viewBox="0 0 150 145" version="1.1" xmlns="http://www.w3.org/2000/svg" xmlns:xlink="http://www.w3.org/1999/xlink">
    <title>Logos/Partners/FranceMob@2x</title>
    <defs>
        <linearGradient x1="77.8279559%" y1="37.5%" x2="5.48659967%" y2="54.053665%" id="linearGradient-1">
            <stop stop-color="#D4D4D4" offset="0%"></stop>
            <stop stop-color="#F7F7F7" offset="100%"></stop>
        </linearGradient>
    </defs>
    <g id="Logos/Partners/FranceMob" stroke="none" stroke-width="1" fill="none" fill-rule="evenodd">
        <g id="Group" transform="translate(15.000000, 13.000000)">
            <path d="M95.4697294,22.987619 L94.6532092,22.1768971 L89.5463971,18.0856204 C88.6812179,17.4770639 87.7507645,16.7638934 86.6866475,16.0642595 L83.1191186,13.9914009 C81.8220915,13.2989767 80.3695934,12.6967471 78.8785241,11.9918163 C77.3622353,11.3439744 75.6958159,10.8381192 73.9979463,10.2185276 C72.2463738,9.77123269 70.4310107,9.24610263 68.5174396,8.88708964 C66.5881435,8.60841316 64.613007,8.18245308 62.5386242,8.12433417 C58.4147815,7.71867893 54.028952,8.04826462 49.5888263,8.73318489 C45.1396513,9.47592979 40.6998223,10.9558284 36.4047832,12.8846404 C32.1529141,14.9185078 28.1250541,17.6548048 24.5502559,20.7230416 C21.0598691,23.9703435 17.9603855,27.607557 15.4765557,31.5644981 C13.1048788,35.5782339 11.1752859,39.7635308 9.96741747,44.0250444 C8.82541655,48.2868523 8.03515429,52.5155545 8.00622597,56.5634259 C7.84348565,58.5814026 8.06334086,60.5442031 8.13217541,62.439468 C8.28913007,64.3297302 8.61342392,66.1417158 8.87170186,67.8786619 C9.30755516,69.5842678 9.62546994,71.2442615 10.1065701,72.7724209 C10.646417,74.2829239 11.0810835,75.7425177 11.6271611,77.0607133 L13.2861629,80.7018996 C13.862504,81.7946821 14.4645097,82.7622516 14.9689008,83.6534572 C15.4710667,84.5493711 15.9417824,85.3312543 16.4348989,85.9565843 L17.6178445,87.5958317 L18.6025941,88.9602282 L16.4973544,85.9134733 C16.0168476,85.2760782 15.5608187,84.4847782 15.0810537,83.5816546 C14.5968382,82.6825036 14.0184202,81.7094901 13.4672987,80.6115578 L11.8915214,76.9556579 C11.3757073,75.633931 10.9738262,74.1731601 10.46899,72.6658941 C10.0233456,71.140236 9.7417766,69.4859807 9.34493944,67.79038 C9.12523259,66.0632921 8.84069664,64.2654316 8.72424162,62.3947385 C8.6953133,60.5181599 8.51714455,58.5793427 8.72008781,56.5910876 C8.82882861,52.6020707 9.6969748,48.4573835 10.9011345,44.2993068 C12.1716068,40.1432901 14.1480784,36.0882089 16.5380024,32.2233753 C19.0394858,28.4146006 22.1271015,24.9437984 25.5692744,21.8658506 C29.1851656,18.901345 33.0274394,16.41518 37.1744248,14.5259477 C41.354344,12.7539832 45.6476028,11.4171012 49.9312189,10.791477 C54.2065274,10.224413 58.407364,9.98840612 62.339093,10.4601256 C64.3177899,10.5514974 66.1947184,11.0037949 68.0253616,11.3018934 C69.8407247,11.6807698 71.5566931,12.2187007 73.2115411,12.6727639 C74.8110545,13.2994181 76.3819362,13.8057147 77.8056544,14.4492896 C79.2031146,15.1498064 80.5670477,15.7424721 81.7774381,16.4218012 L85.1038978,18.4456633 C86.0928011,19.1261695 86.9542716,19.8185937 87.7571436,20.406551 C88.5646145,20.9909771 89.26646,21.5343521 89.8143178,22.0824354 L92.3781084,24.4319106 L91.5104072,25.2920704 L90.3994115,24.3143486 L88.958633,23.0498577 C88.4104785,22.5297303 87.7179791,22.0082787 86.9168873,21.4563698 C86.1224712,20.897104 85.2626326,20.2499978 84.2904929,19.6014203 L81.0101701,17.7076268 C79.8239608,17.0643461 78.4840605,16.5242081 77.1147869,15.8790147 C75.7281563,15.2714882 74.1910984,14.826989 72.6323814,14.2605135 C71.0312361,13.8294037 69.3532455,13.3906427 67.6027114,13.038398 C65.8294798,12.8065109 64.0190123,12.3923218 62.1141939,12.3542134 C58.3287383,11.9772498 54.3082957,12.3231676 50.2335569,12.9356968 C46.1611917,13.6656408 42.0858595,14.9910461 38.1468613,16.7738987 C34.3072578,18.689027 30.50311,21.1696008 27.3387973,23.9975637 C24.1044631,27.0215125 21.2605871,30.3063342 19.0313266,33.9812147 C16.871494,37.6627163 15.0804603,41.4965042 14.0277663,45.4181325 C12.9737371,49.3231345 12.3018584,53.2069487 12.2815344,56.9131693 C12.109003,60.6173299 12.5860977,64.1035815 13.123571,67.276138 C13.5310893,68.8365203 13.8482624,70.3508489 14.2815937,71.7521766 C14.7830179,73.1330524 15.2019592,74.4630189 15.6974494,75.6723336 L17.2402929,78.995705 C17.7664916,79.9974101 18.3302228,80.8764034 18.7958946,81.6905095 C19.6871834,83.348149 20.6849878,84.4502011 21.24234,85.2875548 L22.152321,86.5314465 L21.2709716,85.2656315 C20.73335,84.4191553 19.7580949,83.2898829 18.9076024,81.6179712 C18.461958,80.7959198 17.921666,79.911041 17.4212803,78.904039 L15.9609196,75.5653654 C15.4959896,74.353108 15.1101304,73.0219643 14.6435685,71.6438842 C14.2455446,70.2447635 13.9650141,68.7360261 13.5965118,67.1856491 C13.4134475,65.6015779 13.1071041,63.9627719 13.0209125,62.2483377 C12.9689899,60.5312551 12.8262769,58.758702 12.9949512,56.9378882 C13.0961261,53.290228 13.8455921,49.487633 14.9623734,45.6885694 C16.077968,41.8727321 17.9164738,38.1690129 20.0942567,34.6362662 C22.3202536,31.1288271 25.222728,27.9508264 28.3113821,25.1792167 C31.6351715,22.355815 35.1449922,20.2160093 38.9205083,18.4134404 C42.7437933,16.7884652 46.6731487,15.6053409 50.5793616,14.9934003 C54.4889864,14.4990218 58.3247328,14.2468298 61.9176297,14.6904463 C63.7261687,14.7616604 65.4379833,15.202187 67.113007,15.4540846 C68.7647397,15.8258984 70.3430389,16.277166 71.8473114,16.7156327 C73.3078205,17.2882878 74.7494891,17.7339642 76.043104,18.3369295 C77.3177302,18.9774145 78.5684719,19.5063701 79.6689347,20.1383213 L82.7077431,21.9834126 C83.6048176,22.6128624 84.3955249,23.2390752 85.1274855,23.7773004 C85.8659735,24.3086102 86.5032865,24.80858 87.0032272,25.3094325 L89.3344044,27.4486497 L88.4905877,28.2855619 L87.4911514,27.4078929 C86.7547404,26.8186113 85.8087102,25.792923 84.3321793,24.820498 C83.6123834,24.3142014 82.8326541,23.7290397 81.9517497,23.1412295 L78.9802924,21.4262068 C77.9065327,20.8411922 76.6928785,20.3540233 75.4529664,19.7691559 C74.1977742,19.2178355 72.8059513,18.8148287 71.3945461,18.3014696 C69.9451633,17.9075852 68.4259075,17.5122295 66.8422676,17.189265 C65.2366719,16.9782713 63.5981424,16.5993949 61.8743114,16.5626108 C58.4481603,16.214633 54.8086814,16.5220011 51.1195051,17.0643461 C47.4337409,17.7193977 43.7392241,18.8989908 40.17125,20.5038083 C36.6943631,22.2203023 33.2278607,24.4530983 30.3655892,26.9937037 C27.4220218,29.7160227 24.8333084,32.6686102 22.7989801,35.9813879 C20.8245855,39.2975496 19.1792318,42.7518725 18.2039767,46.2900633 C17.2223425,49.8120689 16.5908151,53.3177425 16.5427496,56.6667157 C16.3580534,60.0124519 16.7624565,63.1657336 17.2202656,66.0365133 C17.5743779,67.4497591 17.8498644,68.8197467 18.2275644,70.0896816 C18.6680166,71.3416659 19.0357771,72.5458307 19.4708886,73.6430274 L20.8340799,76.6587365 C21.2985648,77.5686284 21.8001373,78.3675795 22.2124029,79.1072345 C23.0022201,80.6122934 23.890987,81.619884 24.3860321,82.3792553 L25.1946898,83.5111762 L24.4142187,82.359539 C23.9386075,81.5891325 23.0732799,80.556823 22.3250008,79.0380804 C21.9324658,78.2910685 21.4547777,77.4859377 21.0158091,76.570896 L19.7353973,73.5410618 C19.3308459,72.441511 18.9957225,71.2358747 18.5901326,69.9868332 C18.2477401,68.7196939 18.0091927,67.3557389 17.6932065,65.9524983 C17.3128362,63.1020235 16.990916,59.9861145 17.256018,56.6998214 C17.3840444,53.4102913 18.092714,49.9865728 19.1363586,46.5703582 C20.1734758,43.1376644 21.8651148,39.8139986 23.8570148,36.6460033 C25.8871892,33.4991956 28.5330175,30.6557833 31.3325368,28.1818307 C34.3533947,25.6471107 37.5220097,23.7543472 40.9361444,22.148794 C44.3884052,20.7005297 47.9366486,19.6630705 51.4570022,19.1249924 C54.9812128,18.6996209 58.436589,18.4859787 61.6703297,18.8995793 C63.2987714,18.9697634 64.8387962,19.3743887 66.3460357,19.6050987 C67.8313193,19.9474853 69.2539991,20.3556418 70.6039872,20.7567358 C71.9173327,21.2767161 73.2140631,21.6804586 74.3762396,22.2278063 C75.522246,22.807524 76.6467416,23.2855704 77.6351999,23.857637 L80.3663297,25.5238104 C81.1723171,26.0923457 81.8827668,26.6570554 82.5401072,27.1423115 C83.8906887,28.0729497 84.7396977,29.0568513 85.4102412,29.6155285 L86.3114695,30.4434654 L85.1930563,31.5527272 L84.3149707,30.7834978 C83.6607457,30.2614576 82.8201926,29.3533313 81.5111492,28.4911116 C80.8723527,28.0423453 80.180595,27.5242778 79.3989371,27.0034147 L76.7654218,25.4879091 C75.8136061,24.9683702 74.7368793,24.5360832 73.6381967,24.0180157 C72.5252724,23.5274627 71.2909976,23.1700682 70.0399592,22.7143866 C68.7565804,22.3617005 67.4088175,22.012987 66.0061651,21.722981 C64.5828919,21.5349406 63.1317289,21.1954968 61.6038687,21.1600369 C58.570401,20.8447235 55.3427426,21.1110405 52.0729528,21.5792287 C48.8071684,22.1539438 45.5281808,23.1777193 42.3657966,24.5903766 C39.2838183,26.0933756 36.1865599,28.0589717 33.6545163,30.2886778 C31.0296054,32.6852366 28.7194939,35.2782227 26.9002737,38.1994701 C25.1303057,41.1202762 23.647099,44.1627642 22.7589256,47.2855886 C21.8602192,50.3920809 21.2751255,53.487538 21.2006536,56.4471881 C21.0067597,59.4033069 21.3356524,62.1941915 21.7099403,64.7361211 C22.0084212,65.9885468 22.2399961,67.201687 22.5585042,68.3283109 C22.934424,69.4390442 23.2483333,70.5065192 23.6190608,71.4810041 L24.7905835,74.1575636 C25.1893492,74.9668142 25.6246091,75.6785133 25.9802048,76.3363605 C26.6600945,77.6745667 27.4321096,78.5750419 27.8609905,79.2515754 L28.5617975,80.260343 L27.8896221,79.2324476 C27.4807685,78.5476745 26.7326378,77.6202733 26.0938412,76.2694134 C25.757976,75.603768 25.3468972,74.8875077 24.9736478,74.0729602 L23.8857947,71.3808042 C23.5451824,70.403818 23.2645035,69.3361958 22.9234461,68.2289938 C22.6399486,67.1053126 22.4454613,65.8987935 22.1849581,64.6568146 C21.8875157,62.1362197 21.6411057,59.3834435 21.9143671,56.4872092 C22.068058,53.5870022 22.7291071,50.5746773 23.6883404,47.5739761 C24.6373376,44.5570899 26.1659395,41.6448177 27.9523743,38.8723252 C29.767144,36.1160177 32.1311066,33.6332369 34.6137496,31.4815132 C37.304083,29.2588697 40.1001902,27.6318346 43.1206031,26.2381579 C46.1696477,24.9811711 49.3022135,24.0979108 52.4030323,23.6395807 C55.5085983,23.2880717 58.550077,23.1145978 61.3942497,23.494357 C62.8268689,23.5623341 64.1801207,23.9300281 65.5054827,24.1354306 C66.8103723,24.4450058 68.0593338,24.8062258 69.2465816,25.1656802 C70.4000055,25.627983 71.5390394,25.9862603 72.5592447,26.472252 C73.5652083,26.9857583 74.5530732,27.4086285 75.4198843,27.9150723 L77.816484,29.3868784 C78.5236701,29.8890552 79.1470382,30.3865236 79.7239727,30.8143964 C80.9091436,31.6349765 81.6528238,32.5017575 82.241923,32.9936347 L83.0222458,33.713132 L81.7660151,34.9587894 L81.0155107,34.3031493 C80.4476256,33.8508518 79.7184837,33.0657316 78.5810817,32.3188668 L76.7485099,31.0324527 L74.4622828,29.7157284 C73.6376033,29.264608 72.7049247,28.8899985 71.7522188,28.440938 C70.7891284,28.0140951 69.7192257,27.7039314 68.6361199,27.3084286 C67.5252726,26.9987063 66.3573103,26.6988422 65.1430628,26.4423833 C63.908788,26.2784733 62.6550792,25.9796391 61.3322393,25.9452092 C58.704658,25.6638843 55.9138914,25.8865018 53.0790648,26.275972 C50.251804,26.7662307 47.4068895,27.6260962 44.6634467,28.8370294 C41.9940307,30.1159396 39.2807029,31.8009465 37.0923871,33.7057752 C34.7996326,35.7606832 32.7802877,37.9771469 31.1846315,40.4883251 C29.6272496,42.9952363 28.310937,45.6070558 27.5129606,48.2949448 C26.6992589,50.9675316 26.161934,53.6329088 26.0583855,56.1864623 C25.8533653,58.7351602 26.1006653,61.1455499 26.3872782,63.3453872 C26.6258255,64.4306658 26.8120052,65.4791603 27.0671678,66.4561465 C27.374698,67.4197432 27.6316408,68.3442017 27.9350173,69.1903835 L28.9046351,71.5179353 C29.2345663,72.222719 29.5987663,72.8421636 29.8948736,73.4154073 C30.4605335,74.5771968 31.1088245,75.3689382 31.4673872,75.958514 L32.0544095,76.8395672 L31.4964639,75.9399748 C31.1579284,75.3381867 30.5341152,74.5270233 30.0098451,73.3505201 C29.7340618,72.7705081 29.3935978,72.1459138 29.0893313,71.4365689 L28.2035314,69.0976875 C27.9305668,68.2469445 27.7065578,67.3252816 27.4337415,66.3655104 C27.2125511,65.3923498 27.063459,64.3526835 26.8631861,63.2765274 C26.6528253,61.1009675 26.4866729,58.7276562 26.7703188,56.2398728 C26.9518996,53.7475281 27.5639931,51.1649888 28.4376282,48.5989287 C29.2953899,46.0171251 30.6548724,43.5356685 32.2272377,41.1763352 C33.8184434,38.8290671 35.8882274,36.7245742 38.0409391,34.9094987 C40.3860613,33.0140867 42.7934906,31.6655809 45.4038632,30.4936389 C48.0308511,29.4369048 50.7302338,28.7157889 53.3934192,28.3407381 C56.0617967,28.06677 58.6709825,27.9350828 61.1088236,28.2810007 C62.3368678,28.3473592 63.4947422,28.6717951 64.6300673,28.8548329 C65.746997,29.1304195 66.8163063,29.442496 67.8317644,29.7589865 C68.8184425,30.1612576 69.7936976,30.4720099 70.6648108,30.8939973 C71.5225725,31.3387908 72.3693562,31.7039835 73.1097728,32.1421559 L75.1578976,33.4109137 L76.7867843,34.6399447 C77.7992754,35.3457583 78.4340665,36.0898274 78.9374192,36.5122562 L79.6765006,37.1974708 L80.465576,37.8697373 C92.2977025,49.6275598 92.2689225,68.7851697 80.3994118,80.5774221 C74.6229462,86.3248669 66.9337998,89.4930094 58.7494598,89.4930094 C50.6401852,89.4930094 43.0256589,86.3759233 37.289248,80.6957198 L36.4725794,79.8866164 L22.271743,93.9711079 L21.4973543,94.8261179 L22.3169899,95.635957 C32.0413547,105.249118 44.9864054,110.5425 58.7672619,110.5425 C72.6389088,110.5425 85.6628819,105.189822 95.4402077,95.4708699 C115.56408,75.4673725 115.578173,42.9527138 95.4729931,22.9898261" id="Fill-5" fill="#4F7383"></path>
            <path d="M89.7571527,35.6081185 L90.9298632,37.2369053 L90.5584057,37.4984354 C89.7991203,38.0325338 89.399982,38.7956367 89.9976476,39.6258514 C90.6408526,40.5194986 91.5171114,40.2152877 92.2762479,39.6814836 C93.163966,39.0562838 93.4129437,38.7603147 93.1429822,37.6750455 L92.7466715,36.0777542 C92.261217,34.2539605 92.9858271,33.334852 94.6654223,32.1525945 C96.6026269,30.7884285 98.5456356,30.4790665 100.062272,32.5883799 C101.200902,34.1699235 100.88436,36.1968189 99.3340899,37.2881222 L98.7206492,37.7202283 L97.5480876,36.0912943 L98.0649433,35.7274775 C98.6624602,35.3072926 99.0135292,34.5784815 98.4161612,33.7481197 C97.6227958,32.6466613 96.9050315,33.0328487 95.8540567,33.7715205 C94.6268776,34.6358798 94.5359479,34.9130105 94.7883486,35.9414701 L95.1450728,37.4482487 C95.5753147,39.2626233 94.9036849,40.2890224 93.466817,41.300704 C91.7248657,42.528733 89.6513409,42.5917239 88.3068908,40.7231889 C87.1341803,39.0949908 87.6763357,37.076926 88.9518816,36.1787164 L89.7571527,35.6081185 Z M88.4783328,47.429958 L87.607878,45.4962244 L91.2248267,46.7358802 L91.7571598,47.9179906 L88.4783328,47.429958 Z M92.9974351,49.1308605 L90.5470952,43.6874425 L92.2851772,42.91963 L93.9134292,46.5370467 L97.6976528,44.8705831 L96.278941,41.71927 L98.0171718,40.9514575 L99.4361812,44.1032121 L103.220554,42.4370429 L101.591855,38.8200678 L103.438874,38.0069254 L105.889958,43.4503434 L92.9974351,49.1308605 Z M96.0024313,53.1100336 L96.549349,55.3594577 L94.6990559,55.7995113 L93.1324159,49.3566271 L94.982709,48.9165736 L95.5299242,51.1655562 L107.403618,48.3421492 L107.876423,50.2869209 L96.0024313,53.1100336 Z M94.8166246,58.339459 L94.6252406,56.3470026 L108.673657,55.0228683 L108.865637,57.0153247 L94.8166246,58.339459 Z M94.6865549,65.1967882 L94.7925156,63.2002109 L106.867862,63.8279127 L107.078593,59.8733179 L109.0975,59.9784009 L108.781404,65.9294258 L94.6865549,65.1967882 Z M93.9603078,68.6212583 L94.3668871,66.6619163 L108.191923,69.4670736 L107.785195,71.4264156 L93.9603078,68.6212583 Z M91.3947804,76.0435927 L92.4563215,73.3174684 C93.396871,70.9029138 95.3553571,70.6188659 97.0733482,71.2746781 L97.554338,71.4573224 C98.9601024,71.9928926 99.3004563,72.6476746 99.4976443,73.6677451 C100.265115,72.9517383 101.21757,72.8525423 102.586278,73.3741308 L103.326217,73.6555296 C105.620443,74.5272477 106.495214,76.1017269 105.554069,78.5168702 L104.563516,81.0593199 L91.3947804,76.0435927 Z M97.5235321,76.2344788 L97.8509386,75.3929316 C98.3335655,74.1485662 97.8164121,73.5731116 96.6136397,73.1151027 C95.4489656,72.6709282 94.6745004,72.8591652 94.1966358,74.0854281 L93.8973565,74.8533877 L97.5235321,76.2344788 Z M103.406134,78.4747781 L103.719551,77.669436 C104.303674,76.1695746 103.421611,75.7072976 102.126272,75.214261 C100.813372,74.7160733 100.035484,74.6912007 99.5085083,76.0449173 L99.188394,76.8683619 L103.406134,78.4747781 Z M89.9927365,84.2880471 C88.077111,83.0299944 88.0842544,80.9640976 88.9947421,79.6083207 C89.9050809,78.2526909 91.8278499,77.4448468 93.7433266,78.7030466 L99.9525905,82.7809742 C101.868663,84.0387325 101.861221,86.1050709 100.950883,87.4607006 C100.040544,88.8164776 98.117626,89.6241745 96.2020005,88.3659747 L89.9927365,84.2880471 Z M97.3206889,86.7002469 C98.1296805,87.231549 98.8608387,86.9586864 99.2662275,86.3542383 C99.6716162,85.7499373 99.6427449,84.9782983 98.8339021,84.4449358 L92.624787,80.3665667 C91.8153489,79.8351175 91.084786,80.1081273 90.6792484,80.7124282 C90.2738597,81.3168763 90.3021357,82.0885153 91.1117226,82.6220251 L97.3206889,86.7002469 Z M80.0523781,89.2088464 L81.4920737,87.9190039 L88.4344305,91.6704971 L88.4640459,91.6442999 L85.3553214,84.456857 L86.8090062,83.1534743 L96.2871261,93.4959098 L94.7892415,94.8387353 L89.0248039,88.5487661 L88.9954862,88.5752576 L91.5852714,94.3499668 L90.8364035,95.0218211 L85.2943047,91.8928786 L85.2645405,91.919223 L91.0289781,98.2088978 L89.5304981,99.5521649 L80.0523781,89.2088464 Z M71.0978109,93.4391002 L76.6488389,91.119032 L77.3895217,92.8521659 L73.7009901,94.3941194 L75.3137646,98.1679831 L78.5272592,96.8248632 L79.2682396,98.5577028 L76.0544474,99.9009699 L77.6670731,103.674834 L81.3557536,102.133763 L82.1427197,103.975365 L76.5925846,106.294992 L71.0978109,93.4391002 Z M72.4132408,104.38878 C72.7574641,106.080263 71.6777668,107.834443 69.9091765,108.185897 C68.3934334,108.487459 66.4958152,108.102891 65.9874422,105.606065 L64.4563704,98.0714363 C64.0932469,96.2838476 65.1180291,94.6609478 67.0422863,94.2781454 C68.8692145,93.9149172 70.5052052,95.0093112 70.8937771,96.9124324 L71.0501881,97.6808336 L69.0675931,98.0752628 L68.9348446,97.421511 C68.7785824,96.6529627 68.1794286,96.0919312 67.4208873,96.2426385 C66.4303339,96.4398532 66.3333025,97.1585092 66.5185848,98.0810026 L67.9405707,105.075352 C68.1004045,105.86318 68.5365993,106.416558 69.4305678,106.238771 C69.9754019,106.130744 70.6120587,105.683921 70.3932917,104.607777 L70.2569715,103.934892 L72.2392689,103.541051 L72.4132408,104.38878 Z M55.9296639,95.0232929 L57.8719284,95.0564073 L60.7800421,103.516179 L60.8196285,103.516768 L60.9663661,95.1079186 L62.9879523,95.1417688 L62.748648,109.0975 L60.8459699,109.065269 L57.8973769,100.624777 L57.8554093,100.624041 L57.7117969,109.013021 L55.6899131,108.979318 L55.9296639,95.0232929 Z M51.1114311,93.955096 L52.7501005,94.3426081 L52.5319287,108.639491 L50.5658528,108.174712 L50.6929461,105.12127 L48.0138681,104.487535 L46.7299882,107.267525 L44.7636147,106.802599 L51.1114311,93.955096 Z M50.9952018,98.058632 L50.9563595,98.0495072 L48.8032154,102.739389 L50.7691425,103.204315 L50.9952018,98.058632 Z M42.0150373,90.2833718 L44.9426465,91.6816824 C47.1026364,92.7130854 47.5435934,94.469473 46.3542149,96.9055152 C45.6470169,98.3529822 44.7171825,99.2163113 43.2486156,99.2976992 L42.4103062,105.972384 L40.4823285,105.051509 L41.4057636,98.8748651 L40.3207087,98.3575446 L37.6974387,103.721782 L35.876761,102.850064 L42.0150373,90.2833718 Z M41.094281,96.7665819 L42.1297784,97.2610902 C43.3969903,97.8664214 43.9382527,97.2540258 44.550354,96.0005355 C45.1709381,94.7295314 45.2929714,93.9386124 43.9543254,93.2992838 L43.0082695,92.8470148 L41.094281,96.7665819 Z M36.7606097,86.3785222 L41.5423814,90.0022674 L40.3851483,91.4958002 L37.2076684,89.0877213 L34.6038939,92.4472872 L37.3741992,94.5458569 L36.2168173,96.038801 L33.446512,93.9409672 L29.7817918,98.6698502 L28.1775,97.4535952 L36.7606097,86.3785222 Z" id="Fill-7" fill="#FFFFFF"></path>
            <path d="M76.7631347,51.7650636 L77.2036951,52.9777781 L76.2221418,53.3374541 L74.9611873,49.8638139 L75.9428866,49.5042846 L76.3830091,50.7168522 L82.682234,48.4075 L83.0625057,49.4555647 L76.7631347,51.7650636 Z M76.4505967,54.7575216 L76.2225797,53.6658732 L83.8034879,52.0641333 L84.0316509,53.1557818 L76.4505967,54.7575216 Z M76.7959797,58.5892237 L76.7329174,57.4748295 L83.3614678,57.0994516 L83.2379707,54.8923818 L84.3465246,54.8297209 L84.5325,58.1507447 L76.7959797,58.5892237 Z M76.6101502,60.5557757 L76.7126265,59.4449035 L84.4278341,60.1642556 L84.3253578,61.2755681 L76.6101502,60.5557757 Z M75.6556027,64.8588281 L76.0698871,63.2823287 C76.4362909,61.886181 77.4902491,61.6114712 78.4668392,61.8710661 L78.7402552,61.9438524 C79.5399204,62.1560481 79.7653098,62.498995 79.9342059,63.0531104 C80.3099522,62.6093485 80.8235014,62.4942991 81.6017079,62.7012119 L82.0228533,62.8134731 C83.327309,63.1595018 83.8996871,63.9793754 83.5328455,65.3753764 L83.1464428,66.8456312 L75.6556027,64.8588281 Z M79.0114816,64.5955646 L79.139066,64.1090994 C79.3285449,63.389894 79.0101678,63.1018303 78.3259708,62.9201579 C77.6632325,62.744062 77.2521596,62.8953578 77.0661842,63.6039974 L76.9488182,64.0480528 L79.0114816,64.5955646 Z M82.357142,65.4841156 L82.4793252,65.018782 C82.7074882,64.1497482 82.1978804,63.9482651 81.4617154,63.7529453 C80.7143102,63.554397 80.2892234,63.5882955 80.083249,64.3711889 L79.9582922,64.8470884 L82.357142,65.4841156 Z M75.3724062,69.5454763 C74.2526121,68.9605441 74.1345163,67.8144526 74.5489466,67.009107 C74.963377,66.2037613 75.966535,65.6427488 77.0861831,66.228268 L80.7143102,68.1246751 C81.8333744,68.7094605 81.9520541,69.8556987 81.5352881,70.6610444 C81.1186681,71.4662433 80.1176997,72.0266688 78.9984896,71.4420301 L75.3724062,69.5454763 Z M79.5126226,70.4523706 C79.985444,70.6997855 80.3676134,70.5053462 80.5534428,70.1461104 C80.7391263,69.7868745 80.6772318,69.3611625 80.2044104,69.1113996 L76.5762834,67.2149925 C76.103316,66.9681646 75.7210007,67.1624572 75.5356092,67.5212528 C75.3500716,67.8800484 75.4110903,68.3067877 75.8840577,68.5559635 L79.5126226,70.4523706 Z M70.2046536,72.8788267 L70.9162943,72.0805249 L74.9227952,73.7663505 L74.937247,73.7497682 L72.8261191,69.9383171 L73.5453507,69.1323844 L79.314677,74.330298 L78.5738407,75.1611776 L75.0652694,71.999961 L75.0509636,72.0159563 L76.7965636,75.0734231 L76.4259265,75.4884226 L73.2202586,74.0687954 L73.2059528,74.0850843 L76.7143782,77.2463009 L75.9736879,78.077474 L70.2046536,72.8788267 Z M65.0042019,76.0159769 L65.9845874,75.4932653 L67.5408545,78.440085 L68.7521765,77.7933724 L67.1954715,74.8465527 L68.1754191,74.3231074 L71.8090932,81.2018572 L70.8289997,81.7248623 L69.2112761,78.6621127 L68.000246,79.3086785 L69.6182616,82.3712813 L68.6377301,82.8950202 L65.0042019,76.0159769 Z M66.1712927,82.0309758 C66.4286512,82.9579745 65.9098469,83.9762496 64.9552994,84.2452362 C64.1378249,84.474161 63.0832828,84.3378334 62.7033031,82.9683935 L61.5588388,78.8377684 C61.2868826,77.8580877 61.7818926,76.9128925 62.8195013,76.6223341 C63.804996,76.3465971 64.7465515,76.8914675 65.0350032,77.9321948 L65.1523692,78.3537979 L64.0827914,78.6533079 L63.9839645,78.295246 C63.8665985,77.8734961 63.5162523,77.5863129 63.1069312,77.7001883 C62.5729451,77.8503102 62.5511945,78.2545972 62.6895812,78.759846 L63.7498165,82.5958037 C63.870102,83.0273857 64.130672,83.3199985 64.6132739,83.1824969 C64.9068349,83.100172 65.2374741,82.8260492 65.0744171,82.2359809 L64.9719409,81.8670598 L66.0410807,81.5676966 L66.1712927,82.0309758 Z M56.7224553,77.4768399 L57.7872158,77.4209294 L59.7033177,82.0199698 L59.7249224,82.0189426 L59.4825996,77.3327347 L60.5914453,77.2744762 L60.9933216,85.0524896 L59.9501658,85.1072261 L58.0134811,80.5202189 L57.9914385,80.5213929 L58.2334693,85.1968883 L57.1249155,85.255 L56.7224553,77.4768399 Z M53.1699447,76.9387199 L56.437799,77.4545344 L56.2757639,78.4920333 L54.1044932,78.1492331 L53.7518113,80.407811 L55.6457246,80.706147 L55.4836895,81.7437926 L53.5897762,81.4447229 L53.2366564,83.7033008 L55.4080731,84.0463945 L55.2359655,85.1486087 L51.9684031,84.6323539 L53.1699447,76.9387199 Z M49.1660713,75.5182122 L50.8335733,76.1552395 C52.0640184,76.6249755 52.3898404,77.5798561 51.8565843,78.990385 C51.5401049,79.8284552 51.0744363,80.3520473 50.2741872,80.4679771 L50.1372602,84.2172076 L49.0390708,83.7973654 L49.2476728,80.3215239 L48.627414,80.0842346 L47.4528783,83.1917419 L46.4159995,82.7956727 L49.1660713,75.5182122 Z M48.9746947,79.1650135 L49.5642982,79.3901229 C50.2863033,79.6654196 50.5527124,79.2997269 50.8270043,78.5739179 C51.1047997,77.8379834 51.1357469,77.3930475 50.3712623,77.1011684 L49.832313,76.8957231 L48.9746947,79.1650135 Z M46.087258,73.5705905 L48.8725104,75.3655957 L48.308453,76.2501845 L46.4574571,75.0575744 L45.1889119,77.0465787 L46.8018183,78.0853983 L46.2377609,78.9701339 L44.6251464,77.9308741 L42.8396945,80.7312406 L41.905,80.1310468 L46.087258,73.5705905 Z" id="Fill-16" fill="#4F7383"></path>
            <polygon id="Fill-18" fill="#4F7383" points="79.3199762 47.1244309 76.006125 51.2975 75.3527163 50.1291827 77.7210857 47.4110567 77.7089094 47.3872135 74.3484087 48.3296122 73.695 47.1606185 78.7013569 46.0183427 81.7482783 44.0725 82.365 45.1762208"></polygon>
            <path d="M57.6994612,38.8756224 C57.6069175,38.9118696 57.514813,38.9488417 57.4231479,38.9863937 L57.4231479,38.9863937 C52.1515234,41.1484639 48.3812451,45.4496961 46.6729934,50.5393763 L46.6729934,50.5393763 C46.5095775,51.0262481 46.3651976,51.5199343 46.24,52.02 L46.24,52.02 C48.2983658,47.1728857 52.488898,42.9540071 58.1438761,40.6681167 L58.1438761,40.6681167 C58.2222161,40.6363641 58.300849,40.6050466 58.3797747,40.574164 L58.3797747,40.574164 L58.3793354,40.574164 C58.5206403,40.5187784 58.6617988,40.4649876 58.8033966,40.4125017 L58.8033966,40.4125017 C61.4486536,39.4329587 64.1497004,38.9678352 66.7659642,38.9676902 L66.7659642,38.9676902 C69.7324885,38.9676902 72.5906546,39.5654783 75.14,40.68914 L75.14,40.68914 C74.2103163,40.0941067 73.2356785,39.5783822 72.2273619,39.1470411 L72.2273619,39.1470411 C70.0754274,38.2266534 67.7695951,37.6903405 65.4210051,37.5879786 L65.4210051,37.5879786 C65.1461561,37.5760895 64.8702821,37.57 64.5944081,37.57 L64.5944081,37.57 C62.2909186,37.57 59.9587288,37.989742 57.6994612,38.8756224" id="Fill-1" fill="#FF0000"></path>
            <path d="M48.6717191,37.4060264 C48.5628441,37.4486701 48.4544859,37.4921667 48.3466446,37.5363456 L48.3466446,37.5363456 C42.1447334,40.0799576 37.7091119,45.1402307 35.6994039,51.1280898 L35.6994039,51.1280898 C35.50715,51.7008801 35.3372913,52.2816874 35.19,52.87 L35.19,52.87 C37.6116068,47.1675126 42.5416447,42.204126 49.1945601,39.5148431 L49.1945601,39.5148431 C49.2867248,39.4774872 49.3792341,39.4406431 49.4720879,39.4043106 L49.4720879,39.4043106 L49.4715711,39.4043106 C49.6378122,39.339151 49.803881,39.2758678 49.9704665,39.2141197 L49.9704665,39.2141197 C53.0825336,38.0617161 56.2602357,37.514512 59.3381932,37.5143414 L59.3381932,37.5143414 C62.8282218,37.5143414 66.1907702,38.2176215 69.19,39.5395765 L69.19,39.5395765 C68.0962544,38.8395373 66.9496218,38.2328026 65.763367,37.7253425 L65.763367,37.7253425 C63.2316793,36.6425334 60.5189354,36.0115771 57.7558884,35.8911513 L57.7558884,35.8911513 C57.4325366,35.8771641 57.107979,35.87 56.7834213,35.87 L56.7834213,35.87 C54.0734337,35.87 51.329681,36.3638142 48.6717191,37.4060264" id="Fill-1" fill="url(#linearGradient-1)" transform="translate(52.190000, 44.370000) rotate(-20.000000) translate(-52.190000, -44.370000) "></path>
            <path d="M32.2790769,51.6848881 C32.2760939,51.6997709 32.2731108,51.7145064 32.2701278,51.7293893 L32.2701278,51.7293893 C32.2694175,51.7329258 32.2688493,51.7364623 32.2681391,51.7399988 L32.2681391,51.7399988 C32.2657243,51.7519346 32.2635935,51.7632809 32.2611787,51.7752167 L32.2611787,51.7752167 C32.2606105,51.7786058 32.2599002,51.781995 32.25919,51.7853842 L32.25919,51.7853842 C32.2566331,51.7987935 32.2542182,51.8111713 32.2516613,51.8245806 L32.2516613,51.8245806 C32.2512352,51.8263488 32.2509511,51.8279697 32.250667,51.829738 L32.250667,51.829738 C32.2415758,51.8768916 32.2326267,51.9237504 32.2238196,51.970904 L32.2238196,51.970904 C32.2238196,51.9711987 32.2236776,51.9713461 32.2236776,51.9716408 L32.2236776,51.9716408 C32.1611757,52.3056944 32.1057764,52.6390113 32.0569113,52.9726229 L32.0569113,52.9726229 C32.0569113,52.9729176 32.0569113,52.9729176 32.0569113,52.9730649 L32.0569113,52.9730649 C32.0544964,52.9889793 32.0523657,53.0044515 32.0499508,53.0203659 L32.0499508,53.0203659 C32.0499508,53.0205132 32.0499508,53.0205132 32.0499508,53.0206606 L32.0499508,53.0206606 C32.0431325,53.0678142 32.0365982,53.114673 32.0300639,53.1618266 L32.0300639,53.1618266 C32.0297798,53.1634475 32.0294957,53.1650684 32.0293536,53.1666893 L32.0293536,53.1666893 C32.027365,53.1805407 32.0256604,53.1936553 32.0236717,53.2075066 L32.0236717,53.2075066 C32.0233876,53.2098643 32.0231035,53.2120746 32.0228194,53.214285 L32.0228194,53.214285 C32.0209727,53.2276943 32.0191261,53.2412509 32.0172794,53.2546602 L32.0172794,53.2546602 C32.0171374,53.2565758 32.0168533,53.2584914 32.0165692,53.2604071 L32.0165692,53.2604071 C32.0124497,53.2906148 32.0084724,53.3203805 32.004637,53.3505883 L32.004637,53.3505883 C32.0040688,53.3545669 32.0035006,53.3586928 32.0029324,53.3626714 L32.0029324,53.3626714 C32.001654,53.3731336 32.0002335,53.3837431 31.998955,53.394058 L31.998955,53.394058 C31.9982448,53.3993628 31.9975345,53.4045202 31.9969663,53.409825 L31.9969663,53.409825 C31.9956879,53.4186663 31.9944094,53.4291285 31.993273,53.4379697 L31.993273,53.4379697 C31.9925628,53.4437166 31.9918525,53.4491687 31.9911423,53.4549156 L31.9911423,53.4549156 C31.9898638,53.4647883 31.9885854,53.4746611 31.987449,53.4845339 L31.987449,53.4845339 C31.9867388,53.4902807 31.9860285,53.4958802 31.9853183,53.5016271 L31.9853183,53.5016271 C31.9837557,53.5140049 31.9821932,53.5263827 31.9806306,53.5387605 L31.9806306,53.5387605 C31.9797783,53.5462756 31.978784,53.5536434 31.9779317,53.5611585 L31.9779317,53.5611585 C31.9770794,53.5682315 31.9762271,53.5750098 31.9753748,53.5820829 L31.9753748,53.5820829 C31.9743804,53.5898927 31.9733861,53.5978499 31.9725338,53.605807 L31.9725338,53.605807 C31.9718235,53.6117012 31.9711133,53.6174481 31.970403,53.6234896 L31.970403,53.6234896 C31.9692667,53.6320362 31.9682723,53.6408775 31.967278,53.6495714 L31.967278,53.6495714 C31.9667098,53.6539921 31.9661416,53.6588548 31.9655734,53.6632754 L31.9655734,53.6632754 C31.961596,53.696725 31.9577606,53.7301746 31.9539253,53.7636242 L31.9539253,53.7636242 C31.9536412,53.7661292 31.9534991,53.767308 31.953215,53.7696657 L31.953215,53.7696657 C31.9519366,53.7808647 31.9506581,53.7920637 31.9493797,53.8031153 L31.9493797,53.8031153 C31.9490956,53.8056203 31.9489536,53.8072412 31.9486695,53.8097462 L31.9486695,53.8097462 C31.8434107,54.7454501 31.7912784,55.6776174 31.79,56.6027117 L31.79,56.6027117 L31.79,56.675505 C31.79,56.6989345 31.79,56.7219218 31.79,56.7453513 L31.79,56.7453513 C31.7902841,56.7472669 31.7902841,56.7493298 31.7902841,56.7513928 L31.7902841,56.7513928 C31.7902841,56.7614129 31.7902841,56.7721699 31.7904261,56.7823373 L31.7904261,56.7823373 C31.7904261,56.7857265 31.7904261,56.7885263 31.7904261,56.7919154 L31.7904261,56.7919154 C31.7905682,56.802525 31.7905682,56.8131345 31.7907102,56.8235967 L31.7907102,56.8235967 C31.7907102,56.8250703 31.7907102,56.8265438 31.7907102,56.8280174 L31.7907102,56.8280174 C31.8337513,62.5117919 33.7955989,67.9225178 37.1624596,72.2772982 L37.1624596,72.2772982 C37.1624596,72.2772982 37.1626016,72.2774455 37.1626016,72.2774455 L37.1626016,72.2774455 C37.1991084,72.3247465 37.2358992,72.3719 37.2728321,72.4190536 L37.2728321,72.4190536 C37.2731162,72.4194957 37.2741106,72.4206745 37.2743947,72.4211166 L37.2743947,72.4211166 C37.3030887,72.4575133 37.3317827,72.4940573 37.3606188,72.5303066 L37.3606188,72.5303066 C37.3620393,72.5322222 37.3628916,72.5332537 37.3643121,72.535022 L37.3643121,72.535022 C37.3707043,72.5429791 37.3768125,72.5507889 37.3832047,72.5587461 L37.3832047,72.5587461 C37.3851934,72.5612511 37.3871821,72.5637562 37.3893129,72.5664086 L37.3893129,72.5664086 C37.4167284,72.6008896 37.444002,72.635076 37.4717016,72.6694097 L37.4717016,72.6694097 C37.4739744,72.6723568 37.4761052,72.6748618 37.478378,72.6778089 L37.478378,72.6778089 C37.4843441,72.6851766 37.4904522,72.6926917 37.4964183,72.7000595 L37.4964183,72.7000595 C37.498407,72.7025645 37.5006798,72.7053643 37.5028105,72.7078693 L37.5028105,72.7078693 C37.5086346,72.715237 37.5150268,72.7230468 37.5208508,72.7304146 L37.5208508,72.7304146 C37.5218452,72.7314461 37.5232657,72.7333617 37.524118,72.7343932 L37.524118,72.7343932 C37.5374706,72.7507496 37.5506812,72.767106 37.5640339,72.7834624 L37.5640339,72.7834624 C37.5648862,72.7846412 37.5664488,72.7865568 37.5674431,72.7877357 L37.5674431,72.7877357 C37.5734092,72.7949561 37.5798014,72.8029132 37.5857675,72.8101336 L37.5857675,72.8101336 C37.5878983,72.812786 37.5903131,72.8158805 37.5924438,72.8183855 L37.5924438,72.8183855 C37.5981258,72.8254585 37.6040919,72.8326789 37.6097739,72.8396046 L37.6097739,72.8396046 C37.612899,72.8432885 37.615882,72.8471197 37.6190071,72.8508036 L37.6190071,72.8508036 C37.624263,72.8571398 37.6296609,72.8637708 37.6349167,72.8702544 L37.6349167,72.8702544 C37.6376156,72.8734962 37.6396043,72.8758539 37.6423033,72.8790957 L37.6423033,72.8790957 C37.652957,72.8922103 37.6638948,72.9054723 37.6746906,72.9184395 L37.6746906,72.9184395 C37.6776736,72.9221234 37.6800885,72.9250705 37.6830715,72.9287543 L37.6830715,72.9287543 C37.6884694,72.9350906 37.693157,72.9409848 37.6985549,72.9473211 L37.6985549,72.9473211 C37.7021062,72.9517417 37.7057995,72.9561624 37.7094928,72.960583 L37.7094928,72.960583 C37.7141804,72.9663298 37.7195783,72.9726661 37.7242659,72.9785603 L37.7242659,72.9785603 C37.7282433,72.9832757 37.7319366,72.9876963 37.7357719,72.9924117 L37.7357719,72.9924117 C37.7406016,72.9981585 37.7454313,73.0039054 37.750261,73.0096522 L37.750261,73.0096522 C37.7535281,73.0136308 37.7573635,73.0181988 37.7606306,73.0221774 L37.7606306,73.0221774 C37.7695797,73.0329343 37.7786709,73.0436912 37.787478,73.0544481 L37.787478,73.0544481 C37.7917395,73.0594582 37.796001,73.0644682 37.8002625,73.0694783 L37.8002625,73.0694783 C37.804524,73.0746357 37.8087855,73.0796458 37.813189,73.0849506 L37.813189,73.0849506 C37.8177346,73.0904027 37.8225643,73.0961495 37.8271099,73.1016017 L37.8271099,73.1016017 C37.8312293,73.1064644 37.8354908,73.1114745 37.8396102,73.1163372 L37.8396102,73.1163372 C37.8450081,73.1228208 37.850548,73.1294518 37.856088,73.1359354 L37.856088,73.1359354 C37.8592131,73.1396193 37.8626223,73.1437452 37.8658894,73.1474291 L37.8658894,73.1474291 C37.8744124,73.1575966 37.8826513,73.167322 37.8911742,73.1774895 L37.8911742,73.1774895 C37.8945834,73.1814681 37.8979926,73.1854466 37.9014018,73.1895726 L37.9014018,73.1895726 C37.9069418,73.1960562 37.9124817,73.2025398 37.9180216,73.2090234 L37.9180216,73.2090234 C37.921857,73.2135914 37.9256923,73.2181594 37.9295276,73.2227274 L37.9295276,73.2227274 C37.9347835,73.228769 37.9394711,73.2343685 37.944727,73.24041 L37.944727,73.24041 C37.9488464,73.2452727 37.9529658,73.2501355 37.9572273,73.2549982 L37.9572273,73.2549982 C37.9627673,73.2614818 37.9683072,73.2679654 37.9738471,73.274449 L37.9738471,73.274449 C37.9769722,73.2781329 37.9802394,73.2819641 37.9833645,73.285648 L37.9833645,73.285648 C37.9917454,73.2953734 38.0006945,73.3058356 38.0090754,73.315561 L38.0090754,73.315561 C38.0122005,73.3192449 38.0158938,73.3235182 38.0190189,73.3272021 L38.0190189,73.3272021 C38.024985,73.3339804 38.030809,73.3407587 38.0366331,73.3476844 L38.0366331,73.3476844 C38.0400423,73.351663 38.0437356,73.3557889 38.0471448,73.3597675 L38.0471448,73.3597675 C38.0531108,73.3666932 38.0582246,73.3725874 38.0640487,73.3793657 L38.0640487,73.3793657 C38.067742,73.383639 38.0710091,73.3874703 38.0747024,73.3917435 L38.0747024,73.3917435 C38.0818049,73.3999954 38.0893335,73.408542 38.096436,73.4167939 L38.096436,73.4167939 C38.0981406,73.4187095 38.0998452,73.4206251 38.1015498,73.4225407 L38.1015498,73.4225407 C38.1102148,73.4325609 38.119306,73.4430231 38.128113,73.4530432 L38.128113,73.4530432 C38.1315222,73.4570218 38.1349314,73.4610004 38.1384827,73.4649789 L38.1384827,73.4649789 C38.1444488,73.4717573 38.1495625,73.4776515 38.1555286,73.4844298 L38.1555286,73.4844298 C38.1592219,73.4887031 38.1627732,73.492829 38.1664665,73.496955 L38.1664665,73.496955 C38.1724325,73.5037333 38.1776884,73.5097748 38.1836545,73.5165532 L38.1836545,73.5165532 C38.1870637,73.5205318 38.1906149,73.5246577 38.1941661,73.5284889 L38.1941661,73.5284889 C38.2019789,73.5374776 38.2099336,73.5466136 38.2178884,73.5554549 L38.2178884,73.5554549 C38.2188828,73.5566337 38.2201612,73.5581073 38.2211556,73.5591388 L38.2211556,73.5591388 C38.2302467,73.5694536 38.2389118,73.5793264 38.2480029,73.5896412 L38.2480029,73.5896412 C38.2512701,73.5933251 38.2543952,73.5968616 38.2576623,73.6005455 L38.2576623,73.6005455 C38.2639125,73.6076185 38.2701627,73.6146916 38.2764129,73.6217646 L38.2764129,73.6217646 C38.27968,73.6254485 38.2828051,73.628985 38.2860723,73.6325215 L38.2860723,73.6325215 C38.2923224,73.6397419 38.2987147,73.6468149 38.3049649,73.653888 L38.3049649,73.653888 C38.3080899,73.6572771 38.311073,73.6606663 38.314056,73.6640555 L38.314056,73.6640555 C38.3232893,73.6743703 38.3325225,73.6846852 38.3416137,73.695 L38.3416137,73.695 C35.5415311,69.3797107 33.9461715,64.008476 33.9464556,58.289631 L33.9464556,58.289631 C33.9464556,56.2826568 34.1430523,54.233097 34.5531497,52.1711594 L34.5531497,52.1711594 C36.130753,44.2337384 40.5435252,37.7598467 46.24,33.9575 L46.24,33.9575 C39.2738855,37.1576071 33.898869,43.536897 32.2790769,51.6848881" id="Fill-1" fill="#0075BF"></path>
            <path d="M46.2395738,33.235 C45.8450632,33.4163966 45.4559509,33.6076662 45.071953,33.8091033 L45.071953,33.8091033 C45.0682594,33.811019 45.0638554,33.8133767 45.0601617,33.8152923 L45.0601617,33.8152923 C45.0506435,33.8203025 45.0418355,33.8248706 45.0323173,33.8298807 L45.0323173,33.8298807 C45.0286236,33.8317963 45.0239355,33.8343014 45.0202419,33.8362171 L45.0202419,33.8362171 C45.0107236,33.8412272 45.0020577,33.8457953 44.9925394,33.8508054 L44.9925394,33.8508054 C44.9868569,33.8538999 44.9813164,33.856847 44.9754918,33.8599415 L44.9754918,33.8599415 C44.9681045,33.8637728 44.9608593,33.8676041 44.953472,33.8715828 L44.953472,33.8715828 C44.942391,33.877477 44.9318783,33.8830766 44.9207973,33.8889709 L44.9207973,33.8889709 C44.9188084,33.8901498 44.9162513,33.891476 44.9141203,33.8925075 L44.9141203,33.8925075 C44.9013346,33.8992859 44.8884068,33.906359 44.8756211,33.9131375 L44.8756211,33.9131375 C44.8751949,33.9132848 44.8751949,33.9134322 44.8747687,33.9135795 L44.8747687,33.9135795 C38.5945627,37.2802477 33.817958,43.3211528 32.2916266,50.8981086 L32.2916266,50.8981086 C32.2872226,50.9194754 32.2829607,50.9408422 32.2786988,50.962209 L32.2786988,50.962209 C32.2758575,50.97665 32.2728742,50.991533 32.2700329,51.005974 L32.2700329,51.005974 C32.2693226,51.0101 32.2684702,51.014226 32.2676179,51.018352 L32.2676179,51.018352 C32.265629,51.028667 32.2633559,51.0403082 32.261225,51.0507706 L32.261225,51.0507706 C32.2605147,51.055044 32.2595202,51.0594647 32.2588099,51.063738 L32.2588099,51.063738 C32.2563948,51.0756739 32.2542639,51.0868731 32.2519909,51.098809 L32.2519909,51.098809 C32.2512805,51.1019035 32.2508543,51.1047033 32.2502861,51.1077978 L32.2502861,51.1077978 C32.2444615,51.1375639 32.2386369,51.1680669 32.2329543,51.197833 L32.2329543,51.197833 C32.2325281,51.2006328 32.2319599,51.2032852 32.2315337,51.2059376 L32.2315337,51.2059376 C32.2289766,51.2189051 32.2268456,51.2309884 32.2244305,51.2438084 L32.2244305,51.2438084 C32.2238623,51.2466082 32.223294,51.249408 32.2227258,51.2522078 L32.2227258,51.2522078 C32.2200265,51.2670908 32.2173273,51.2810898 32.2146281,51.2961202 L32.2146281,51.2961202 C32.2146281,51.2961202 32.2146281,51.2962676 32.2146281,51.2964149 L32.2146281,51.2964149 C32.2088035,51.3272126 32.203121,51.3584523 32.1975805,51.3892499 L32.1975805,51.3892499 C32.1971543,51.3913129 32.1968702,51.3933759 32.196444,51.3954389 L32.196444,51.3954389 C32.1940289,51.4088484 32.1916138,51.4224053 32.1891987,51.4358148 L32.1891987,51.4358148 C32.1887726,51.4377304 32.1884884,51.4397934 32.1880622,51.441709 L32.1880622,51.441709 C32.1799646,51.4873897 32.1715829,51.534544 32.1636273,51.5803721 L32.1636273,51.5803721 C32.1633432,51.581993 32.163059,51.5836139 32.1627749,51.5852349 L32.1627749,51.5852349 C32.1603598,51.5996759 32.1576606,51.615001 32.1552455,51.6292947 L32.1552455,51.6292947 C32.1551035,51.6298841 32.1551035,51.6303262 32.1549614,51.6307682 L32.1549614,51.6307682 C32.1468638,51.6785119 32.1389082,51.7255189 32.1309527,51.7731152 L32.1309527,51.7731152 C32.1309527,51.7732626 32.1309527,51.7735573 32.1309527,51.7737046 L32.1309527,51.7737046 C32.12044,51.8367735 32.1102114,51.8998423 32.1002669,51.9629112 L32.1002669,51.9629112 C32.1001249,51.963648 32.0999828,51.9643847 32.0999828,51.9652689 L32.0999828,51.9652689 C32.0900383,52.0277483 32.080378,52.0906698 32.0710018,52.1532966 L32.0710018,52.1532966 C32.0708598,52.1541807 32.0707177,52.1552122 32.0705756,52.1560964 L32.0705756,52.1560964 C32.0634724,52.2032506 32.0565113,52.2502576 32.0496923,52.2974118 L32.0496923,52.2974118 C32.0496923,52.2978539 32.0496923,52.2980013 32.0495502,52.2984433 L32.0495502,52.2984433 C32.0472772,52.3143579 32.0452883,52.3289463 32.0430153,52.3448608 L32.0430153,52.3448608 C32.0428732,52.3451555 32.0428732,52.3455976 32.0428732,52.3458923 L32.0428732,52.3458923 C32.0360542,52.3934887 32.0295192,52.4403482 32.0229843,52.488092 L32.0229843,52.488092 C32.0229843,52.4883867 32.0228423,52.488534 32.0228423,52.4888287 L32.0228423,52.4888287 C32.0141764,52.5523397 32.0059367,52.6148191 31.997697,52.67833 L31.997697,52.67833 C31.997697,52.6787721 31.997697,52.6790668 31.9975549,52.6793615 L31.9975549,52.6793615 C31.9894573,52.7428724 31.9815017,52.8054992 31.9738303,52.8690101 L31.9738303,52.8690101 C31.9738303,52.8691575 31.9738303,52.8693048 31.9738303,52.8695995 L31.9738303,52.8695995 C31.9681478,52.9166065 31.9624652,52.9640554 31.9570668,53.0112097 L31.9570668,53.0112097 C31.9569247,53.0117992 31.9569247,53.0126833 31.9567827,53.0134201 L31.9567827,53.0134201 C31.9550779,53.0281558 31.9532311,53.0437757 31.9516684,53.0585114 L31.9516684,53.0585114 C31.9515263,53.0591008 31.9515263,53.0596902 31.9513843,53.0602796 L31.9513843,53.0602796 C31.9459858,53.1074339 31.9408716,53.1537041 31.9358993,53.200711 L31.9358993,53.200711 C31.9357573,53.2018898 31.9356152,53.2030687 31.9354731,53.2042476 L31.9354731,53.2042476 C31.9337684,53.2195727 31.9322057,53.2344558 31.930643,53.2497809 L31.930643,53.2497809 C31.930643,53.2497809 31.930643,53.2497809 31.930643,53.2497809 L31.930643,53.2497809 C31.9272334,53.2814627 31.923966,53.3131445 31.9206985,53.3448262 L31.9206985,53.3448262 C31.9206985,53.3449736 31.9206985,53.3449736 31.9206985,53.345121 L31.9206985,53.345121 C31.9191358,53.360004 31.9175731,53.3751818 31.9161525,53.3899175 L31.9161525,53.3899175 C31.9160104,53.3916858 31.9158684,53.3931594 31.9155842,53.3947803 L31.9155842,53.3947803 C31.9141636,53.4096634 31.912743,53.4245465 31.9111803,53.4394295 L31.9111803,53.4394295 C31.9111803,53.4395769 31.9111803,53.4400189 31.9111803,53.4401663 L31.9111803,53.4401663 C31.9080549,53.471406 31.9050715,53.5029404 31.9020882,53.5340328 L31.9020882,53.5340328 C31.9019461,53.5349169 31.9019461,53.5358011 31.9018041,53.5366852 L31.9018041,53.5366852 C31.9005255,53.5509789 31.8991049,53.5654199 31.8978263,53.5798609 L31.8978263,53.5798609 C31.8976842,53.5814818 31.8975422,53.5829554 31.8974001,53.5845763 L31.8974001,53.5845763 C31.8929961,53.6311411 31.8888763,53.6769692 31.8848985,53.7233867 L31.8848985,53.7233867 C31.8847564,53.7247129 31.8846144,53.7261865 31.8846144,53.7273653 L31.8846144,53.7273653 C31.8833358,53.7412169 31.8820572,53.7562473 31.8809207,53.7700989 L31.8809207,53.7700989 C31.8807786,53.7712778 31.8806366,53.772604 31.8804945,53.7739302 L31.8804945,53.7739302 C31.8766588,53.8199056 31.8728231,53.8664705 31.8691294,53.9122985 L31.8691294,53.9122985 C31.8689874,53.9142142 31.8688453,53.9159824 31.8687032,53.9178981 L31.8687032,53.9178981 C31.8675667,53.9317497 31.8665723,53.9451592 31.8654358,53.9590107 L31.8654358,53.9590107 C31.8654358,53.9606317 31.8652937,53.9623999 31.8651516,53.9640209 L31.8651516,53.9640209 C31.8627366,53.9951132 31.8603215,54.0257635 31.8580485,54.0568559 L31.8580485,54.0568559 C31.8580485,54.0570032 31.8580485,54.0572979 31.8580485,54.0574453 L31.8580485,54.0574453 C31.856912,54.072181 31.8559175,54.086622 31.854781,54.1013577 L31.854781,54.1013577 C31.8546389,54.1035681 31.8544969,54.1057784 31.8543548,54.1079888 L31.8543548,54.1079888 C31.8533604,54.1213983 31.852508,54.1343657 31.8515135,54.1477752 L31.8515135,54.1477752 C31.8513715,54.1496908 31.8512294,54.1517538 31.8510874,54.1536695 L31.8510874,54.1536695 C31.8489564,54.1843198 31.8469675,54.2137912 31.8449786,54.2444415 L31.8449786,54.2444415 C31.8448366,54.2469465 31.8446945,54.2494516 31.8444104,54.2518093 L31.8444104,54.2518093 C31.8437,54.2637453 31.8428477,54.27686 31.8419953,54.2886486 L31.8419953,54.2886486 C31.8418532,54.2920378 31.8415691,54.295427 31.841427,54.2986689 L31.841427,54.2986689 C31.8405746,54.311489 31.8397223,54.324309 31.8390119,54.3371291 L31.8390119,54.3371291 C31.8388699,54.3390447 31.8387278,54.3411077 31.8385858,54.342876 L31.8385858,54.342876 C31.8367389,54.3729369 31.8348921,54.4028504 31.8331873,54.4329112 L31.8331873,54.4329112 C31.8330453,54.4358584 31.8327611,54.4388055 31.8326191,54.4417527 L31.8326191,54.4417527 C31.8319088,54.4535412 31.8311984,54.4660666 31.8306302,54.4780025 L31.8306302,54.4780025 C31.8303461,54.4812444 31.830204,54.4846336 31.8300619,54.4877281 L31.8300619,54.4877281 C31.8292096,54.5005481 31.8286413,54.5130735 31.827931,54.5258936 L31.827931,54.5258936 C31.8277889,54.5279566 31.8276469,54.5301669 31.8275048,54.5322299 L31.8275048,54.5322299 C31.8266524,54.5469656 31.8259421,54.5622908 31.8250897,54.5771738 L31.8250897,54.5771738 C31.8249476,54.5787948 31.8249476,54.5802683 31.8248056,54.5820366 L31.8248056,54.5820366 C31.8242373,54.5948567 31.823527,54.6078241 31.8228167,54.6206442 L31.8228167,54.6206442 C31.8226746,54.6244755 31.8223905,54.6284541 31.8222484,54.6324328 L31.8222484,54.6324328 C31.8216802,54.6437793 31.8211119,54.6551258 31.8205437,54.6664723 L31.8205437,54.6664723 C31.8204016,54.6698615 31.8201175,54.6732507 31.8199754,54.6766399 L31.8199754,54.6766399 C31.8194072,54.68946 31.8186968,54.7025748 31.8181286,54.7153948 L31.8181286,54.7153948 C31.8179865,54.7173105 31.8179865,54.7190788 31.8178445,54.7211418 L31.8178445,54.7211418 C31.8171341,54.7358775 31.8164238,54.75135 31.8158556,54.7660857 L31.8158556,54.7660857 C31.8157135,54.7677066 31.8155714,54.7696222 31.8155714,54.7712432 L31.8155714,54.7712432 C31.8150032,54.7836212 31.8144349,54.7968833 31.8138667,54.809114 L31.8138667,54.809114 C31.8137246,54.81324 31.8134405,54.8172186 31.8132984,54.8213446 L31.8132984,54.8213446 C31.8128722,54.832249 31.8124461,54.8431535 31.8118778,54.8539105 L31.8118778,54.8539105 C31.8117357,54.8580365 31.8115937,54.8621625 31.8114516,54.8661412 L31.8114516,54.8661412 C31.8108834,54.8795507 31.8103151,54.8922234 31.8098889,54.9054855 L31.8098889,54.9054855 C31.8097468,54.9068117 31.8097468,54.9082853 31.8096048,54.9096115 L31.8096048,54.9096115 C31.8090365,54.9243472 31.8084683,54.9383462 31.8079,54.9530819 L31.8079,54.9530819 C31.807758,54.9569131 31.8076159,54.9607444 31.8074738,54.9645757 L31.8074738,54.9645757 C31.8071897,54.9748907 31.8067635,54.9859425 31.8063373,54.9964049 L31.8063373,54.9964049 C31.8061953,55.001415 31.8060532,55.0062778 31.8057691,55.0112879 L31.8057691,55.0112879 C31.8054849,55.0216029 31.8050587,55.0311811 31.8047746,55.0414961 L31.8047746,55.0414961 C31.8046326,55.0457695 31.8044905,55.0503376 31.8043484,55.0547583 L31.8043484,55.0547583 C31.8037802,55.0684625 31.803354,55.0821667 31.8029278,55.0958709 L31.8029278,55.0958709 C31.8027857,55.0982286 31.8027857,55.1005863 31.8026437,55.1027967 L31.8026437,55.1027967 C31.8023595,55.1156168 31.8019333,55.1275527 31.8015072,55.1403728 L31.8015072,55.1403728 C31.8013651,55.1455303 31.801223,55.1505404 31.801081,55.1556979 L31.801081,55.1556979 C31.8007968,55.1651288 31.8005127,55.1736755 31.8002286,55.182959 L31.8002286,55.182959 C31.8000865,55.1887059 31.7999445,55.1946002 31.7998024,55.2001998 L31.7998024,55.2001998 C31.7995183,55.2100727 31.7992341,55.2189141 31.79895,55.228787 L31.79895,55.228787 C31.7988079,55.2336498 31.7986659,55.2385126 31.7985238,55.2433754 L31.7985238,55.2433754 C31.7982397,55.2566375 31.7978135,55.2712259 31.7975294,55.284488 L31.7975294,55.284488 C31.7973873,55.2893508 31.7972452,55.294361 31.7971032,55.2993711 L31.7971032,55.2993711 C31.7969611,55.3082125 31.796677,55.3179381 31.7965349,55.3267795 L31.7965349,55.3267795 C31.7963929,55.3331159 31.7962508,55.3395996 31.7961087,55.3459359 L31.7961087,55.3459359 C31.7958246,55.3537459 31.7956825,55.3617032 31.7955405,55.3696604 L31.7955405,55.3696604 C31.7953984,55.3761442 31.7952564,55.3829226 31.7951143,55.3895537 L31.7951143,55.3895537 C31.7949722,55.3973636 31.7948302,55.4053209 31.7946881,55.4132782 L31.7946881,55.4132782 C31.794546,55.4194672 31.794404,55.4258035 31.7942619,55.4321399 L31.7942619,55.4321399 C31.7939778,55.4449599 31.7936937,55.4579274 31.7935516,55.4706001 L31.7935516,55.4706001 C31.7934095,55.4778206 31.7932675,55.4848937 31.7931254,55.4919669 L31.7931254,55.4919669 C31.7931254,55.4993347 31.7929833,55.5062605 31.7928413,55.5136284 L31.7928413,55.5136284 C31.7926992,55.5208488 31.7925571,55.5280693 31.7925571,55.5352898 L31.7925571,55.5352898 C31.7924151,55.5416262 31.792273,55.5486993 31.792131,55.5551831 L31.792131,55.5551831 C31.792131,55.5628456 31.7919889,55.5706556 31.7918468,55.5784655 L31.7918468,55.5784655 C31.7918468,55.5839177 31.7917048,55.589812 31.7917048,55.5951168 L31.7917048,55.5951168 C31.7914206,55.6154521 31.7911365,55.6354927 31.7909944,55.6556806 L31.7909944,55.6556806 C31.7909944,55.6556806 31.7909944,55.6567121 31.7909944,55.6567121 L31.7909944,55.6567121 C31.7908524,55.666143 31.7907103,55.6752791 31.7907103,55.6845626 L31.7907103,55.6845626 C31.7907103,55.6894254 31.7905683,55.693404 31.7905683,55.6982668 L31.7905683,55.6982668 C31.7904262,55.707403 31.7904262,55.7166865 31.7902841,55.7256752 L31.7902841,55.7256752 C31.7902841,55.730096 31.7902841,55.7336325 31.7902841,55.7380532 L31.7902841,55.7380532 C31.79,55.7480735 31.79,55.7582412 31.79,55.7682615 L31.79,55.7682615 C31.79,55.7682615 31.79,55.7684088 31.79,55.7684088 L31.79,55.7684088 L31.79,56.0610601 C31.79,56.0610601 31.79,56.0610601 31.79,56.0610601 L31.79,56.0610601 C31.7902841,56.1090985 31.7907103,56.1566948 31.7912786,56.2045859 L31.7912786,56.2045859 C31.7912786,56.207091 31.7914206,56.2098907 31.7914206,56.2122485 L31.7914206,56.2122485 C31.7915627,56.2224161 31.7915627,56.232289 31.7917048,56.2424567 L31.7917048,56.2424567 C31.7918468,56.246288 31.7918468,56.2505613 31.7918468,56.2543926 L31.7918468,56.2543926 C31.7919889,56.2636761 31.792131,56.2734017 31.792273,56.2826852 L31.792273,56.2826852 C31.7924151,56.2856323 31.7924151,56.2885794 31.7924151,56.2915266 L31.7924151,56.2915266 C31.7926992,56.3099462 31.7929833,56.3289553 31.7934095,56.3475223 L31.7934095,56.3475223 C31.7934095,56.3515009 31.7935516,56.3559217 31.7935516,56.3597529 L31.7935516,56.3597529 C31.7936937,56.3678576 31.7938357,56.376699 31.7939778,56.3848036 L31.7939778,56.3848036 C31.7941198,56.3906979 31.7942619,56.3967396 31.794404,56.4026339 L31.794404,56.4026339 C31.794546,56.4102964 31.7946881,56.417959 31.7948302,56.4256216 L31.7948302,56.4256216 C31.7949722,56.4329894 31.7951143,56.4397679 31.7952564,56.4471357 L31.7952564,56.4471357 C31.7953984,56.4536194 31.7955405,56.4602505 31.7956825,56.4668816 L31.7956825,56.4668816 C31.7959667,56.4776386 31.7961087,56.4883957 31.7963929,56.4991528 L31.7963929,56.4991528 C31.7965349,56.5076995 31.7968191,56.5159515 31.7969611,56.5244982 L31.7969611,56.5244982 C31.7972452,56.5327502 31.7973873,56.5405601 31.7975294,56.5489595 L31.7975294,56.5489595 C31.7978135,56.5551485 31.7979556,56.5610428 31.7980976,56.5670844 L31.7980976,56.5670844 C31.7982397,56.5754838 31.7985238,56.5838831 31.7986659,56.5921351 L31.7986659,56.5921351 C31.7988079,56.597882 31.7990921,56.604071 31.7992341,56.609818 L31.7992341,56.609818 C31.7995183,56.620133 31.7998024,56.6311848 31.8000865,56.6414998 L31.8000865,56.6414998 C31.8002286,56.6450363 31.8002286,56.6479835 31.8003706,56.6513727 L31.8003706,56.6513727 C31.8007968,56.6661084 31.801223,56.67996 31.8016492,56.6946957 L31.8016492,56.6946957 C31.8017913,56.6973481 31.8017913,56.6997058 31.8019333,56.7023582 L31.8019333,56.7023582 C31.8023595,56.7145889 31.8026437,56.7266722 31.8030699,56.7389028 L31.8030699,56.7389028 C31.8032119,56.742292 31.803354,56.7452392 31.803354,56.7487757 L31.803354,56.7487757 C31.8037802,56.7604169 31.8042064,56.7730897 31.8046326,56.7848782 L31.8046326,56.7848782 C31.8047746,56.7875307 31.8047746,56.7901831 31.8049167,56.7928355 L31.8049167,56.7928355 C31.8064794,56.8386636 31.8081841,56.8839022 31.810031,56.9295829 L31.810031,56.9295829 C31.810031,56.930025 31.810031,56.9306144 31.810031,56.9310565 L31.810031,56.9310565 C32.0296613,62.3825332 34.0093177,67.544011 37.2884299,71.7162805 L37.2884299,71.7162805 C37.2888561,71.71687 37.2894244,71.7176068 37.2898506,71.7181962 L37.2898506,71.7181962 C37.2986585,71.7293953 37.3073244,71.7402998 37.3161323,71.7514989 L37.3161323,71.7514989 C37.3165585,71.7520883 37.3174109,71.7531198 37.3178371,71.7537093 L37.3178371,71.7537093 C37.3363054,71.777139 37.3549157,71.8005688 37.373526,71.8239986 L37.373526,71.8239986 C37.3736681,71.8242933 37.3739522,71.824588 37.3742363,71.8248827 L37.3742363,71.8248827 C37.3827602,71.8356398 37.3921364,71.8474284 37.4006602,71.8581855 L37.4006602,71.8581855 C37.4016546,71.859217 37.402507,71.8605432 37.4035015,71.861722 L37.4035015,71.861722 C37.4117411,71.872037 37.420407,71.8827941 37.4286467,71.8931091 L37.4286467,71.8931091 C37.4294991,71.8942879 37.4302094,71.8951721 37.4312039,71.8963509 L37.4312039,71.8963509 C37.4492459,71.9188966 37.4677142,71.9418843 37.4858983,71.9644299 L37.4858983,71.9644299 C37.487461,71.9664929 37.4888817,71.9681139 37.4905864,71.9701769 L37.4905864,71.9701769 C37.4982579,71.9797551 37.5055031,71.9887439 37.5131746,71.9983221 L37.5131746,71.9983221 C37.5148793,72.0002377 37.5165841,72.0024481 37.5182888,72.0045111 L37.5182888,72.0045111 C37.5259603,72.0140893 37.5342,72.0242569 37.5420135,72.0338351 L37.5420135,72.0338351 C37.54315,72.0353087 37.5444286,72.0367823 37.5455651,72.0382559 L37.5455651,72.0382559 C37.5547992,72.0496024 37.5637492,72.0605068 37.5729833,72.0720006 L37.5729833,72.0720006 C37.5736937,72.0728848 37.574546,72.0739163 37.5752564,72.0748004 L37.5752564,72.0748004 C37.5830699,72.0842313 37.5910254,72.0939568 37.5986968,72.1035351 L37.5986968,72.1035351 C37.6013961,72.1066296 37.6045215,72.1104608 37.6070786,72.1137027 L37.6070786,72.1137027 C37.6136135,72.12166 37.6202905,72.1297646 37.6269675,72.1378693 L37.6269675,72.1378693 C37.6292405,72.1408164 37.6313715,72.1433215 37.6337866,72.1462686 L37.6337866,72.1462686 C37.6413159,72.1554048 37.6489874,72.1648356 37.6565167,72.1739718 L37.6565167,72.1739718 C37.6579374,72.17574 37.6592159,72.1772136 37.6606366,72.1789819 L37.6606366,72.1789819 C37.6694445,72.1895916 37.6785366,72.2006434 37.6873445,72.2112531 L37.6873445,72.2112531 C37.6894755,72.2139055 37.6916064,72.2164106 37.6937374,72.219063 L37.6937374,72.219063 C37.7006985,72.2274624 37.7070914,72.235125 37.7140525,72.2435243 L37.7140525,72.2435243 C37.7171779,72.2472083 37.7198771,72.2505975 37.7230025,72.2542814 L37.7230025,72.2542814 C37.7289692,72.2616493 37.7355041,72.2693118 37.7416128,72.2766797 L37.7416128,72.2766797 C37.74417,72.2797742 37.7472954,72.2834581 37.7498525,72.2867 L37.7498525,72.2867 C37.7570978,72.295394 37.7639168,72.3034987 37.7711621,72.3121927 L37.7711621,72.3121927 C37.773151,72.3145505 37.7751399,72.3169082 37.7769867,72.3192659 L37.7769867,72.3192659 C37.7855105,72.3294335 37.7944605,72.3400432 37.8029843,72.3502109 L37.8029843,72.3502109 C37.8058256,72.3536001 37.8086669,72.356842 37.8115081,72.3603785 L37.8115081,72.3603785 C37.8176169,72.367599 37.8237256,72.3748195 37.8298343,72.3821874 L37.8298343,72.3821874 C37.8329597,72.3858713 37.8363693,72.3898499 37.8394947,72.3936812 L37.8394947,72.3936812 C37.8458875,72.4011964 37.8521383,72.4087117 37.8585312,72.4163742 L37.8585312,72.4163742 C37.8610883,72.419174 37.8639296,72.4225632 37.8663447,72.425363 L37.8663447,72.425363 C37.8751526,72.4359727 37.8842447,72.4465824 37.8930526,72.4570448 L37.8930526,72.4570448 C37.8940471,72.4582236 37.8946153,72.4588131 37.8954677,72.4599919 L37.8954677,72.4599919 C37.9038495,72.4697175 37.911663,72.479001 37.9200447,72.4887266 L37.9200447,72.4887266 C37.922886,72.4922631 37.9260114,72.4957997 37.9288527,72.4993363 L37.9288527,72.4993363 C37.9348193,72.5061147 37.940786,72.5131879 37.9466106,72.5199663 L37.9466106,72.5199663 C37.9503043,72.5242396 37.9538559,72.528513 37.9575495,72.5327864 L37.9575495,72.5327864 C37.9633741,72.5395648 37.9699091,72.5472273 37.9757337,72.5540058 L37.9757337,72.5540058 C37.9785749,72.5575423 37.980848,72.5601948 37.9838313,72.563584 L37.9838313,72.563584 C37.9927813,72.5740463 38.0014472,72.5840666 38.0103972,72.594529 L38.0103972,72.594529 C38.0125281,72.5970341 38.0149432,72.5998338 38.0172162,72.6023389 L38.0172162,72.6023389 C38.0240353,72.6102962 38.0309964,72.6185482 38.0378155,72.6263581 L38.0378155,72.6263581 C38.0410829,72.6300421 38.0439242,72.6334313 38.0471917,72.6371152 L38.0471917,72.6371152 C38.0533004,72.6443357 38.0589829,72.6508194 38.0652337,72.6580399 L38.0652337,72.6580399 C38.0683591,72.6617238 38.0719107,72.6658498 38.0750361,72.6695338 L38.0750361,72.6695338 C38.0822814,72.6777858 38.0893846,72.6858904 38.0964877,72.6941424 L38.0964877,72.6941424 C38.0984766,72.6963528 38.1000393,72.6982684 38.1020282,72.7004788 L38.1020282,72.7004788 C38.1111203,72.7109411 38.1199282,72.7211088 38.1290203,72.7314238 L38.1290203,72.7314238 C38.1320036,72.734813 38.135129,72.7384969 38.1381124,72.7418861 L38.1381124,72.7418861 C38.143937,72.7486645 38.1501878,72.7557377 38.1560124,72.7625161 L38.1560124,72.7625161 C38.159564,72.7664947 38.1633997,72.7707681 38.1668092,72.7747467 L38.1668092,72.7747467 C38.1727759,72.7815252 38.1783164,72.7878615 38.184283,72.79464 L38.184283,72.79464 C38.1876926,72.7986186 38.1911021,72.8024499 38.1946537,72.8064285 L38.1946537,72.8064285 C38.202041,72.8149752 38.2099966,72.823964 38.2175259,72.8325107 L38.2175259,72.8325107 C38.2189466,72.8341317 38.219941,72.8353105 38.2215037,72.8369314 L38.2215037,72.8369314 C38.2301696,72.8469517 38.2395458,72.8575614 38.2483537,72.8674344 L38.2483537,72.8674344 C38.2516212,72.8711183 38.2546045,72.8745075 38.257872,72.8781914 L38.257872,72.8781914 C38.2641228,72.8852646 38.2703736,72.8923377 38.2766244,72.8994109 L38.2766244,72.8994109 C38.2798919,72.9030948 38.2831593,72.9066314 38.2864268,72.9103153 L38.2864268,72.9103153 C38.2926776,72.9173884 38.2989284,72.9244616 38.3051792,72.9315347 L38.3051792,72.9315347 C38.3081625,72.9347766 38.3112879,72.9383131 38.3142712,72.9417024 L38.3142712,72.9417024 C38.3235054,72.9520174 38.3327395,72.9623324 38.3418316,72.9725 L38.3418316,72.9725 C35.5416158,68.6572941 33.9459573,63.2859797 33.9462415,57.5669025 L33.9462415,57.5669025 C33.9462415,55.5600458 34.1428575,53.5103083 34.5529951,51.4483401 L34.5529951,51.4483401 C34.557115,51.4275628 34.5610928,51.4070801 34.5653547,51.3863028 L34.5653547,51.3863028 C34.9997852,49.2233949 35.6450381,47.1690893 36.4691491,45.249026 L36.4691491,45.249026 C36.4714221,45.2438685 36.4736951,45.2384163 36.4759681,45.2332588 L36.4759681,45.2332588 C36.4796618,45.2245648 36.4832134,45.2164601 36.486907,45.207766 L36.486907,45.207766 C36.4898904,45.2009876 36.4925896,45.1945039 36.4955729,45.1875781 L36.4955729,45.1875781 C36.4985563,45.1807997 36.5016817,45.1735792 36.504665,45.1666534 L36.504665,45.1666534 C36.5082166,45.1585488 36.5119102,45.1500021 36.5154618,45.1418974 L36.5154618,45.1418974 C36.5178769,45.1362978 36.5200079,45.1311403 36.5224229,45.1255408 L36.5224229,45.1255408 C36.5256904,45.1183203 36.5289579,45.1108051 36.5320833,45.1035846 L36.5320833,45.1035846 C36.5349245,45.0971009 36.5376238,45.0907645 36.540465,45.0844281 L36.540465,45.0844281 C36.5452952,45.073229 36.5499833,45.0624719 36.5548134,45.0514201 L36.5548134,45.0514201 C36.55595,45.0487677 36.5572285,45.0461153 36.558223,45.0434629 L36.558223,45.0434629 C38.2838696,41.1047544 40.7667153,37.7369074 43.729736,35.1562421 L43.729736,35.1562421 C43.7303043,35.1556527 43.7307305,35.1552106 43.7314408,35.1546212 L43.7314408,35.1546212 C43.738544,35.1484322 43.745363,35.1425379 43.7524662,35.1363489 L43.7524662,35.1363489 C43.7557337,35.1335491 43.7594273,35.1303073 43.7626948,35.1275075 L43.7626948,35.1275075 C43.7675249,35.1233815 43.7723551,35.1191081 43.7771853,35.1149821 L43.7771853,35.1149821 C43.7828678,35.109972 43.78784,35.1056986 43.7936647,35.1006885 L43.7936647,35.1006885 C43.7969321,35.0978887 43.8007678,35.0944995 43.8038932,35.0918471 L43.8038932,35.0918471 C43.8109964,35.0856581 43.8176734,35.0799112 43.8247766,35.0737222 L43.8247766,35.0737222 C43.8264813,35.0723959 43.8286123,35.0704803 43.8303171,35.0690067 L43.8303171,35.0690067 C43.8389829,35.0614915 43.8472226,35.0544184 43.8558885,35.0469032 L43.8558885,35.0469032 C43.8565988,35.0464611 43.8574512,35.0455769 43.8581615,35.0449875 L43.8581615,35.0449875 C43.8678219,35.0367355 43.8771981,35.0286309 43.8868584,35.0203789 L43.8868584,35.0203789 C43.8878528,35.0194947 43.8891314,35.0184632 43.8901258,35.0175791 L43.8901258,35.0175791 C43.930614,34.9829502 43.970818,34.9487633 44.0114482,34.9142817 L44.0114482,34.9142817 C44.0114482,34.9142817 44.0117323,34.9141344 44.0117323,34.9141344 L44.0117323,34.9141344 C44.7287273,34.3079072 45.4725724,33.7473607 46.24,33.235 L46.24,33.235 L46.2395738,33.235 Z" id="Fill-13"></path>
            <path d="M118.49,59.60625 C118.49,92.525894 91.9653456,119.2125 59.2448518,119.2125 C26.524358,119.2125 0,92.525894 0,59.60625 C0,26.686606 26.5246544,0 59.2448518,0 C91.9650492,0 118.49,26.6864569 118.49,59.60625 Z" id="Stroke-3" stroke="#B2B2B2" stroke-width="0.5"></path>
        </g>
    </g>
</svg>