<svg width="115" height="15" xmlns="http://www.w3.org/2000/svg">
   <path d="m54.79233,6.87673c0.374,0.153 0.688,0.37 0.943,0.65c0.254,0.28 0.448,0.61 0.583,0.988c0.135,0.377 0.202,0.79 0.202,1.24c0,0.568 -0.114,1.067 -0.342,1.497c-0.229,0.43 -0.548,0.769 -0.96,1.015c-0.411,0.247 -0.897,0.37 -1.458,0.37c-0.24,0 -0.47,-0.033 -0.69,-0.1a1.994,1.994 0 0 1 -0.595,-0.292a1.856,1.856 0 0 1 -0.443,-0.449l-0.011,0l0,3.175l-1.538,0l0,-5.217c0,-0.628 0.123,-1.176 0.37,-1.643a2.613,2.613 0 0 1 1.05,-1.083c0.452,-0.254 0.985,-0.382 1.598,-0.382l1.291,0.231zm-40.839,-0.23c0.591,0 1.119,0.132 1.582,0.398c0.464,0.266 0.83,0.625 1.1,1.077c0.27,0.453 0.404,0.96 0.404,1.52c0,0.561 -0.135,1.068 -0.404,1.52c-0.27,0.453 -0.636,0.812 -1.1,1.077c-0.463,0.266 -0.99,0.399 -1.582,0.399c-0.59,0 -1.118,-0.133 -1.581,-0.399a2.98,2.98 0 0 1 -1.1,-1.077a2.918,2.918 0 0 1 -0.404,-1.52c0,-0.56 0.135,-1.067 0.404,-1.52c0.27,-0.452 0.636,-0.811 1.1,-1.077c0.463,-0.266 0.99,-0.399 1.581,-0.399l0,0.001zm21.508,0c0.59,0 1.118,0.132 1.582,0.398c0.464,0.266 0.83,0.625 1.1,1.077c0.269,0.453 0.403,0.96 0.403,1.52c0,0.561 -0.134,1.068 -0.404,1.52c-0.269,0.453 -0.635,0.812 -1.099,1.077c-0.464,0.266 -0.991,0.399 -1.582,0.399c-0.59,0 -1.118,-0.133 -1.582,-0.399a2.975,2.975 0 0 1 -1.1,-1.077a2.916,2.916 0 0 1 -0.403,-1.52c0,-0.56 0.134,-1.067 0.404,-1.52a2.98,2.98 0 0 1 1.1,-1.077a3.128,3.128 0 0 1 1.581,-0.399l0,0.001zm49.31,0c0.59,0 1.118,0.132 1.582,0.398c0.463,0.266 0.83,0.625 1.1,1.077c0.268,0.453 0.403,0.96 0.403,1.52c0,0.561 -0.135,1.068 -0.404,1.52c-0.27,0.453 -0.636,0.812 -1.1,1.077c-0.463,0.266 -0.99,0.399 -1.581,0.399s-1.119,-0.133 -1.582,-0.399a2.975,2.975 0 0 1 -1.1,-1.077a2.916,2.916 0 0 1 -0.404,-1.52c0,-0.56 0.135,-1.067 0.404,-1.52a2.98,2.98 0 0 1 1.1,-1.077a3.128,3.128 0 0 1 1.582,-0.399l0,0.001zm5.688,-2.334l0,3.175l0.011,0c0.12,-0.172 0.267,-0.321 0.443,-0.449c0.176,-0.127 0.374,-0.224 0.595,-0.292c0.22,-0.067 0.45,-0.1 0.69,-0.1c0.56,0 1.047,0.123 1.458,0.37c0.412,0.247 0.732,0.585 0.96,1.015c0.228,0.43 0.342,0.93 0.342,1.498c0,0.449 -0.068,0.862 -0.202,1.24c-0.135,0.378 -0.33,0.706 -0.584,0.987c-0.254,0.28 -0.568,0.498 -0.942,0.65c-0.374,0.154 -0.804,0.23 -1.29,0.23c-0.614,0 -1.147,-0.126 -1.6,-0.38a2.613,2.613 0 0 1 -1.048,-1.083c-0.247,-0.468 -0.37,-1.016 -0.37,-1.644l0,-5.217l1.537,0zm-44.116,2.334c0.576,0 1.067,0.11 1.475,0.33c0.408,0.221 0.72,0.519 0.937,0.892c0.217,0.375 0.325,0.786 0.325,1.235l0,3.4l-1.537,0l0,-3.4c0,-0.21 -0.054,-0.4 -0.162,-0.573a1.242,1.242 0 0 0 -0.432,-0.415a1.18,1.18 0 0 0 -0.606,-0.157a1.224,1.224 0 0 0 -1.038,0.572a1.05,1.05 0 0 0 -0.163,0.573l0,3.4l-1.537,0l0,-3.4c0,-0.21 -0.054,-0.4 -0.162,-0.573a1.24,1.24 0 0 0 -0.432,-0.415a1.179,1.179 0 0 0 -0.606,-0.157a1.224,1.224 0 0 0 -1.038,0.572a1.051,1.051 0 0 0 -0.163,0.573l0,3.4l-1.537,0l0,-3.4c0,-0.45 0.109,-0.86 0.326,-1.235c0.217,-0.373 0.529,-0.67 0.937,-0.891c0.407,-0.221 0.899,-0.331 1.475,-0.331c0.276,0 0.533,0.031 0.768,0.095c0.236,0.064 0.455,0.155 0.657,0.275c0.202,0.12 0.377,0.262 0.527,0.426l0.011,0c0.157,-0.164 0.337,-0.307 0.539,-0.426c0.202,-0.12 0.422,-0.211 0.662,-0.275c0.24,-0.064 0.497,-0.095 0.774,-0.095zm65.668,0c0.643,0 1.164,0.134 1.565,0.403c0.4,0.27 0.693,0.63 0.88,1.083a3.92,3.92 0 0 1 0.27,1.773a1.222,1.222 0 0 1 -0.034,0.23l-3.87,0c0.059,0.232 0.162,0.426 0.308,0.583c0.146,0.157 0.329,0.275 0.55,0.354c0.22,0.078 0.469,0.117 0.746,0.117l1.593,0l0,1.313l-1.616,0c-0.65,0 -1.217,-0.125 -1.7,-0.376a2.788,2.788 0 0 1 -1.121,-1.026a2.738,2.738 0 0 1 -0.399,-1.459c0,-0.606 0.123,-1.133 0.37,-1.582a2.66,2.66 0 0 1 1.01,-1.043c0.426,-0.247 0.909,-0.37 1.448,-0.37zm-5.05,-1.302l0,1.436l1.605,0l0,1.313l-1.604,0l0,2.737c0,0.098 0.035,0.182 0.106,0.253a0.345,0.345 0 0 0 0.253,0.106l1.245,0l0,1.313l-1.515,0c-0.508,0 -0.907,-0.146 -1.194,-0.437c-0.288,-0.292 -0.432,-0.689 -0.432,-1.19l0,-2.782l-0.976,0l0,-1.313l0.976,0l0,-1.436l1.537,0l-0.001,0zm-99.951,1.302c0.576,0 1.067,0.11 1.475,0.33c0.408,0.221 0.72,0.519 0.937,0.892c0.217,0.375 0.325,0.786 0.325,1.235l0,3.4l-1.538,0l0,-3.4c0,-0.21 -0.054,-0.4 -0.163,-0.573a1.243,1.243 0 0 0 -0.431,-0.415a1.181,1.181 0 0 0 -0.606,-0.157a1.226,1.226 0 0 0 -1.038,0.572a1.051,1.051 0 0 0 -0.163,0.573l0,3.4l-1.537,0l0,-3.4c0,-0.21 -0.054,-0.4 -0.162,-0.573a1.24,1.24 0 0 0 -0.433,-0.415a1.18,1.18 0 0 0 -0.605,-0.157a1.223,1.223 0 0 0 -1.038,0.572a1.05,1.05 0 0 0 -0.163,0.573l0,3.4l-1.537,0l0,-3.4c0,-0.45 0.108,-0.86 0.325,-1.235c0.217,-0.373 0.53,-0.67 0.937,-0.891c0.408,-0.221 0.9,-0.331 1.476,-0.331c0.276,0 0.532,0.031 0.768,0.095s0.455,0.155 0.657,0.275c0.202,0.12 0.377,0.262 0.527,0.426l0.01,0c0.157,-0.164 0.337,-0.307 0.539,-0.426c0.202,-0.12 0.422,-0.211 0.661,-0.275c0.24,-0.064 0.498,-0.095 0.775,-0.095l0.002,0zm90.619,0.134l0,5.722l-1.548,0l0,-5.722l1.548,0zm5.991,0l0,5.722l-1.548,0l0,-5.722l1.548,0zm-3.006,-2.468l0,8.19l-1.537,0l0,-8.19l1.537,0zm-79.661,2.334c0.591,0 1.094,0.116 1.51,0.347c0.415,0.232 0.732,0.543 0.953,0.932c0.22,0.388 0.331,0.819 0.331,1.29l0,3.287l-1.537,0l0,-3.286c0,-0.232 -0.056,-0.443 -0.168,-0.634a1.26,1.26 0 0 0 -0.455,-0.454a1.226,1.226 0 0 0 -0.634,-0.169c-0.232,0 -0.443,0.056 -0.633,0.169c-0.191,0.112 -0.343,0.263 -0.455,0.454c-0.112,0.19 -0.168,0.402 -0.168,0.634l0,3.287l-1.537,0l0,-3.287c0,-0.471 0.11,-0.902 0.33,-1.29c0.221,-0.39 0.541,-0.7 0.96,-0.932c0.419,-0.231 0.92,-0.347 1.503,-0.347l0,-0.001zm56.872,0c0.576,0 1.067,0.11 1.475,0.33c0.408,0.221 0.72,0.519 0.937,0.892c0.217,0.375 0.325,0.786 0.325,1.235l0,3.4l-1.537,0l0,-3.4c0,-0.21 -0.054,-0.4 -0.162,-0.573a1.24,1.24 0 0 0 -0.432,-0.415a1.18,1.18 0 0 0 -0.606,-0.157a1.225,1.225 0 0 0 -1.038,0.572a1.05,1.05 0 0 0 -0.163,0.573l0,3.4l-1.537,0l0,-3.4c0,-0.21 -0.054,-0.4 -0.162,-0.573a1.242,1.242 0 0 0 -0.432,-0.415a1.18,1.18 0 0 0 -0.606,-0.157a1.226,1.226 0 0 0 -1.038,0.572a1.051,1.051 0 0 0 -0.163,0.573l0,3.4l-1.537,0l0,-3.4c0,-0.45 0.109,-0.86 0.326,-1.235c0.217,-0.373 0.529,-0.67 0.936,-0.891c0.408,-0.221 0.9,-0.331 1.476,-0.331c0.276,0 0.533,0.031 0.768,0.095c0.236,0.064 0.455,0.155 0.657,0.275c0.202,0.12 0.377,0.262 0.527,0.426l0.011,0c0.157,-0.164 0.337,-0.307 0.539,-0.426c0.202,-0.12 0.422,-0.211 0.662,-0.275c0.239,-0.064 0.497,-0.095 0.774,-0.095zm-46.18,0.134l0,1.313l-0.718,0c-0.314,0 -0.585,0.067 -0.813,0.202a1.37,1.37 0 0 0 -0.527,0.555c-0.124,0.236 -0.185,0.5 -0.185,0.791c0,0.292 0.061,0.555 0.185,0.791c0.123,0.236 0.299,0.42 0.527,0.555c0.228,0.135 0.5,0.202 0.813,0.202l0.719,0l0,1.313l-0.719,0c-0.59,0 -1.118,-0.127 -1.581,-0.381a2.937,2.937 0 0 1 -1.1,-1.027a2.683,2.683 0 0 1 -0.404,-1.453c0,-0.538 0.135,-1.023 0.404,-1.453a2.94,2.94 0 0 1 1.1,-1.026c0.463,-0.255 0.99,-0.382 1.581,-0.382l0.719,0l-0.001,0zm27.668,-1.436l0,1.436l1.604,0l0,1.313l-1.604,0l0,2.737c0,0.098 0.035,0.182 0.106,0.253a0.345,0.345 0 0 0 0.253,0.106l1.245,0l0,1.313l-1.514,0c-0.508,0 -0.907,-0.146 -1.195,-0.437c-0.287,-0.292 -0.431,-0.689 -0.431,-1.19l0,-2.782l-0.977,0l0,-1.313l0.977,0l0,-1.436l1.537,0l-0.001,0zm5.049,1.301c0.643,0 1.164,0.135 1.565,0.404c0.4,0.27 0.693,0.63 0.88,1.083a3.92,3.92 0 0 1 0.27,1.773a1.254,1.254 0 0 1 -0.034,0.23l-3.87,0c0.059,0.232 0.162,0.426 0.308,0.583c0.146,0.157 0.329,0.275 0.55,0.354c0.22,0.078 0.469,0.117 0.746,0.117l1.593,0l0,1.313l-1.616,0c-0.65,0 -1.217,-0.125 -1.7,-0.376a2.787,2.787 0 0 1 -1.121,-1.026a2.736,2.736 0 0 1 -0.399,-1.459c0,-0.606 0.124,-1.133 0.37,-1.582a2.659,2.659 0 0 1 1.01,-1.043c0.426,-0.247 0.909,-0.37 1.448,-0.37l0,-0.001zm27.577,1.313a1.356,1.356 0 0 0 -1.285,0.83a2.033,2.033 0 0 0 -0.174,0.853c0,0.314 0.058,0.599 0.174,0.853c0.116,0.254 0.284,0.456 0.505,0.606c0.22,0.15 0.48,0.224 0.78,0.224c0.307,0 0.568,-0.075 0.785,-0.224c0.217,-0.15 0.383,-0.352 0.5,-0.606c0.115,-0.254 0.173,-0.539 0.173,-0.853c0,-0.314 -0.058,-0.598 -0.174,-0.853a1.45,1.45 0 0 0 -0.499,-0.605a1.349,1.349 0 0 0 -0.785,-0.225zm-7.17,0a1.45,1.45 0 0 0 -0.813,0.225c-0.228,0.15 -0.404,0.351 -0.527,0.605a1.928,1.928 0 0 0 -0.185,0.853c0,0.314 0.061,0.599 0.185,0.853c0.123,0.254 0.3,0.456 0.527,0.606c0.228,0.15 0.5,0.224 0.814,0.224c0.314,0 0.585,-0.075 0.813,-0.224c0.228,-0.15 0.404,-0.352 0.527,-0.606c0.124,-0.254 0.185,-0.539 0.185,-0.853c0,-0.314 -0.061,-0.598 -0.185,-0.853a1.486,1.486 0 0 0 -0.527,-0.605a1.45,1.45 0 0 0 -0.813,-0.225l-0.001,0zm-31.268,0a1.356,1.356 0 0 0 -1.285,0.83a2.03,2.03 0 0 0 -0.174,0.853c0,0.314 0.058,0.599 0.174,0.853c0.116,0.254 0.284,0.456 0.505,0.606c0.22,0.15 0.48,0.224 0.78,0.224c0.307,0 0.568,-0.075 0.785,-0.224c0.217,-0.15 0.383,-0.352 0.5,-0.606c0.115,-0.254 0.173,-0.539 0.173,-0.853c0,-0.314 -0.058,-0.598 -0.173,-0.853a1.453,1.453 0 0 0 -0.5,-0.605a1.35,1.35 0 0 0 -0.785,-0.225zm-39.549,0a1.45,1.45 0 0 0 -0.813,0.225c-0.228,0.15 -0.404,0.351 -0.527,0.605a1.928,1.928 0 0 0 -0.185,0.853c0,0.314 0.061,0.599 0.185,0.853c0.123,0.254 0.299,0.456 0.527,0.606c0.228,0.15 0.5,0.224 0.813,0.224c0.315,0 0.586,-0.075 0.814,-0.224c0.228,-0.15 0.404,-0.352 0.527,-0.606c0.124,-0.254 0.185,-0.539 0.185,-0.853c0,-0.314 -0.061,-0.598 -0.185,-0.853a1.488,1.488 0 0 0 -0.527,-0.605a1.45,1.45 0 0 0 -0.814,-0.225zm21.508,0a1.45,1.45 0 0 0 -0.813,0.225c-0.229,0.15 -0.404,0.351 -0.528,0.605a1.928,1.928 0 0 0 -0.185,0.853c0,0.314 0.062,0.599 0.185,0.853c0.124,0.254 0.3,0.456 0.528,0.606c0.228,0.15 0.499,0.224 0.813,0.224c0.314,0 0.585,-0.075 0.813,-0.224c0.229,-0.15 0.404,-0.352 0.528,-0.606c0.123,-0.254 0.185,-0.539 0.185,-0.853c0,-0.314 -0.062,-0.598 -0.185,-0.853a1.486,1.486 0 0 0 -0.528,-0.605a1.45,1.45 0 0 0 -0.813,-0.225zm76.562,-0.045c-0.187,0 -0.354,0.034 -0.5,0.101a1.065,1.065 0 0 0 -0.364,0.27a1.32,1.32 0 0 0 -0.23,0.381a1.986,1.986 0 0 0 -0.118,0.438l2.39,0a2.134,2.134 0 0 0 -0.079,-0.399a1.178,1.178 0 0 0 -0.157,-0.33a1.063,1.063 0 0 0 -0.235,-0.248a1.04,1.04 0 0 0 -0.315,-0.157a1.32,1.32 0 0 0 -0.392,-0.056zm-47.65,0c-0.187,0 -0.353,0.034 -0.499,0.101a1.066,1.066 0 0 0 -0.364,0.27c-0.097,0.112 -0.174,0.24 -0.23,0.381a1.996,1.996 0 0 0 -0.118,0.438l2.39,0a2.15,2.15 0 0 0 -0.079,-0.399a1.189,1.189 0 0 0 -0.157,-0.33a1.07,1.07 0 0 0 -0.235,-0.248a1.039,1.039 0 0 0 -0.315,-0.157a1.318,1.318 0 0 0 -0.393,-0.056zm32.481,-3.747c0.263,0 0.489,0.095 0.68,0.286c0.19,0.19 0.286,0.417 0.286,0.679a0.928,0.928 0 0 1 -0.286,0.679a0.928,0.928 0 0 1 -0.68,0.286a0.927,0.927 0 0 1 -0.678,-0.286a0.927,0.927 0 0 1 -0.286,-0.68c0,-0.26 0.096,-0.487 0.286,-0.678a0.927,0.927 0 0 1 0.679,-0.286l-0.001,0zm5.992,0c0.262,0 0.488,0.095 0.679,0.286c0.19,0.19 0.286,0.417 0.286,0.679a0.928,0.928 0 0 1 -0.286,0.679a0.928,0.928 0 0 1 -0.679,0.286a0.927,0.927 0 0 1 -0.679,-0.286a0.928,0.928 0 0 1 -0.286,-0.68c0,-0.26 0.096,-0.487 0.286,-0.678a0.927,0.927 0 0 1 0.68,-0.286l-0.001,0zm10.917,0.482l-0.943,1.38l-1.447,0l0.942,-1.38l1.448,0z" fill="#01BF7D" fill-rule="evenodd"/>
</svg>