<svg width="176" height="170" xmlns="http://www.w3.org/2000/svg"><g fill="none" fill-rule="evenodd"><path fill="#004899" d="M28 157h121V14H28z"/><path fill="#FFF" d="M31 154h116V16H31z"/><path d="M64.804 94.989C69.994 102.826 78.894 108 89 108c16.017 0 29-12.987 29-29 0-1.563-.123-3.094-.36-4.587-1.35-8.492-6.386-15.754-13.416-20.1A28.857 28.857 0 0089 50c-4.928 0-9.57 1.229-13.634 3.397a29.133 29.133 0 00-8.86 7.3A28.865 28.865 0 0060.2 75.588C60.07 76.71 60 77.845 60 79c0 5.91 1.767 11.406 4.804 15.99" fill="#80A4CC"/><path d="M103.668 54.94l-4.492.966 3.1 1.801 1.043-1.23 1.27-.82-.921-.717zm.065-.861A29.006 29.006 0 01117 74.16l-.002-.006-2.24 1.938-1.433-.342-.67.596.049.402c.022.183.103.559.242 1.121a14.27 14.27 0 01.431 3.427c0 1.046-.042 1.385-.272 2.396l-1.22.006-3.433-2.812-2.618.595-1.688-.289-2.141.661.967.845 1.68-.48 1.454 1.173-.229.514-.599.978-1.289 1.863-1.988 1.62-3.675-3.851-.95.102 3.92 4.537 1.589-.322.397.82-1.602 2.645-3.112 3.002-1.4 3.583c-.032.093-.18.206-.404.316-.448.218-.977.609-1.562 1.164-.752.71-1.172 1.104-1.262 1.183a22.11 22.11 0 01-2.228 1.71c-.859.586-1.719 1.1-2.57 1.54-1.507.774-3.2 1.204-4.731 1.204a9.338 9.338 0 01-3.015-.512c-.136-.047-.224-.116-.224-.176l.679-1.94c.03-.092.606-.75 1.69-1.945.49-.54.888-1.273 1.168-2.149.41-1.288.7-2.08.871-2.36.623-1.014.92-1.88.71-2.091l-4.066-4.132-1.706-3.203.181-.76c.128-.527.541-1.454 1.333-2.983.428-.829.78-1.264 1.173-1.46l2.719-1.355 5.282.805 1.609 1.084.755-.092 3.227.848.806-2.123-4.098-1.166-1.451-1.457-.2.053.678 1.733-.82.165-.088-.204.285-.053c.013.018-.244-1.065-.881-1.368-.229-.106-.38-.207-.611-.207-.312 0-.826.192-1.092.442-.895.834-1.595 1.405-1.661 1.354l-1.682-1.286.622-1.585.26.064c.151.037.314.055.477.055.528 0 .855-.31.92-.618.082-.381-.18-.568-.18-.568.01-.01-.16-.181-.16-.18 0 .021.243-.277.23-.277-.005 0 .642.167 1.01.188.43.025.85-.074 1.023-.266l.407-.65.686-.194.12-.917.422.029s.236.33.334.772l1.185-.31.352-1.228-.19-.218.519-1.177-.45-.322-.762 2.173-.42.054-.183-.485-1.071.083-.598-.971 1.299-1.353 1.266-1.714 1.788.566.437.893.544-.014-.198-1.301 1.463-1.388-.976-4.455.624-1.399.71.04.095-1.097-4.665-5.161.15-1.396 3.86-.888.554.167 2.198-.215.507.23 3.542-.356v.006zm-38.99 40.634l1.98-1.66 1.63.414 4.355-3.31.21-1.766-2.864-4.216c-.045-.063-.23-2.698-.786-4.67-.29-1.031-.957-4.03-.985-4.09l-.377-.764-2.721-4.128 1.766-4.463 1.408-.062.085-.656-1.043-.88-.032-.19-.034-.837c0-.57.955-1.141 1.591-1.141.169 0 .349.026.534.079.445.122.865.492 1.243.772.07.05 1.255 2.845 1.255 2.845l-1.005.814-.493 1.225.686.545.958-1.672 3.968 1.348 2.433 1.399.738-.814 2.043.17 1.493-2.055-1.35-.518 1.416-1.722-.169-.578-2.16-.422 1.655-1.753 1.572 1.034-.034.465 1.016.127.857-1.645-.598-.533 2.528-2.456 2.286-1.079 1.78-1.177.344-.276.073-1.265-.304-.895-.787-.307 1.009-.8-.278-.15c-.673.454-2.272 1.563-5.063 1.764-1.986.142-6.004-.752-6.004-.752l-3.984-.603-1.392-.248a28.861 28.861 0 00-8.764 7.287l-.12 3.802-.6 1.736-1.427 5.032.46 1.418-2.263.327-2.285 2.567A30.05 30.05 0 0060 78.737a29.06 29.06 0 004.748 15.976h-.006zm4.47-18.65l.127.549.518-.174-.173-.554-.472.179zm21.419 3.793l-.36-.047-.025.687.36.067.217-.881-.114-.046-.078.22zm9.611 21.822c0 .01-.308-.345-.308-.345.001.012-.48.295-.48.295s.364.367.352.367l.436-.317zm.669-3.52l-.906.53-1.155.246-2.537 2.52.155.56.368-.049 1.449-.63c.376-.164 1.564-.836 2.18-1.507.583-.638.758-.884 1.096-1.532l-.65-.137zM87.446 75.364l.627.177.187-.588-.444-.107-.37.518zm1.685-1.25s-.728 1.8-.728 1.81c0 0 1.15.11 1.15.12l.271-1.481-.199-.15.135-.506-.577-.32-.186.382.134.146zM70.08 75.8c.009 0 .4-.156.4-.156l-.154-.34s-.225.197-.222.22l-.024.276zm-.285-1.091l.158.382.466-.21s-.128-.35-.142-.35l-.482.178zm-.315-1.266l.09.591.555-.002-.075-.636-.57.047zm-.521-1.097l.284.452.547.083.245-1.112-.894-.219-.182.796zm-.477-1.414l.9.11.28-2.15.005-.644-.157-.655-.463-.038-.565 3.377zm19.963-11.648l-2.595 2.088.92.672 2.074-2.132-.4-.628zm-2.286 3.595l-.368-.016-.706 1.3-1.103.087-1.256 1.831.684.437 1.693-1.088 1.296-1.398-.24-1.153zm-.63 3.05l-1.28 1.142v.773l2.036.508 4.057-2.783-.108-1.135-1.608-.562-3.097 2.058zm-6.148 3.384l1.526.246-.525 1.017-1.311-.733.31-.53z" fill="#004899"/><path d="M53.603 31.067l-1.47 4.27h2.848l-1.378-4.27zM56.796 41l-.758-2.382h-5.03L50.202 41H46l5.949-16h3.101L61 41h-4.204zM72.604 29.404c-.362-.54-.905-.898-1.9-.898H68.96v8.988h1.742c.996 0 1.539-.36 1.9-.898.318-.45.43-.877.43-3.596 0-2.697-.112-3.146-.43-3.596m2.716 10.023C74.21 40.527 72.649 41 70.974 41H65V25h5.974c1.674 0 3.236.471 4.345 1.573 1.878 1.865 1.675 3.91 1.675 6.427 0 2.517.203 4.562-1.675 6.427M82 41V25h11v3.506h-7.023v2.674h6.001v3.506h-6v2.808H93V41zM110.047 41v-7.663l-2.282 3.955h-2.53l-2.282-3.955V41H99V25h3.885l3.615 7.056L110.115 25H114v16zM120 41V25h11v3.506h-7.023v2.674h6.001v3.506h-6v2.808H131V41zM49.322 120.631l.724-2.267.678 2.267h-1.402zm.09-4.631L47 123h1.574l.334-1.067h2.204l.314 1.067H53l-2.412-7h-1.176zM57.458 123c.83 0 1.394-.23 1.887-.766h.001c.477-.512.654-1.133.654-2.289v-.897h-2.464v1.28h.986v.182c0 .335-.099.623-.277.81-.177.2-.443.3-.787.3-.3 0-.559-.118-.71-.328-.157-.217-.261-.46-.261-1.791 0-1.323.104-1.565.26-1.783a.87.87 0 01.71-.339c.558 0 .865.238 1.019.792h1.5c-.12-.723-.602-2.171-2.518-2.171-.744 0-1.3.237-1.804.768-.656.69-.655 1.625-.654 2.615v.235c-.001.99-.002 1.924.654 2.614.496.524 1.07.768 1.804.768M64.694 120.17h2.824v-1.402h-2.824v-1.366H68V116h-5v7h5v-1.403h-3.306zM75 123v-7h-1.468v3.808L71.299 116H70v7h1.468v-3.808L73.7 123zM82.45 120.87c-.1.34-.313.751-.933.751-.305 0-.57-.12-.725-.329-.161-.218-.275-.474-.275-1.792s.114-1.574.275-1.792c.155-.21.42-.33.725-.33.62 0 .832.413.932.753H84c-.253-1.356-1.156-2.131-2.492-2.131-.75 0-1.335.244-1.842.768-.668.69-.667 1.625-.666 2.614v.236c-.001.99-.002 1.924.666 2.615.507.523 1.092.767 1.842.767 1.336 0 2.239-.774 2.492-2.13h-1.55zM87.694 120.17h2.825v-1.402h-2.825v-1.366H91V116h-5v7h5v-1.403h-3.306zM101.257 121.16c-.193.298-.474.437-.885.437h-.83v-4.194h.83c.41 0 .692.14.885.44.154.227.199.472.199 1.657 0 1.253-.051 1.441-.199 1.66m1.741-1.356v-.304-.303c.008-.996.014-1.782-.698-2.516-.43-.446-1.056-.681-1.81-.681H98v7h2.49c.754 0 1.38-.236 1.811-.68.711-.735.705-1.521.697-2.516M107.694 120.17h2.825v-1.402h-2.825v-1.366H111V116h-5v7h5v-1.403h-3.306zM119.731 116H118v7h5v-1.403h-3.269zM126.322 120.631l.724-2.267.678 2.267h-1.402zm2.104 2.369H130l-2.412-7h-1.175L124 123h1.574l.334-1.067h2.204l.314 1.067zM48.721 135h1.558v-5.597H52V128h-5v1.403h1.721zM58.455 131.03h-.991v-1.617h.991c.507 0 .78.416.78.808 0 .392-.273.809-.78.809zm1.214.989a2.005 2.005 0 001.029-1.798c0-1.103-.745-2.221-2.169-2.221H56v7h1.464v-2.668h.67L59.3 135H61l-1.401-2.943.07-.038zM67.322 132.631l.723-2.268.679 2.268h-1.402zm.09-4.631L65 135h1.574l.333-1.067h2.205l.315 1.067H71l-2.412-7h-1.176zM75 128v7h1.468v-3.808L78.701 135H80v-7h-1.468v3.808L76.299 128zM88.23 130.82l-.82-.12a.836.836 0 01-.512-.23.568.568 0 01-.156-.385c0-.354.28-.736.898-.736h.052c.298-.002.814-.004 1.232.384l.938-.973c-.536-.525-1.21-.76-2.174-.76-1.434 0-2.398.861-2.398 2.145 0 .584.15 1.041.445 1.357.29.311.733.512 1.316.599l.82.118c.22.03.386.102.492.212.107.122.157.276.157.474 0 .327-.183.716-1.051.716-.31 0-1.054-.046-1.513-.462l-.956.992c.585.594 1.327.849 2.46.849 1.264 0 2.54-.66 2.54-2.134 0-.672-.158-1.157-.48-1.484-.278-.289-.712-.478-1.29-.563M94 135h2v-7h-2zM101.721 135h1.558v-5.597H105V128h-5v1.403h1.721zM109 135h2v-7h-2zM118.23 133.273a.912.912 0 01-.73.348.913.913 0 01-.73-.348c-.164-.225-.264-.456-.264-1.772 0-1.323.105-1.565.264-1.783.157-.213.43-.339.73-.339s.572.126.73.34c.159.217.263.46.263 1.782 0 1.316-.1 1.547-.264 1.772zm1.77-1.89c.001-.99.002-1.925-.662-2.615-.511-.531-1.077-.768-1.838-.768-.76 0-1.328.237-1.839.768-.663.69-.662 1.625-.66 2.614v.236c-.002.99-.003 1.924.66 2.615.511.53 1.078.767 1.839.767.76 0 1.327-.236 1.838-.768.664-.69.663-1.625.662-2.614v-.236zM130 135v-7h-1.468v3.808L126.299 128H125v7h1.468v-3.808l2.233 3.808zM48.694 143.172h2.824v-1.404h-2.824v-1.364H52V139h-5v7h5v-1.403h-3.306zM49.466 137L49 139h.877L51 137zM59.449 141.13H61c-.252-1.355-1.156-2.13-2.492-2.13-.75 0-1.335.244-1.84.767-.67.691-.67 1.625-.668 2.616v.234c-.001.99-.002 1.924.668 2.614.506.525 1.09.769 1.84.769 1.336 0 2.24-.776 2.492-2.132h-1.551c-.1.34-.312.752-.931.752-.306 0-.57-.12-.725-.329-.161-.218-.276-.475-.276-1.792 0-1.316.115-1.573.276-1.791.156-.21.42-.33.725-.33.62 0 .831.413.931.752M68.23 144.272a.902.902 0 01-.73.348.901.901 0 01-.729-.348c-.164-.223-.263-.454-.263-1.773 0-1.326.1-1.557.263-1.781.157-.213.43-.34.73-.34s.572.127.729.34c.163.224.263.455.263 1.781 0 1.319-.1 1.55-.263 1.773M67.5 139c-.76 0-1.328.237-1.838.767-.664.691-.663 1.625-.662 2.615v.235c-.001.99-.002 1.924.662 2.615.51.53 1.078.768 1.839.768.76 0 1.327-.237 1.838-.769.663-.69.662-1.623.66-2.612v-.239c.002-.99.003-1.923-.66-2.613-.51-.53-1.078-.767-1.838-.767M75.731 139H74v7h5v-1.403h-3.269zM85.23 144.272a.902.902 0 01-.73.348.907.907 0 01-.729-.348c-.164-.224-.263-.455-.263-1.773 0-1.322.104-1.563.263-1.781.157-.212.429-.34.729-.34s.572.127.73.34c.163.224.262.455.262 1.781 0 1.319-.1 1.55-.263 1.773M84.5 139c-.761 0-1.328.237-1.838.767-.664.691-.663 1.625-.662 2.615v.235c-.001.99-.002 1.924.662 2.615.51.53 1.077.768 1.838.768.76 0 1.327-.237 1.838-.769.664-.69.663-1.624.662-2.614v-.235c.001-.99.002-1.924-.662-2.615-.51-.53-1.077-.767-1.838-.767M94.475 141.172h1.503c-.122-.723-.603-2.172-2.52-2.172-.744 0-1.301.237-1.804.767-.655.691-.655 1.626-.654 2.616v.234c0 .99-.001 1.925.654 2.615.497.524 1.07.768 1.804.768.83 0 1.394-.229 1.887-.767v-.001c.478-.51.655-1.13.655-2.287v-.897h-2.464v1.28h.986v.181c0 .335-.098.623-.276.811-.179.199-.444.3-.788.3-.299 0-.558-.12-.71-.328-.157-.217-.26-.459-.26-1.793 0-1.321.103-1.563.26-1.78a.86.86 0 01.71-.34c.557 0 .865.238 1.017.793M101 146h2v-7h-2zM110.406 143.43l-.014.173-.383-.395-.725.745.47.484-.143.029c-.055.01-.098.01-.147.01a.9.9 0 01-.718-.338c-.162-.218-.26-.444-.26-1.728 0-1.288.103-1.523.26-1.736.154-.207.423-.33.718-.33.296 0 .565.123.72.33.157.213.26.448.26 1.736 0 .497-.023.82-.038 1.02zm1.15 1.28c.375-.615.374-1.38.373-2.19v-.224c.001-.964.002-1.875-.653-2.549-.502-.516-1.062-.747-1.812-.747s-1.308.231-1.812.748c-.654.673-.653 1.584-.652 2.548v.229c-.001.964-.002 1.875.652 2.548.504.517 1.063.748 1.812.748.497 0 .909-.1 1.257-.307l.051-.031.503.517.725-.745-.476-.49.033-.054zM117.513 143.488V139H116v4.528c0 1.433 1.047 2.472 2.49 2.472 1.455 0 2.51-1.04 2.51-2.472V139h-1.514v4.488c0 .692-.381 1.12-.996 1.12-.603 0-.977-.428-.977-1.12M127.695 143.172h2.824v-1.404h-2.824v-1.364H131V139h-5v7h5v-1.403h-3.305z" fill="#E3211B"/></g></svg>