<svg width="176" height="170" xmlns="http://www.w3.org/2000/svg"><g fill="none" fill-rule="evenodd"><path fill="#D2CE00" d="M53.967 72.327v32.232l28.011-16.114.006-32.244-.01-.008z"/><path fill="#1A171B" d="M53.52 107.474h2.243v6.61h4.213v2.177H53.52zM67.394 110.36l-.969 2.58h1.928l-.959-2.58zm1.116-2.886l3.549 8.787h-2.458l-.483-1.282h-3.463l-.484 1.282h-2.454l3.56-8.787h2.233zM80.499 107.474h6.524v2.184h-4.282v1.553h3.594v2.041h-3.594v3.01h-2.242zM93.652 110.36l-.968 2.58h1.928l-.96-2.58zm1.116-2.886l3.55 8.787h-2.456l-.487-1.282h-3.458l-.485 1.282h-2.457l3.562-8.787h2.23zM103.838 112.681v1.538h2.254c.61 0 .833-.322.833-.783 0-.454-.223-.755-.833-.755h-2.254zm0-3.16v1.4h1.861c.608 0 .832-.284.832-.704 0-.413-.234-.695-.71-.695h-1.983zm-2.25-2.046h4.371c1.894 0 2.854 1.022 2.854 2.42 0 .89-.419 1.487-1.073 1.85.89.335 1.464 1.01 1.464 2.038 0 1.454-1.08 2.478-2.864 2.478h-4.75v-8.786h-.002zM115.006 109.521v2.344h1.93c.898 0 1.237-.547 1.237-1.157 0-.676-.339-1.187-1.238-1.187h-1.929zm2.055-2.047c2.25 0 3.29 1.463 3.29 3.21 0 1.228-.554 2.378-1.74 2.915l1.907 2.662h-2.697l-1.662-2.355h-1.152v2.355h-2.24v-8.787h4.294zM123.989 116.262h2.254v-8.787h-2.254zM134.13 114.256a2.367 2.367 0 002.394-2.391 2.367 2.367 0 00-2.395-2.388 2.385 2.385 0 00-2.389 2.388 2.386 2.386 0 002.39 2.39m0-6.951c2.57 0 4.668 2.05 4.668 4.562 0 1.67-.914 3.123-2.274 3.926.402.28.76.485 1.146.485.126 0 .527-.038.768-.397l1.7 1.375c-.627.867-1.657 1.195-2.456 1.195-1.773 0-2.793-1.578-4.317-2.085-2.184-.348-3.896-2.241-3.896-4.5-.002-2.511 2.125-4.561 4.66-4.561M150.293 107.474v4.942c0 2.265-1.423 4.016-4.05 4.016-2.635 0-4.033-1.75-4.033-4.016v-4.942h2.256v4.811c0 1.275.607 1.97 1.777 1.97 1.188 0 1.807-.694 1.807-1.97v-4.81h2.243zM154.115 107.474h6.747v2.184h-4.497v1.263h3.699v2.04h-3.7v1.124h4.498v2.177h-6.747zM55.777 123.18v4.432h1.656c1.339 0 2.049-.902 2.049-2.218 0-1.32-.71-2.215-2.05-2.215h-1.655zm-2.257-2.183h4.079c2.75 0 4.16 2.004 4.16 4.397 0 2.396-1.41 4.39-4.16 4.39h-4.08v-8.786zM65.068 120.998h6.75v2.182h-4.494v1.264h3.695v2.039h-3.695v1.129h4.494v2.172h-6.75zM76.956 127.146v.054c0 .34.466.8 1.49.8.846 0 1.114-.282 1.114-.542 0-.373-.437-.596-1.5-.957-1.401-.462-3.232-1.134-3.232-2.95 0-1.682 1.429-2.727 3.437-2.727 2.055 0 3.592 1.093 3.592 2.84v.124h-2.191v-.082c0-.427-.443-.935-1.354-.935-.767 0-1.072.307-1.072.598 0 .35.406.531 1.451.89 1.22.431 3.294 1.151 3.294 3.074 0 1.717-1.487 2.617-3.493 2.617-2.109 0-3.732-.982-3.732-2.706v-.098h2.196zM91.126 129.783v-8.785h2.266l2.537 5.551 2.547-5.551h2.262v8.785h-2.24v-4.131l-1.825 3.793h-1.478l-1.825-3.793v4.131zM108.519 127.78a2.358 2.358 0 002.388-2.388c0-1.333-1.033-2.39-2.388-2.39a2.383 2.383 0 00-2.388 2.39 2.382 2.382 0 002.388 2.387m0-6.955c2.572 0 4.669 2.055 4.669 4.568 0 2.512-2.097 4.561-4.669 4.561-2.534 0-4.665-2.049-4.665-4.56 0-2.514 2.131-4.569 4.665-4.569M118.51 126.201v1.545h2.253c.607 0 .834-.327.834-.789 0-.451-.227-.756-.834-.756h-2.253zm0-3.154v1.396h1.86c.607 0 .83-.279.83-.695 0-.422-.232-.701-.704-.701h-1.986zm-2.255-2.049h4.374c1.891 0 2.853 1.024 2.853 2.42 0 .889-.42 1.488-1.075 1.852.894.336 1.466 1.013 1.466 2.035 0 1.456-1.079 2.479-2.862 2.479h-4.755v-8.786zM127.415 129.763h2.254v-8.788h-2.254zM133.61 120.974h2.248v6.612h4.212v2.176h-6.46zM143.256 129.763h2.255v-8.788h-2.255zM148.26 120.974h7.73v2.186h-2.738v6.604h-2.249v-6.604h-2.743zM160.367 119.305l2.929-2.089 1.094 1.898-3.271 1.498-.752-1.307zM159 121.038h6.75v2.19h-4.496v1.26h3.698v2.043h-3.698v1.127h4.497v2.171H159v-8.79zM170.902 127.192v.056c0 .338.459.8 1.482.8.846 0 1.119-.28 1.119-.54 0-.369-.44-.598-1.497-.96-1.402-.46-3.235-1.138-3.235-2.948 0-1.679 1.427-2.73 3.438-2.73 2.05 0 3.59 1.092 3.59 2.841v.122h-2.194v-.079c0-.427-.438-.934-1.351-.934-.77 0-1.07.304-1.07.6 0 .35.404.526 1.45.888 1.218.428 3.292 1.152 3.292 3.077 0 1.714-1.486 2.616-3.492 2.616-2.11 0-3.73-.98-3.73-2.705v-.103h2.198z"/><path fill="#5EB8E0" d="M53.967 104.56L26.018 88.317l-26.38 15.185-1.628.952-.004.001 27.92 16.186z"/><path fill="#97B837" d="M53.967 104.56V72.326l-27.949-16.24v32.231z"/><path fill="#9DCDD7" d="M26.018 88.318v-32.23L-1.994 72.2-2 104.45l.006.004z"/><path fill="#1A171B" d="M63.887 84.572v-6.96h1.795l2.006 4.4 2.017-4.4h1.796v6.96h-1.776v-3.274l-1.447 3.01H67.11l-1.448-3.01v3.274zM38.756 81.735v1.223h1.789c.482 0 .66-.254.66-.622 0-.362-.178-.6-.66-.6h-1.79zm0-2.498v1.107h1.478c.479 0 .66-.227.66-.555 0-.333-.187-.552-.565-.552h-1.573zm-1.785-1.625h3.467c1.5 0 2.26.815 2.26 1.916 0 .703-.33 1.181-.85 1.47.706.264 1.16.804 1.16 1.616 0 1.151-.854 1.958-2.268 1.958h-3.77v-6.96z"/><path d="M45.134 97.357L27.512 85.865V64.972c0-.83-.666-1.488-1.488-1.488-.823 0-1.489.66-1.489 1.488V85.85L6.901 97.357a1.493 1.493 0 00-.436 2.063 1.499 1.499 0 002.064.435l17.49-11.412 17.488 11.412a1.493 1.493 0 002.061-.435 1.489 1.489 0 00-.434-2.063M9.108 77.61h5.172v1.731h-3.393v1.233h2.846v1.615h-2.846v2.384h-1.78z" fill="#1A171B"/><path d="M25.855 100.724l-.771 2.045h1.529l-.758-2.046zm.885-2.29l2.812 6.968h-1.947l-.383-1.019H24.48l-.386 1.019h-1.947l2.82-6.969h1.773z" fill="#1A171B"/><path fill="#FFE000" d="M26.024 56.085l27.945 16.242 28.009-16.138.006-.002L54.064 40z"/><path fill="#C0C948" d="M81.95 56.201v-.006l-.004-.004-.007.002zM26.13 88.652h.011v-.008h-.011z"/><path d="M34.846 63.083l17.62 11.495v20.897a1.488 1.488 0 002.977 0v-20.89l17.636-11.502a1.494 1.494 0 00.434-2.065 1.493 1.493 0 00-2.063-.432L53.963 71.994l-17.489-11.41a1.49 1.49 0 10-1.628 2.499" fill="#1A171B"/><path d="M53.887 58.737c1.07 0 1.892-.843 1.892-1.896a1.872 1.872 0 00-1.892-1.894c-1.046 0-1.893.84-1.893 1.894a1.891 1.891 0 001.893 1.896m0-5.51c2.032 0 3.696 1.62 3.696 3.614 0 1.992-1.664 3.61-3.696 3.61-2.009 0-3.699-1.618-3.699-3.61 0-1.994 1.69-3.615 3.7-3.615" fill="#1A171B"/></g></svg>