<svg width="794" height="264" xmlns="http://www.w3.org/2000/svg"><g fill="#FFD314" fill-rule="evenodd"><path d="M147.583 72.339c-1.08 2.131-2.622 3.805-4.623 5.023-2 1.216-4.379 1.826-7.133 1.826h-11.19V51.189h11.19l.06-.002c2.728.01 5.087.616 7.074 1.825 2 1.217 3.542 2.891 4.622 5.021 1.083 2.132 1.624 4.516 1.624 7.153 0 2.638-.541 5.023-1.624 7.153zm-22.945-60.526h11.189c2.754 0 5.133.608 7.134 1.826 2 1.217 3.542 2.891 4.622 5.021 1.083 2.132 1.624 4.516 1.624 7.153 0 2.638-.541 5.023-1.624 7.153-1.08 2.131-2.622 3.805-4.622 5.022-1.984 1.207-4.34 1.814-7.064 1.825l-.07-.002h-11.19l.001-27.998zM153.435 45.5a25.688 25.688 0 006.005-6.75c2.374-3.865 3.56-8.214 3.56-13.052 0-4.836-1.186-9.187-3.56-13.05-2.372-3.864-5.602-6.939-9.689-9.22C145.664 1.141 141.017 0 135.81 0H113v91h22.809c5.208 0 9.855-1.143 13.942-3.426 4.087-2.285 7.317-5.359 9.69-9.221C161.813 74.488 163 70.139 163 65.3c0-4.837-1.186-9.188-3.56-13.05a25.676 25.676 0 00-6.005-6.751zM665.583 72.339c-1.08 2.131-2.622 3.805-4.623 5.023-2 1.216-4.379 1.826-7.133 1.826h-11.19V51.189h11.19l.06-.002c2.728.01 5.087.616 7.074 1.825 2 1.217 3.542 2.891 4.622 5.021 1.083 2.132 1.624 4.516 1.624 7.153 0 2.638-.541 5.023-1.624 7.153zm-22.945-60.526h11.189c2.754 0 5.133.608 7.134 1.826 2 1.217 3.542 2.891 4.622 5.021 1.083 2.132 1.624 4.516 1.624 7.153 0 2.638-.541 5.023-1.624 7.153-1.08 2.131-2.622 3.805-4.622 5.022-1.984 1.207-4.34 1.814-7.064 1.825l-.07-.002h-11.19l.001-27.998zM671.435 45.5a25.688 25.688 0 006.005-6.75c2.374-3.865 3.56-8.214 3.56-13.052 0-4.836-1.186-9.187-3.56-13.05-2.372-3.864-5.602-6.939-9.689-9.22C663.664 1.141 659.017 0 653.81 0H631v91h22.809c5.208 0 9.855-1.143 13.942-3.426 4.087-2.285 7.317-5.359 9.69-9.221C679.813 74.488 681 70.139 681 65.3c0-4.837-1.186-9.188-3.56-13.05a25.676 25.676 0 00-6.005-6.751zM778.583 141.339c-1.08 2.131-2.622 3.805-4.623 5.023-2 1.216-4.379 1.826-7.133 1.826h-11.19v-27.999h11.19l.06-.001c2.728.009 5.087.615 7.074 1.824 2 1.217 3.542 2.891 4.622 5.021 1.083 2.132 1.624 4.516 1.624 7.153 0 2.638-.541 5.023-1.624 7.153zm-22.945-60.526h11.189c2.754 0 5.133.608 7.134 1.826 2 1.217 3.542 2.891 4.622 5.021 1.083 2.132 1.624 4.516 1.624 7.153 0 2.638-.541 5.023-1.624 7.153-1.08 2.131-2.622 3.805-4.622 5.022-1.984 1.207-4.34 1.814-7.064 1.825l-.07-.002h-11.19l.001-27.998zm28.797 33.687a25.688 25.688 0 006.005-6.75c2.374-3.865 3.56-8.214 3.56-13.052 0-4.836-1.186-9.187-3.56-13.05-2.372-3.864-5.602-6.939-9.689-9.22C776.664 70.141 772.017 69 766.81 69H744v91h22.809c5.208 0 9.855-1.143 13.942-3.426 4.087-2.285 7.317-5.359 9.69-9.221 2.373-3.865 3.559-8.214 3.559-13.052 0-4.837-1.186-9.188-3.56-13.05a25.676 25.676 0 00-6.005-6.751zM488.583 140.339c-1.08 2.131-2.622 3.805-4.623 5.023-2 1.216-4.379 1.826-7.133 1.826h-11.19v-27.999h11.19l.06-.001c2.728.009 5.087.615 7.074 1.824 2 1.217 3.542 2.891 4.622 5.021 1.083 2.132 1.624 4.516 1.624 7.153 0 2.638-.541 5.023-1.624 7.153zm-22.945-60.526h11.189c2.754 0 5.133.608 7.134 1.826 2 1.217 3.542 2.891 4.622 5.021 1.083 2.132 1.624 4.516 1.624 7.153 0 2.638-.541 5.023-1.624 7.153-1.08 2.131-2.622 3.805-4.622 5.022-1.984 1.207-4.34 1.814-7.064 1.825l-.07-.002h-11.19l.001-27.998zm28.797 33.687a25.688 25.688 0 006.005-6.75c2.374-3.865 3.56-8.214 3.56-13.052 0-4.836-1.186-9.187-3.56-13.05-2.372-3.864-5.602-6.939-9.689-9.22C486.664 69.141 482.017 68 476.81 68H454v91h22.809c5.208 0 9.855-1.143 13.942-3.426 4.087-2.285 7.317-5.359 9.69-9.221 2.373-3.865 3.559-8.214 3.559-13.052 0-4.837-1.186-9.188-3.56-13.05a25.676 25.676 0 00-6.005-6.751zM376.583 245.339c-1.08 2.131-2.622 3.805-4.623 5.023-2 1.216-4.379 1.826-7.133 1.826h-11.19v-27.999h11.19l.06-.001c2.728.009 5.087.615 7.074 1.824 2 1.217 3.542 2.891 4.622 5.021 1.083 2.132 1.624 4.516 1.624 7.153 0 2.638-.541 5.023-1.624 7.153zm-22.945-60.526h11.189c2.754 0 5.133.608 7.134 1.826 2 1.217 3.542 2.891 4.622 5.021 1.083 2.132 1.624 4.516 1.624 7.153 0 2.638-.541 5.023-1.624 7.153-1.08 2.131-2.622 3.805-4.622 5.022-1.984 1.207-4.34 1.814-7.064 1.824l-.07-.001h-11.19l.001-27.999zm28.797 33.687a25.688 25.688 0 006.005-6.75c2.374-3.865 3.56-8.214 3.56-13.052 0-4.836-1.186-9.187-3.56-13.05-2.372-3.864-5.602-6.939-9.689-9.22-4.087-2.286-8.734-3.428-13.942-3.428H342v91h22.809c5.208 0 9.855-1.143 13.942-3.426 4.087-2.285 7.317-5.359 9.69-9.221 2.373-3.865 3.559-8.214 3.559-13.052 0-4.837-1.186-9.188-3.56-13.05a25.676 25.676 0 00-6.005-6.751zM553.583 245.339c-1.08 2.131-2.622 3.805-4.623 5.023-2 1.216-4.379 1.826-7.133 1.826h-11.19v-27.999h11.19l.06-.001c2.728.009 5.087.615 7.074 1.824 2 1.217 3.542 2.891 4.622 5.021 1.083 2.132 1.624 4.516 1.624 7.153 0 2.638-.541 5.023-1.624 7.153zm-22.945-60.526h11.189c2.754 0 5.133.608 7.134 1.826 2 1.217 3.542 2.891 4.622 5.021 1.083 2.132 1.624 4.516 1.624 7.153 0 2.638-.541 5.023-1.624 7.153-1.08 2.131-2.622 3.805-4.622 5.022-1.984 1.207-4.34 1.814-7.064 1.824l-.07-.001h-11.19l.001-27.999zm28.797 33.687a25.688 25.688 0 006.005-6.75c2.374-3.865 3.56-8.214 3.56-13.052 0-4.836-1.186-9.187-3.56-13.05-2.372-3.864-5.602-6.939-9.689-9.22-4.087-2.286-8.734-3.428-13.942-3.428H519v91h22.809c5.208 0 9.855-1.143 13.942-3.426 4.087-2.285 7.317-5.359 9.69-9.221 2.373-3.865 3.559-8.214 3.559-13.052 0-4.837-1.186-9.188-3.56-13.05a25.676 25.676 0 00-6.005-6.751zM99.31 119.309c-2.46-4.414-5.77-7.903-9.93-10.465-4.162-2.563-8.845-3.844-14.056-3.844-5.209 0-9.894 1.28-14.054 3.844A27.655 27.655 0 0054 115.33a27.682 27.682 0 00-7.27-6.486C42.57 106.281 37.885 105 32.675 105c-5.209 0-9.894 1.28-14.054 3.844-4.162 2.562-7.473 6.05-9.93 10.465C6.23 123.723 5 128.742 5 134.366V159h12.699v-24.634c0-2.99.65-5.57 1.953-7.742 1.302-2.172 3.093-3.844 5.372-5.018 2.28-1.175 4.83-1.762 7.651-1.762 2.823 0 5.373.587 7.651 1.762 2.28 1.174 4.07 2.846 5.374 5.018 1.29 2.153 1.94 4.71 1.951 7.666l-.002.076V159H60.35v-24.634l-.002-.063c.01-2.962.659-5.523 1.952-7.68 1.302-2.17 3.093-3.843 5.372-5.017 2.28-1.175 4.83-1.762 7.65-1.762 2.823 0 5.374.587 7.653 1.762 2.28 1.174 4.07 2.846 5.372 5.018 1.302 2.172 1.954 4.753 1.954 7.742V159H103v-24.634c0-5.624-1.231-10.643-3.69-15.057M323.31 119.309c-2.46-4.414-5.77-7.903-9.93-10.465-4.162-2.563-8.845-3.844-14.056-3.844-5.209 0-9.894 1.28-14.054 3.844a27.655 27.655 0 00-7.27 6.486 27.682 27.682 0 00-7.27-6.486c-4.161-2.563-8.845-3.844-14.055-3.844-5.209 0-9.894 1.28-14.054 3.844-4.162 2.562-7.473 6.05-9.93 10.465-2.461 4.414-3.691 9.433-3.691 15.057V159h12.699v-24.634c0-2.99.65-5.57 1.953-7.742 1.302-2.172 3.093-3.844 5.372-5.018 2.28-1.175 4.83-1.762 7.651-1.762 2.823 0 5.373.587 7.651 1.762 2.28 1.174 4.07 2.846 5.374 5.018 1.29 2.153 1.94 4.71 1.951 7.666l-.002.076V159h12.702v-24.634l-.002-.063c.01-2.962.659-5.523 1.952-7.68 1.302-2.17 3.093-3.843 5.372-5.017 2.28-1.175 4.83-1.762 7.65-1.762 2.823 0 5.374.587 7.653 1.762 2.28 1.174 4.07 2.846 5.372 5.018 1.302 2.172 1.954 4.753 1.954 7.742V159H327v-24.634c0-5.624-1.231-10.643-3.69-15.057M613.31 119.309c-2.46-4.414-5.77-7.903-9.93-10.465-4.162-2.563-8.845-3.844-14.056-3.844-5.209 0-9.894 1.28-14.054 3.844a27.655 27.655 0 00-7.27 6.486 27.682 27.682 0 00-7.27-6.486c-4.161-2.563-8.845-3.844-14.055-3.844-5.209 0-9.894 1.28-14.054 3.844-4.162 2.562-7.473 6.05-9.93 10.465-2.461 4.414-3.691 9.433-3.691 15.057V159h12.699v-24.634c0-2.99.65-5.57 1.953-7.742 1.302-2.172 3.093-3.844 5.372-5.018 2.28-1.175 4.83-1.762 7.651-1.762 2.823 0 5.373.587 7.651 1.762 2.28 1.174 4.07 2.846 5.374 5.018 1.29 2.153 1.94 4.71 1.951 7.666l-.002.076V159h12.702v-24.634l-.002-.063c.01-2.962.659-5.523 1.952-7.68 1.302-2.17 3.093-3.843 5.372-5.017 2.28-1.175 4.83-1.762 7.65-1.762 2.823 0 5.374.587 7.653 1.762 2.28 1.174 4.07 2.846 5.372 5.018 1.302 2.172 1.954 4.753 1.954 7.742V159H617v-24.634c0-5.624-1.231-10.643-3.69-15.057M673.31 187.309c-2.46-4.414-5.77-7.903-9.93-10.465-4.162-2.563-8.845-3.844-14.056-3.844-5.209 0-9.894 1.28-14.054 3.844a27.655 27.655 0 00-7.27 6.486 27.682 27.682 0 00-7.27-6.486c-4.161-2.563-8.845-3.844-14.055-3.844-5.209 0-9.894 1.28-14.054 3.844-4.162 2.562-7.473 6.05-9.93 10.465-2.461 4.414-3.691 9.433-3.691 15.057V227h12.699v-24.634c0-2.99.65-5.57 1.953-7.742 1.302-2.172 3.093-3.844 5.372-5.018 2.28-1.175 4.83-1.762 7.651-1.762 2.823 0 5.373.587 7.651 1.762 2.28 1.174 4.07 2.846 5.374 5.018 1.29 2.153 1.94 4.71 1.951 7.666l-.002.076V227h12.702v-24.634l-.002-.063c.01-2.962.659-5.523 1.952-7.68 1.302-2.17 3.093-3.843 5.372-5.017 2.28-1.175 4.83-1.762 7.65-1.762 2.823 0 5.374.587 7.653 1.762 2.28 1.174 4.07 2.846 5.372 5.018 1.302 2.172 1.954 4.753 1.954 7.742V227H677v-24.634c0-5.624-1.231-10.643-3.69-15.057M211.31 187.309c-2.46-4.414-5.77-7.903-9.93-10.465-4.162-2.563-8.845-3.844-14.056-3.844-5.209 0-9.894 1.28-14.054 3.844a27.655 27.655 0 00-7.27 6.486 27.682 27.682 0 00-7.27-6.486c-4.161-2.563-8.845-3.844-14.055-3.844-5.209 0-9.894 1.28-14.054 3.844-4.162 2.562-7.473 6.05-9.93 10.465-2.461 4.414-3.691 9.433-3.691 15.057V227h12.699v-24.634c0-2.99.65-5.57 1.953-7.742 1.302-2.172 3.093-3.844 5.372-5.018 2.28-1.175 4.83-1.762 7.651-1.762 2.823 0 5.373.587 7.651 1.762 2.28 1.174 4.07 2.846 5.374 5.018 1.29 2.153 1.94 4.71 1.951 7.666l-.002.076V227h12.702v-24.634l-.002-.063c.01-2.962.659-5.523 1.952-7.68 1.302-2.17 3.093-3.843 5.372-5.017 2.28-1.175 4.83-1.762 7.65-1.762 2.823 0 5.374.587 7.653 1.762 2.28 1.174 4.07 2.846 5.372 5.018 1.302 2.172 1.954 4.753 1.954 7.742V227H215v-24.634c0-5.624-1.231-10.643-3.69-15.057M90.83 71.724a12.956 12.956 0 01-4.978 5.26c-2.154 1.275-4.715 1.913-7.681 1.913l-48.877-.001c-2.965 0-5.526-.637-7.68-1.913-2.155-1.274-3.815-3.028-4.979-5.259-1.165-2.232-1.748-4.729-1.748-7.491 0-2.763.583-5.26 1.748-7.491a12.956 12.956 0 014.978-5.26c2.155-1.275 4.716-1.913 7.681-1.913h48.877c2.966 0 5.527.638 7.68 1.913 2.156 1.275 3.815 3.029 4.98 5.259 1.165 2.232 1.747 4.73 1.747 7.492 0 2.762-.582 5.26-1.748 7.49m12.361-21.435c-2.538-4.06-5.994-7.29-10.367-9.688-4.373-2.4-9.346-3.6-14.918-3.6H29.094c-5.572 0-10.545 1.2-14.918 3.6C9.804 43 6.347 46.23 3.81 50.288 1.269 54.348 0 58.918 0 64c0 5.082 1.27 9.653 3.809 13.712 2.538 4.06 5.995 7.29 10.368 9.688 4.372 2.4 9.345 3.6 14.917 3.6h48.812c5.572 0 10.545-1.2 14.918-3.6 4.373-2.4 7.83-5.63 10.367-9.688C105.731 73.652 107 69.082 107 64c0-5.082-1.269-9.653-3.809-13.712M203.83 139.724a12.956 12.956 0 01-4.978 5.26c-2.154 1.275-4.715 1.913-7.681 1.913l-48.877-.001c-2.965 0-5.526-.637-7.68-1.913-2.155-1.274-3.815-3.028-4.979-5.259-1.165-2.232-1.748-4.729-1.748-7.491 0-2.763.583-5.26 1.748-7.491a12.956 12.956 0 014.978-5.26c2.155-1.275 4.716-1.913 7.681-1.913h48.877c2.966 0 5.527.638 7.68 1.913 2.156 1.275 3.815 3.029 4.98 5.259 1.165 2.232 1.747 4.73 1.747 7.492 0 2.762-.582 5.26-1.748 7.49m12.361-21.435c-2.538-4.06-5.994-7.29-10.367-9.688-4.373-2.4-9.346-3.6-14.918-3.6h-48.812c-5.572 0-10.545 1.2-14.918 3.6-4.372 2.4-7.829 5.63-10.367 9.688-2.54 4.06-3.809 8.63-3.809 13.712 0 5.082 1.27 9.653 3.809 13.712 2.538 4.06 5.995 7.29 10.368 9.688 4.372 2.4 9.345 3.6 14.917 3.6h48.812c5.572 0 10.545-1.2 14.918-3.6 4.373-2.4 7.83-5.63 10.367-9.688 2.54-4.06 3.809-8.63 3.809-13.712 0-5.082-1.269-9.653-3.809-13.712M427.83 140.724a12.956 12.956 0 01-4.978 5.26c-2.154 1.275-4.715 1.913-7.681 1.913l-48.877-.001c-2.965 0-5.526-.637-7.68-1.913-2.155-1.274-3.815-3.028-4.979-5.259-1.165-2.232-1.748-4.729-1.748-7.491 0-2.763.583-5.26 1.748-7.491a12.956 12.956 0 014.978-5.26c2.155-1.275 4.716-1.913 7.681-1.913h48.877c2.966 0 5.527.638 7.68 1.913 2.156 1.275 3.815 3.029 4.98 5.259 1.165 2.232 1.747 4.73 1.747 7.492 0 2.762-.582 5.26-1.748 7.49m12.361-21.435c-2.538-4.06-5.994-7.29-10.367-9.688-4.373-2.4-9.346-3.6-14.918-3.6h-48.812c-5.572 0-10.545 1.2-14.918 3.6-4.372 2.4-7.829 5.63-10.367 9.688-2.54 4.06-3.809 8.63-3.809 13.712 0 5.082 1.27 9.653 3.809 13.712 2.538 4.06 5.995 7.29 10.368 9.688 4.372 2.4 9.345 3.6 14.917 3.6h48.812c5.572 0 10.545-1.2 14.918-3.6 4.373-2.4 7.83-5.63 10.367-9.688 2.54-4.06 3.809-8.63 3.809-13.712 0-5.082-1.269-9.653-3.809-13.712M717.83 140.724a12.956 12.956 0 01-4.978 5.26c-2.154 1.275-4.715 1.913-7.681 1.913l-48.877-.001c-2.965 0-5.526-.637-7.68-1.913-2.155-1.274-3.815-3.028-4.979-5.259-1.165-2.232-1.748-4.729-1.748-7.491 0-2.763.583-5.26 1.748-7.491a12.956 12.956 0 014.978-5.26c2.155-1.275 4.716-1.913 7.681-1.913h48.877c2.966 0 5.527.638 7.68 1.913 2.156 1.275 3.815 3.029 4.98 5.259 1.165 2.232 1.747 4.73 1.747 7.492 0 2.762-.582 5.26-1.748 7.49m12.361-21.435c-2.538-4.06-5.994-7.29-10.367-9.688-4.373-2.4-9.346-3.6-14.918-3.6h-48.812c-5.572 0-10.545 1.2-14.918 3.6-4.372 2.4-7.829 5.63-10.367 9.688-2.54 4.06-3.809 8.63-3.809 13.712 0 5.082 1.27 9.653 3.809 13.712 2.538 4.06 5.995 7.29 10.368 9.688 4.372 2.4 9.345 3.6 14.917 3.6h48.812c5.572 0 10.545-1.2 14.918-3.6 4.373-2.4 7.83-5.63 10.367-9.688 2.54-4.06 3.809-8.63 3.809-13.712 0-5.082-1.269-9.653-3.809-13.712M604.83 71.724a12.956 12.956 0 01-4.978 5.26c-2.154 1.275-4.715 1.913-7.681 1.913l-48.877-.001c-2.965 0-5.526-.637-7.68-1.913-2.155-1.274-3.815-3.028-4.979-5.259-1.165-2.232-1.748-4.729-1.748-7.491 0-2.763.583-5.26 1.748-7.491a12.956 12.956 0 014.978-5.26c2.155-1.275 4.716-1.913 7.681-1.913h48.877c2.966 0 5.527.638 7.68 1.913 2.156 1.275 3.815 3.029 4.98 5.259 1.165 2.232 1.747 4.73 1.747 7.492 0 2.762-.582 5.26-1.748 7.49m12.361-21.435c-2.538-4.06-5.994-7.29-10.367-9.688-4.373-2.4-9.346-3.6-14.918-3.6h-48.812c-5.572 0-10.545 1.2-14.918 3.6-4.372 2.4-7.829 5.63-10.367 9.688C515.269 54.348 514 58.918 514 64c0 5.082 1.27 9.653 3.809 13.712 2.538 4.06 5.995 7.29 10.368 9.688 4.372 2.4 9.345 3.6 14.917 3.6h48.812c5.572 0 10.545-1.2 14.918-3.6 4.373-2.4 7.83-5.63 10.367-9.688C619.731 73.652 621 69.082 621 64c0-5.082-1.269-9.653-3.809-13.712M315.83 207.724a12.956 12.956 0 01-4.978 5.26c-2.154 1.275-4.715 1.913-7.681 1.913l-48.877-.001c-2.965 0-5.526-.637-7.68-1.913-2.155-1.274-3.815-3.028-4.979-5.259-1.165-2.232-1.748-4.729-1.748-7.491 0-2.763.583-5.26 1.748-7.491a12.956 12.956 0 014.978-5.26c2.155-1.275 4.716-1.913 7.681-1.913h48.877c2.966 0 5.527.638 7.68 1.913 2.156 1.275 3.815 3.029 4.98 5.259 1.165 2.232 1.747 4.73 1.747 7.492 0 2.762-.582 5.26-1.748 7.49m12.361-21.435c-2.538-4.06-5.994-7.29-10.367-9.688-4.373-2.4-9.346-3.6-14.918-3.6h-48.812c-5.572 0-10.545 1.2-14.918 3.6-4.372 2.4-7.829 5.63-10.367 9.688-2.54 4.06-3.809 8.63-3.809 13.712 0 5.082 1.27 9.653 3.809 13.712 2.538 4.06 5.995 7.29 10.368 9.688 4.372 2.4 9.345 3.6 14.917 3.6h48.812c5.572 0 10.545-1.2 14.918-3.6 4.373-2.4 7.83-5.63 10.367-9.688 2.54-4.06 3.809-8.63 3.809-13.712 0-5.082-1.269-9.653-3.809-13.712M492.83 207.724a12.956 12.956 0 01-4.978 5.26c-2.154 1.275-4.715 1.913-7.681 1.913l-48.877-.001c-2.965 0-5.526-.637-7.68-1.913-2.155-1.274-3.815-3.028-4.979-5.259-1.165-2.232-1.748-4.729-1.748-7.491 0-2.763.583-5.26 1.748-7.491a12.956 12.956 0 014.978-5.26c2.155-1.275 4.716-1.913 7.681-1.913h48.877c2.966 0 5.527.638 7.68 1.913 2.156 1.275 3.815 3.029 4.98 5.259 1.165 2.232 1.747 4.73 1.747 7.492 0 2.762-.582 5.26-1.748 7.49m12.361-21.435c-2.538-4.06-5.994-7.29-10.367-9.688-4.373-2.4-9.346-3.6-14.918-3.6h-48.812c-5.572 0-10.545 1.2-14.918 3.6-4.372 2.4-7.829 5.63-10.367 9.688-2.54 4.06-3.809 8.63-3.809 13.712 0 5.082 1.27 9.653 3.809 13.712 2.538 4.06 5.995 7.29 10.368 9.688 4.372 2.4 9.345 3.6 14.917 3.6h48.812c5.572 0 10.545-1.2 14.918-3.6 4.373-2.4 7.83-5.63 10.367-9.688 2.54-4.06 3.809-8.63 3.809-13.712 0-5.082-1.269-9.653-3.809-13.712"/></g></svg>