<svg width="200" height="200" fill="none" xmlns="http://www.w3.org/2000/svg"><path d="M35.09 103.547H27.94L26.336 108h-2.32l6.515-17.063H32.5L39.027 108H36.72l-1.63-4.453zm-6.469-1.852h5.8l-2.905-7.98-2.895 7.98zm20.05 5.051c-.843.992-2.081 1.488-3.714 1.488-1.352 0-2.383-.39-3.094-1.172-.703-.789-1.058-1.953-1.066-3.492v-8.25h2.168v8.192c0 1.922.781 2.883 2.344 2.883 1.656 0 2.757-.618 3.304-1.852V95.32h2.168V108H48.72l-.047-1.254zm10.5-.281c.774 0 1.45-.235 2.028-.703.578-.469.899-1.055.961-1.758h2.05c-.038.726-.288 1.418-.75 2.074-.46.656-1.077 1.18-1.85 1.57a5.286 5.286 0 01-2.438.586c-1.727 0-3.102-.574-4.125-1.722-1.016-1.157-1.524-2.735-1.524-4.735v-.363c0-1.234.227-2.332.68-3.293.453-.96 1.102-1.707 1.945-2.238.852-.531 1.856-.797 3.012-.797 1.422 0 2.602.426 3.54 1.277.944.852 1.448 1.957 1.51 3.317h-2.05c-.062-.82-.375-1.493-.937-2.016-.555-.531-1.242-.797-2.063-.797-1.101 0-1.957.399-2.566 1.195-.602.79-.903 1.934-.903 3.434v.41c0 1.461.301 2.586.903 3.375.601.789 1.46 1.184 2.578 1.184zm15.306.281c-.844.992-2.083 1.488-3.715 1.488-1.352 0-2.383-.39-3.094-1.172-.703-.789-1.059-1.953-1.066-3.492v-8.25h2.167v8.192c0 1.922.782 2.883 2.344 2.883 1.656 0 2.758-.618 3.305-1.852V95.32h2.168V108h-2.063l-.046-1.254zM81.94 95.32l.07 1.594c.97-1.219 2.235-1.828 3.798-1.828 2.68 0 4.03 1.512 4.054 4.535V108h-2.168v-8.39c-.007-.915-.218-1.59-.632-2.028-.407-.438-1.044-.656-1.91-.656-.704 0-1.321.187-1.852.562a3.82 3.82 0 00-1.242 1.477V108H79.89V95.32h2.05zm16.453 12.914c-1.718 0-3.117-.562-4.195-1.687-1.078-1.133-1.617-2.645-1.617-4.535v-.399c0-1.258.238-2.379.715-3.363.484-.992 1.156-1.766 2.016-2.32a5.07 5.07 0 012.812-.844c1.648 0 2.93.543 3.844 1.629.914 1.086 1.371 2.64 1.371 4.664v.902h-8.59c.031 1.25.394 2.262 1.09 3.035.703.766 1.594 1.149 2.672 1.149.765 0 1.414-.156 1.945-.469a4.886 4.886 0 001.395-1.242l1.324 1.031c-1.063 1.633-2.656 2.449-4.782 2.449zm-.269-11.367c-.875 0-1.61.32-2.203.961-.594.633-.961 1.524-1.102 2.672h6.352v-.164c-.063-1.102-.36-1.953-.891-2.555-.531-.61-1.25-.914-2.156-.914zM114.168 108H112V95.32h2.168V108zm-2.344-16.043c0-.351.106-.648.317-.89.218-.243.539-.364.961-.364.421 0 .742.121.96.363.219.243.329.54.329.891 0 .352-.11.645-.329.879-.218.234-.539.352-.96.352-.422 0-.743-.118-.961-.352-.211-.234-.317-.527-.317-.879zm7.863 3.363l.059 1.407c.93-1.094 2.184-1.641 3.762-1.641 1.773 0 2.98.68 3.621 2.039a4.82 4.82 0 011.641-1.477c.679-.375 1.48-.562 2.402-.562 2.781 0 4.195 1.473 4.242 4.418V108h-2.168v-8.367c0-.906-.207-1.582-.621-2.027-.414-.454-1.109-.68-2.086-.68-.805 0-1.473.242-2.004.726-.531.477-.84 1.121-.926 1.934V108h-2.179v-8.309c0-1.843-.903-2.765-2.707-2.765-1.422 0-2.395.605-2.918 1.816V108h-2.168V95.32h2.05zM146.523 108c-.125-.25-.226-.695-.304-1.336-1.008 1.047-2.211 1.57-3.61 1.57-1.25 0-2.277-.351-3.082-1.054-.797-.711-1.195-1.61-1.195-2.696 0-1.32.5-2.343 1.5-3.07 1.008-.734 2.422-1.102 4.242-1.102h2.11v-.996c0-.757-.227-1.359-.68-1.804-.453-.453-1.121-.68-2.004-.68-.773 0-1.422.195-1.945.586-.524.39-.785.863-.785 1.418h-2.18c0-.633.222-1.242.668-1.828.453-.594 1.062-1.063 1.828-1.406.773-.344 1.621-.516 2.543-.516 1.461 0 2.605.367 3.433 1.102.829.726 1.258 1.73 1.29 3.011v5.836c0 1.164.148 2.09.445 2.777V108h-2.274zm-3.597-1.652c.679 0 1.324-.176 1.933-.528.61-.351 1.051-.808 1.325-1.371v-2.601h-1.7c-2.656 0-3.984.777-3.984 2.332 0 .679.227 1.211.68 1.593.453.383 1.035.575 1.746.575zm8.308-4.793c0-1.977.457-3.547 1.371-4.711.915-1.172 2.125-1.758 3.633-1.758 1.547 0 2.754.547 3.621 1.64l.106-1.406h1.98v12.375c0 1.641-.488 2.934-1.465 3.879-.968.946-2.273 1.418-3.914 1.418a6.513 6.513 0 01-2.683-.586c-.875-.39-1.543-.926-2.004-1.605l1.125-1.301c.93 1.148 2.066 1.723 3.41 1.723 1.055 0 1.875-.297 2.461-.891.594-.594.891-1.43.891-2.508v-1.09c-.868 1-2.051 1.5-3.551 1.5-1.485 0-2.688-.597-3.61-1.793-.914-1.195-1.371-2.824-1.371-4.886zm2.18.246c0 1.429.293 2.554.879 3.375.586.812 1.406 1.219 2.461 1.219 1.367 0 2.371-.622 3.012-1.864v-5.789c-.664-1.21-1.661-1.816-2.989-1.816-1.054 0-1.879.41-2.472 1.23-.594.82-.891 2.035-.891 3.645zm17.074 6.433c-1.718 0-3.117-.562-4.195-1.687-1.078-1.133-1.617-2.645-1.617-4.535v-.399c0-1.258.238-2.379.715-3.363.484-.992 1.156-1.766 2.015-2.32a5.071 5.071 0 012.813-.844c1.648 0 2.929.543 3.843 1.629.915 1.086 1.372 2.64 1.372 4.664v.902h-8.59c.031 1.25.394 2.262 1.09 3.035.703.766 1.593 1.149 2.671 1.149.766 0 1.415-.156 1.946-.469a4.87 4.87 0 001.394-1.242l1.325 1.031c-1.063 1.633-2.657 2.449-4.782 2.449zm-.269-11.367c-.875 0-1.61.32-2.203.961-.594.633-.961 1.524-1.102 2.672h6.352v-.164c-.063-1.102-.36-1.953-.891-2.555-.531-.61-1.25-.914-2.156-.914z" fill="#434343"/><path fill="#C4C4C4" fill-opacity=".25" d="M0 3h200v195H0z"/></svg>