<?xml version="1.0" encoding="UTF-8"?>
<svg width="85px" height="85px" viewBox="0 0 85 85" version="1.1" xmlns="http://www.w3.org/2000/svg" xmlns:xlink="http://www.w3.org/1999/xlink">
    <title>Illus/Big/Profile</title>
    <g id="Illus/Big/Profile" stroke="none" stroke-width="1" fill="none" fill-rule="evenodd">
        <g id="Group-16" transform="translate(8.000000, 4.000000)">
            <path d="M34.8727,56.9115 C30.0757,56.9115 26.1157,54.2755 25.4237,50.8415 C10.9257,53.9705 0.2237,64.4155 -0.0003,76.8785 L68.9747,76.8785 C68.7547,64.6265 58.4097,54.3235 44.2847,51.0055 C43.5017,54.3595 39.5927,56.9115 34.8727,56.9115 Z" id="Fill-1" fill="#FFD314"></path>
            <path d="M20.4874,14.3786 C20.4874,14.3786 23.4024,6.0836 25.7754,3.5276 C27.6674,1.4886 30.8264,1.1526 33.5434,1.7486 C36.2604,2.3436 38.7414,3.7066 41.3704,4.6146 C46.1334,6.2606 48.9874,7.8786 52.9874,9.8786 C50.9874,15.8786 50.6724,15.0686 45.4524,16.8466 C41.9494,18.0406 38.1334,17.5166 34.4324,17.5816 C33.5834,17.5956 32.6394,17.6846 32.0674,18.3126 C31.2154,19.2456 31.3364,20.4426 30.4874,21.3786 C29.9334,21.9896 29.2824,22.1576 28.4874,22.3786 C14.4964,26.2776 20.4874,14.3786 20.4874,14.3786" id="Fill-4" fill="#363757"></path>
            <path d="M53.7442,8.5837 C50.6402,7.0267 47.5722,5.4117 44.3422,4.1237 C42.5372,3.4037 40.6992,2.7897 38.9042,2.0407 C37.1792,1.3207 35.4332,0.5737 33.5862,0.2297 C30.5592,-0.3333 27.1042,0.0557 24.8412,2.3387 C23.1562,4.0387 22.1312,6.4507 21.1832,8.6077 C20.4362,10.3097 19.7372,12.0367 19.1132,13.7887 C17.6302,16.8447 16.5452,21.7377 20.0542,23.8097 C21.4092,24.6087 23.0802,24.7467 24.6172,24.6247 C26.7082,24.4577 29.6882,24.1327 31.3042,22.6757 C31.7802,22.2467 32.1192,21.7107 32.3802,21.1317 C32.6052,20.6337 32.7052,19.7507 33.1272,19.3737 C33.6112,18.9407 34.5352,19.0767 35.1282,19.0757 C36.0592,19.0747 36.9912,19.1037 37.9222,19.1227 C41.1252,19.1867 44.0052,18.8687 47.0572,17.8967 C48.6572,17.3887 50.4752,17.0027 51.7252,15.8027 C53.2032,14.3837 53.8042,12.1537 54.4332,10.2777 C54.6322,9.6867 54.3092,8.8667 53.7442,8.5837" id="Fill-6" fill="#363757"></path>
            <path d="M33.9375743,66.4211 C33.9446,68.6131 33.9526,70.8061 33.9596,72.9991 C33.9616,73.7831 34.6476,74.5351 35.4596,74.4991 C36.2706,74.4621 36.9626,73.8391 36.9596194,72.9991 C36.9526,70.8061 36.9446,63.6131 36.9376,61.4211 C36.9356,60.6361 36.2496,59.8841 35.4376,59.9211 C34.6276,59.9571 33.9356,60.5801 33.9375743,61.4211" id="Fill-8" fill="#363757"></path>
            <path d="M39.878,23.5719 C41.808,23.5719 41.812,20.5719 39.878,20.5719 C37.947,20.5719 37.944,23.5719 39.878,23.5719" id="Fill-10" fill="#363757"></path>
            <path d="M49.8448,15.9246 C46.3048,14.3436 42.9478,12.8946 39.9118,10.4306 C36.7528,7.8646 33.1658,6.1026 28.9798,6.5906 C27.2048,6.7976 25.4488,7.4276 24.2078,8.7686 C22.9968,10.0776 22.3728,11.7866 21.9228,13.4816 C21.5218,14.9876 21.3258,16.6116 20.7268,18.0566 C20.0948,19.5806 18.7198,19.7656 17.5488,20.7656 C15.2328,22.7416 15.5338,25.8496 17.1588,28.1606 C18.5338,30.1176 20.5378,31.5886 22.9088,31.8286 C22.9278,37.4526 22.9468,45.0766 22.9648,50.6996 C22.9698,52.1476 25.2198,52.1496 25.2148,50.6996 C25.1948,44.6366 25.1748,36.5726 25.1548,30.5086 C25.1538,30.1316 24.9968,29.8576 24.7708,29.6766 C24.5558,29.2296 24.1318,28.8876 23.4878,28.8786 C22.4168,28.8646 22.1428,28.6586 21.1338,28.0206 C20.6328,27.7036 20.0308,27.0666 19.6168,26.4546 C19.1848,25.8156 18.7178,24.9736 18.8288,24.1676 C18.9748,23.1106 20.0258,22.6806 20.8608,22.2416 C23.4388,20.8876 23.9158,17.9716 24.5368,15.3886 C24.8568,14.0576 25.1578,12.6406 25.8998,11.4686 C26.8448,9.9756 28.5028,9.5306 30.1828,9.5106 C31.9618,9.4876 33.7388,9.9236 35.2948,10.7876 C36.9328,11.6956 38.2808,13.0196 39.7768,14.1296 C42.3738,16.0586 45.4008,17.2056 48.3308,18.5146 C50.8808,19.6546 54.7608,21.2316 55.8998,24.0386 C56.1228,24.5886 56.2028,25.2736 55.9298,25.8256 C55.5798,26.5326 54.8198,26.6086 54.1148,26.7266 C52.2608,27.0356 50.2898,27.0406 48.4698,27.5076 C46.8268,27.9306 45.9728,29.1726 45.7268,30.7916 C45.3988,32.9536 45.3078,35.1776 45.1708,37.3586 C44.8868,41.8976 44.7898,46.4466 44.8638,50.9946 C44.8938,52.9226 47.8948,52.9286 47.8638,50.9946 C47.7898,46.4466 47.8868,41.8976 48.1708,37.3586 C48.2418,36.2236 48.3238,35.0896 48.4178,33.9566 C48.4968,33.0096 48.4098,31.8046 48.7408,30.9106 C49.0218,30.1526 50.2178,30.2506 50.9248,30.1556 C51.9878,30.0136 53.0518,29.8726 54.1158,29.7286 C55.8868,29.4896 57.6088,29.0356 58.5208,27.3396 C59.3298,25.8366 59.2148,24.0276 58.4908,22.5216 C56.9108,19.2316 53.0068,17.3366 49.8448,15.9246 Z" id="Fill-12" fill="#363757"></path>
        </g>
    </g>
</svg>