<svg width="40" height="40" xmlns="http://www.w3.org/2000/svg"><path d="M20 4c8.837 0 16 7.163 16 16s-7.163 16-16 16S4 28.837 4 20 11.163 4 20 4zm0 21a9.004 9.004 0 018.525 6.106A13.938 13.938 0 0120 34a13.939 13.939 0 01-8.524-2.893A9.002 9.002 0 0120 25zm0-19c7.732 0 14 6.268 14 14 0 3.754-1.478 7.163-3.883 9.677a11.031 11.031 0 00-6.342-6.012 6 6 0 10-7.549 0 11.035 11.035 0 00-6.344 6.012A13.953 13.953 0 016 20c0-7.732 6.268-14 14-14zm0 9a4 4 0 110 8 4 4 0 010-8z" fill="#01BF7D" fill-rule="evenodd"/></svg>