<svg width="190" height="170" xmlns="http://www.w3.org/2000/svg" xmlns:xlink="http://www.w3.org/1999/xlink"><defs><path id="a" d="M0 .897h174.83v167.866H0z"/></defs><g fill="none" fill-rule="evenodd"><g transform="translate(8)"><mask id="b" fill="#fff"><use xlink:href="#a"/></mask><path d="M97.592 1.823c15.973 1.826 32.018 7.845 42.964 19.648 11.331 12.217 16.016 29.141 18.693 45.602 2.676 16.462 3.779 33.37 9.56 49.011 3.436 9.298 8.53 19.465 4.591 28.56-1.758 4.06-5.137 7.211-8.805 9.678-7.904 5.316-17.303 7.897-26.63 9.807-30.774 6.31-62.848 6.174-93.567-.397-13.615-2.913-28.13-7.928-35.506-19.76-5.262-8.44-5.917-18.852-6.699-28.773C1.09 101.169-.556 87.114.187 73.059c.74-14.054 4.038-28.318 11.99-39.92C20.623 20.813 23.39 16.085 37.699 8.363c0 0 6.404-2.26 14.893-4.802 8.49-2.541 29.025-3.565 45-1.739z" fill="#FFF" mask="url(#b)"/></g><path d="M31.66 53.008l23.615 1.88a28.234 28.234 0 011.66-11.112c.813 2.492 3.365 4.11 5.949 4.443 2.584.333 5.187-.41 7.6-1.398 3.418-1.399 6.788-3.468 8.514-6.75.77-1.468 1.175-3.111 1.992-4.554 1.725-3.048 5.356-4.883 8.813-4.455 1.381 5.847 6.003 10.264 10.406 14.321 2.548 2.348 5.13 4.721 8.168 6.374 6.77 3.681 14.935 3.381 22.31 5.586.359.107.733.232.98.515.296.337.343.825.332 1.275-.15 6.543-8.58 10.12-9.748 16.56-.19 1.049-.177 2.146-.545 3.148-1.524 4.145-8.05 3.924-10.31 7.714-1.903 3.193.236 7.188 2.208 10.339a144.266 144.266 0 015.519 9.612c2.133 4.067 4.126 8.63 3.162 13.125-.796 3.718-3.593 6.798-6.952 8.536-1.7.88-3.615 1.462-5.515 1.251-5.118-.567-8.244-6.422-13.262-7.585a7.867 7.867 0 00-5.674.857c-3.925 2.285-5.614 7.775-9.966 9.052-2.589.761-5.376-.268-7.656-1.716-2.28-1.45-4.293-3.329-6.704-4.544-4.263-2.152-9.452-2.073-13.49-4.627-1.008-.638-1.952-1.473-2.402-2.583-.61-1.507-.21-3.215.213-4.786 1.95-7.246 4.235-14.397 6.441-21.57.998-3.245 1.786-7.304-.698-9.603-1.876-1.737-5.304-2.074-5.866-4.577-.277-1.243.348-2.496.442-3.765.219-2.978-2.408-5.316-4.887-6.953a64.78 64.78 0 00-12.858-6.563c-1.648-.621-3.486-1.316-4.255-2.91-.768-1.595.86-5.264 2.464-4.537" fill="#01BF7D"/><path d="M146.702 126.084c-4.38 5.944-10.72 9.625-18.018 10.596-7.86 1.043-16.75 1.14-24.294-1.544-3.195-1.136-6.227-2.921-8.628-5.33-2.57-2.578-4.194-5.957-5.497-9.32-1.376-3.556-2.024-7.092-2.209-10.885-.146-3.013-.41-6.038-.227-9.057.373-6.205 3.605-12.696 7.908-17.1 4.596-4.703 10.68-7.273 17.073-8.414 11.794-1.024 24.4 1.439 33.224 9.808 2.523 2.394 4.603 5.039 5.687 8.387 1.149 3.547 1.484 7.335 1.493 11.047.021 7.715-1.887 15.535-6.512 21.812m9.985-27.306c-.461-4.045-1.394-8.164-3.656-11.614-4.621-7.051-12.6-11.772-20.51-14.175-6.354-1.928-13.372-2.334-19.975-1.731-.092.008-.175.032-.26.05-.08.005-.16.003-.244.018-6.588 1.137-12.897 3.803-17.866 8.355-4.732 4.335-7.863 10.185-9.41 16.376-.811 3.244-.846 6.492-.697 9.817.161 3.606.219 7.26 1.04 10.792 1.82 7.835 5.82 15.373 12.851 19.6 7.47 4.49 16.458 4.995 24.949 4.644 4.499-.183 9.123-.573 13.366-2.191 3.502-1.336 6.676-3.346 9.432-5.886 6.032-5.559 9.587-13.314 10.767-21.362a49.07 49.07 0 00.213-12.693M163.5 163.5c1.723 1.726 4.426-.924 2.702-2.65-9.338-9.35-13.113-13.113-20.573-24-1.364-1.993-4.678-.118-3.3 1.891 7.64 11.153 11.604 15.18 21.171 24.759z" fill="#363757"/><path d="M102.5 116.7c-.905-2.3-1.633-4.683-2.105-7.138-.347-1.805-.247-3.694-.084-5.524.354-3.968 1.742-7.213 3.747-10.507 1.262-2.073-1.676-4.165-2.936-2.097-2.354 3.868-3.912 7.773-4.328 12.42-.186 2.083-.258 4.268.112 6.327.513 2.848 1.41 5.639 2.457 8.296.89 2.265 4.027.482 3.137-1.777" fill="#4B4B4B"/><path d="M143.543 41.724c.318-1.472.75-2.917 1.307-4.322.066-.166.135-.331.203-.498.08-.188.08-.188-.001-.002a25.777 25.777 0 01.588-1.252c.345-.686.721-1.358 1.122-2.017.484-.794.212-1.966-.65-2.41-.875-.447-1.967-.215-2.484.632a28.928 28.928 0 00-3.585 8.933c-.193.9.272 1.947 1.267 2.166.91.201 2.026-.265 2.233-1.23M151.168 51.492c-.366.263.149-.102.213-.147a36.88 36.88 0 013.395-2.09 37.032 37.032 0 013.624-1.725c.077-.033.676-.27.236-.098.468-.183.842-.37 1.11-.794.232-.371.33-.918.187-1.333-.278-.798-1.325-1.583-2.283-1.209a41.09 41.09 0 00-9.107 4.95c-.349.25-.543.836-.543 1.222 0 .425.202.932.543 1.224.354.302.82.527 1.312.507.527-.023.9-.21 1.313-.507M161.35 64.956a161.175 161.175 0 0119.77-2.559c1.013-.068 1.88-.732 1.88-1.697 0-.865-.861-1.765-1.88-1.696a169.123 169.123 0 00-20.769 2.68c-2.366.456-1.364 3.729 1 3.272" fill="#363757"/></g></svg>