<svg width="190" height="170" xmlns="http://www.w3.org/2000/svg"><g fill="none" fill-rule="evenodd"><path d="M23.002 26.377C19.777 32.664 6.191 54.639 3.964 63.044.852 74.788-.442 92.915.3 105.043c.695 11.375 11.67 20.526 15.217 31.356 1.826 5.575 4.344 11.088 8.519 15.21 5.706 5.632 13.79 8.023 21.593 9.868 29.854 7.055 39.866 10.52 70.377 7.336 2.323-.242 12.727 1.19 24.716-2.558 2.667-.834 9.598-5.79 10.84-8.292 3.478-7.012 4.61-12.875 9.32-19.128 6.264-8.317 13.57-15.887 18.988-24.778a70.812 70.812 0 009.999-30.224c.551-5.99.259-12.324-2.712-17.555-2.1-3.695-5.374-6.556-8.583-9.342-7.646-6.633-15.293-13.268-23.161-19.633-7.87-6.368-16.07-12.531-25.402-16.452C99.788 8.148 79.965.268 66.51.01 53.132-.25 41.705 7.24 41.705 7.24c-9.753 6.04-13.534 9.061-18.703 19.137z" fill="#FFF"/><path d="M38.09 60.146l24.34 1.925a28.721 28.721 0 011.71-11.37c.84 2.55 3.47 4.205 6.133 4.546 2.662.34 5.346-.42 7.833-1.432 3.52-1.43 6.996-3.548 8.774-6.907.794-1.5 1.212-3.184 2.053-4.659 1.779-3.12 5.52-4.998 9.085-4.56 1.424 5.982 6.186 10.504 10.723 14.654 2.627 2.404 5.288 4.831 8.42 6.523 6.978 3.767 15.393 3.46 22.994 5.717.37.11.756.237 1.01.526.305.346.353.845.342 1.305-.154 6.695-8.843 10.355-10.047 16.943-.197 1.075-.181 2.198-.561 3.223-1.57 4.242-8.298 4.016-10.626 7.894-1.962 3.267.243 7.355 2.276 10.578a148.79 148.79 0 015.688 9.837c2.198 4.162 4.252 8.83 3.259 13.431-.822 3.803-3.704 6.955-7.165 8.732-1.753.901-3.726 1.497-5.684 1.282-5.275-.58-8.498-6.573-13.67-7.762a8.162 8.162 0 00-5.848.878c-4.045 2.337-5.786 7.956-10.271 9.263-2.668.778-5.541-.276-7.892-1.758-2.35-1.483-4.424-3.405-6.91-4.649-4.393-2.2-9.74-2.122-13.902-4.735-1.04-.653-2.013-1.507-2.476-2.643-.63-1.542-.217-3.29.219-4.896 2.009-7.416 4.365-14.733 6.638-22.072 1.029-3.32 1.84-7.474-.72-9.827-1.933-1.777-5.465-2.123-6.044-4.685-.286-1.27.358-2.553.454-3.852.226-3.046-2.481-5.44-5.035-7.114a67.009 67.009 0 00-13.253-6.716c-1.7-.635-3.594-1.346-4.386-2.977-.792-1.632.886-5.388 2.54-4.643" fill="#464CD0"/><path d="M133.958 61.992c-.357.912-.912 1.766-1.493 2.549-2.277 3.069-5.438 5.5-7.1 9.015-.411.87-.752 1.777-.93 2.724-.216 1.158-.127 2.483-.728 3.53-.844 1.472-2.746 2.15-4.215 2.8-3.87 1.713-7.52 4.13-7.012 8.957.28 2.668 1.58 5.099 2.966 7.349 1.504 2.442 3 4.883 4.395 7.389 2.624 4.716 6.234 10.603 4.283 16.18-1.445 4.128-6.696 8.416-11.27 7.388-4.008-.901-6.636-4.861-10.221-6.651-4.504-2.246-9.332-1.063-12.694 2.557-2.793 3.008-5.114 7.873-10.017 6.6-2.667-.694-4.824-2.523-7.011-4.106-2.112-1.528-4.322-2.71-6.823-3.467-3.572-1.082-13.043-1.751-12.242-7.18.434-2.95 1.557-5.916 2.404-8.77a660.837 660.837 0 012.63-8.601c.849-2.73 1.829-5.45 2.504-8.228.524-2.158.854-4.565.179-6.731-.64-2.051-2.096-3.468-3.96-4.45-.833-.44-1.74-.783-2.522-1.313-.956-.648-1.06-1.24-.821-2.388.536-2.581.42-4.764-1.2-6.945-1.483-1.996-3.58-3.402-5.668-4.7a67.282 67.282 0 00-7.732-4.132 75.771 75.771 0 00-3.85-1.617c-1.118-.434-2.398-.78-3.352-1.543-.645-.516-.79-.934-.601-1.713.096-.4.336-.685.455-1.056a.487.487 0 01.099-.19c.224.058.436.08.629.057l24.054 1.903c.915.072 1.788-.861 1.75-1.75a28.367 28.367 0 01.63-7.333c4.593 4.129 12.95 1.783 17.939-1.283 1.544-.95 3.01-2.101 4.166-3.506 1.284-1.562 2.007-3.294 2.754-5.153 1.264-3.14 3.78-5.211 7.05-5.38 1.457 4.406 4.439 8.064 7.728 11.294 3.743 3.675 7.753 7.646 12.49 10.006 4.836 2.41 10.189 3.115 15.457 3.987a90.22 90.22 0 013.925.722c.665.14 3.24.504 3.442.873.267.49-.291 1.859-.467 2.306m-101.55-6.744a.47.47 0 01-.12-.027c.042.014.08.016.12.027m105.204 2.859c-.563-1.267-1.795-1.684-3.043-2.028-2.806-.772-5.686-1.221-8.554-1.683-5.608-.903-11.154-1.925-15.886-5.266-2.395-1.691-4.537-3.744-6.68-5.735-1.991-1.848-3.97-3.757-5.631-5.913-1.588-2.061-2.81-4.343-3.45-6.87-.203-.804-.922-1.21-1.687-1.285-3.22-.315-6.481.882-8.803 3.124-2.592 2.503-2.826 6.29-5.2 8.9-2.3 2.53-5.678 4.125-8.918 5.06-3.135.905-7.89.916-9.267-2.79-.61-1.637-2.778-1.675-3.376 0a31.141 31.141 0 00-1.793 9.948c-7.442-.59-14.883-1.178-22.325-1.765-1.927-.48-3.463 1.127-4.167 2.779-.87 2.038-.75 4.185.854 5.824 1.814 1.855 4.68 2.46 6.99 3.446a66.359 66.359 0 018.269 4.252c2.135 1.293 4.979 2.824 5.96 5.28.486 1.215.038 2.333-.166 3.55-.212 1.274-.123 2.555.552 3.682 1.077 1.798 3.134 2.458 4.864 3.422 2.123 1.182 2.498 3.142 2.178 5.438-.39 2.804-1.487 5.547-2.326 8.237a836.536 836.536 0 00-2.811 9.134c-.923 3.08-1.956 6.186-2.628 9.332-.617 2.895-.12 5.557 2.25 7.488 4.318 3.513 10.213 3.143 15.019 5.537 5.002 2.49 8.998 7.77 15.2 6.784 4.812-.766 6.858-5.37 10.048-8.42 1.853-1.768 4.328-2.535 6.816-1.72 2.014.659 3.682 2.146 5.298 3.457 1.705 1.384 3.432 2.752 5.499 3.553 2.489.964 5.186.765 7.638-.215 4.65-1.856 8.734-5.916 9.609-10.983 1.06-6.143-2.202-11.946-5.081-17.122-1.475-2.651-3.085-5.21-4.65-7.805-1.286-2.132-3.18-5.264-1.88-7.782.876-1.693 2.966-2.454 4.606-3.18 1.73-.764 3.559-1.546 4.869-2.965 1.71-1.851 1.547-3.998 2.156-6.28.518-1.942 1.794-3.58 3.094-5.07 2.637-3.023 5.998-6.004 6.706-10.157.178-1.045.288-2.2-.153-3.193M46.47 147.372a313.818 313.818 0 00-5.58 18.78c-.575 2.18 2.8 3.11 3.374.93a314.747 314.747 0 015.581-18.78c.71-2.142-2.667-3.061-3.374-.93M29.746 139.204c-1.32 1.723-2.642 3.444-3.963 5.167-.257.334-.283.964-.177 1.349.112.405.426.845.805 1.046.406.214.898.322 1.348.175l.418-.175c.263-.157.473-.366.628-.628l3.963-5.167c.257-.334.282-.964.177-1.35-.112-.404-.426-.845-.805-1.045-.406-.215-.898-.322-1.348-.176l-.419.176a1.763 1.763 0 00-.627.628M24.807 126.583c-6.49 1.674-13.076 2.977-19.722 3.845-.937.122-1.75.717-1.75 1.75 0 .85.806 1.873 1.75 1.75 6.96-.91 13.854-2.216 20.652-3.97 2.18-.562 1.256-3.938-.93-3.375" fill="#363757"/></g></svg>