<svg width="130" height="130" xmlns="http://www.w3.org/2000/svg">
 <title>Illus/XL/Social</title>

 <g>
  <title>Layer 1</title>
  <g id="Illus/XL/Social" fill="none" fill-rule="evenodd">
   <path d="m74.6337,62.0698c-12.651,1.548 -21.915,8.42 -25.29,18.888c-3.021,9.367 -4.505,21.483 1.641,30.174c3.496,4.944 -6.827,10.914 -6.80105,12.696c0.03105,2.125 7.20205,0.678 11.26505,-0.873c1.734,-0.66 4.991,-1.869 5.758,-1.289c9.371,7.075 20.291,6.785 33.119,4.401c10.805,-2.008 21.763,-6.427 27.595,-14.247c4.649,-6.233 5.435,-13.771 5.139,-20.913c-0.213,-5.146 -0.954,-10.361 -3.58,-14.953c-4.648,-8.125 -14.896,-13.378 -25.788,-14.965c-10.893,-1.587 -10.893,-1.587 -23.058,1.081" id="Fill-1" fill="#464CD0"/>
   <path d="m18.0829,1.2827c-7.467,0.915 -11.815,5.511 -14.91,11.295c-3.096,5.783 -2.769,12.541 0.252,18.144c1.132,2.099 2.639,4.073 4.663,5.625c5.539,4.249 14.113,4.726 21.683,3.31c2.478,-0.464 4.799,-2.206 7.121,-1.27c1.373,0.552 6.645,1.929 6.092,1.441c-1.582,-1.396 -3.281,-4.278 -3.07,-4.372c3.232,-1.441 4.045,-2.404 5.947,-4.997c2.738,-3.732 3.381,-7.562 3.201,-11.842c-0.131,-3.084 -0.575,-6.21 -2.129,-8.965c-2.752,-4.874 -8.807,-8.032 -15.239,-8.994c-6.431,-0.962 -6.431,-0.962 -13.611,0.625" id="Fill-3" fill="#FFD314"/>
   <path d="m126.6034,99.4594c-0.574,6.249 -2.742,13.629 -7.516,17.979c-4.568,4.165 -10.906,6.553 -16.838,7.947c-6.433,1.511 -13.062,1.5 -19.58,0.569c-3.662,-0.523 -7.33,-1.22 -10.921,-2.103c-1.771,-0.437 -3.534,-0.954 -5.213,-1.67c-0.821,-0.35 -1.609,-0.752 -2.36,-1.233c-0.82,-0.526 -1.62,-1.261 -2.54,-1.607c-1.553,-0.583 -2.482,0.718 -3.657,1.481c-1.242,0.809 -2.662,1.587 -4.119,1.908c-1.945,0.427 -3.926,0.45 -5.894,0.291c1.454,-0.989 2.84,-2.076 3.95,-3.436c0.875,-1.073 1.627,-2.244 2.283,-3.463c0.691,-1.286 0.846,-2.328 0.14,-3.664c-1.873,-3.543 -2.597,-7.529 -2.941,-11.497c-0.35,-4.033 -0.276,-8.133 0.466,-12.119c0.717,-3.85 2.047,-7.573 4.424,-10.716c8.193,-10.207 22.697,-13.306 35.179,-13.133c6.541,0.091 13.285,1.112 19.18,4.082c5.395,2.719 9.715,7.075 12.533,12.408c2.912,5.509 3.992,11.79 3.424,17.976m0.086,-15.688c-2.246,-5.664 -5.981,-10.671 -10.939,-14.24c-5.48,-3.946 -12.185,-5.782 -18.827,-6.472c-8.197,-0.853 -16.63,-0.043 -24.53,2.295c-6.824,2.019 -13.293,5.638 -17.772,11.268c-0.035,0.042 -0.058,0.087 -0.084,0.13c-0.032,0.032 -0.064,0.061 -0.092,0.098c-5.604,7.27 -6.178,17.683 -5.047,26.44c0.304,2.353 0.752,4.69 1.503,6.942c0.35,1.052 0.781,2.039 1.296,3.017c0.291,0.553 0.484,0.796 0.232,1.407c-0.117,0.284 -0.295,0.557 -0.447,0.824c-0.949,1.676 -2.057,3.123 -3.537,4.363c-1.334,1.118 -2.799,2.013 -4.262,2.951c-0.726,0.466 -0.756,1.905 0.27,2.057c5.587,0.826 11.344,0.84 15.909,-3.003c0.497,-0.419 0.245,-0.387 0.845,-0.183c0.369,0.125 0.778,0.516 1.101,0.733c0.739,0.5 1.477,0.97 2.283,1.359c1.553,0.748 3.186,1.332 4.841,1.807c3.424,0.985 6.98,1.64 10.491,2.226c6.725,1.121 13.521,1.497 20.265,0.311c6.505,-1.145 13.265,-3.539 18.596,-7.524c5.378,-4.02 8.135,-10.415 9.445,-16.858c1.347,-6.625 0.964,-13.638 -1.54,-19.948" id="Fill-6" fill="#363757"/>
   <path d="m74.4433,86.2016c9.809,0.424 19.628,0.512 29.442,0.262c1.446,-0.037 1.452,-2.287 0,-2.25c-9.814,0.25 -19.633,0.162 -29.442,-0.262c-1.448,-0.063 -1.445,2.188 0,2.25" id="Fill-9" fill="#363757"/>
   <path d="m74.4433,98.433c10.488,0.329 20.949,0.206 31.43,-0.304c1.441,-0.07 1.45,-2.32 0,-2.25c-10.481,0.51 -20.942,0.633 -31.43,0.304c-1.448,-0.045 -1.447,2.205 0,2.25" id="Fill-11" fill="#363757"/>
   <path d="m75.3456,110.7592c10.147,0.776 20.368,0.122 30.527,-0.029c1.447,-0.022 1.452,-2.272 0,-2.25c-10.159,0.151 -20.38,0.805 -30.527,0.029c-1.444,-0.11 -1.437,2.14 0,2.25" id="Fill-13" fill="#363757"/>
   <path d="m30.3055,122.6811c-0.014,-0.006 -0.026,-0.012 -0.04,-0.017c0.09,0.038 0.179,0.076 0.269,0.114c-0.672,-0.288 -1.305,-0.659 -1.886,-1.103c0.076,0.059 0.152,0.117 0.227,0.176c-0.208,-0.161 -0.408,-0.33 -0.601,-0.509c-0.218,-0.2 -0.495,-0.329 -0.796,-0.329c-0.276,0 -0.606,0.122 -0.795,0.329c-0.197,0.215 -0.343,0.496 -0.33,0.796c0.014,0.291 0.109,0.592 0.33,0.795c0.439,0.406 0.917,0.777 1.42,1.102c0.509,0.327 1.048,0.581 1.604,0.816c0.249,0.104 0.646,0.016 0.867,-0.113c0.233,-0.137 0.456,-0.405 0.517,-0.673c0.066,-0.288 0.051,-0.612 -0.113,-0.866l-0.176,-0.229c-0.141,-0.139 -0.307,-0.235 -0.497,-0.289" id="Fill-15" fill="#363757"/>
   <path d="m21.7206,115.5092c-0.786,-2.227 -1.573,-4.452 -2.359,-6.679c-0.197,-0.553 -0.778,-0.982 -1.384,-0.786c-0.547,0.177 -0.996,0.79 -0.786,1.384c0.787,2.227 1.573,4.453 2.36,6.68c0.195,0.552 0.777,0.981 1.384,0.785c0.546,-0.177 0.995,-0.79 0.785,-1.384" id="Fill-17" fill="#363757"/>
   <path d="m18.0497,96.0541c0.217,-0.728 0.461,-1.447 0.734,-2.156c0.069,-0.177 0.138,-0.354 0.21,-0.529c0.03,-0.073 0.071,-0.151 0.093,-0.225c-0.088,0.294 0.02,-0.042 0.047,-0.106c0.151,-0.348 0.311,-0.693 0.476,-1.035c0.254,-0.529 0.163,-1.24 -0.404,-1.539c-0.504,-0.265 -1.266,-0.162 -1.539,0.403c-0.714,1.48 -1.317,3.014 -1.787,4.588c-0.168,0.565 0.202,1.251 0.786,1.384c0.605,0.139 1.204,-0.181 1.384,-0.785" id="Fill-19" fill="#363757"/>
   <path d="m24.0643,83.5366c1.023,-0.612 2.069,-1.187 3.137,-1.722c0.524,-0.262 1.052,-0.515 1.587,-0.757c0.257,-0.118 0.516,-0.233 0.776,-0.345c0.043,-0.019 0.402,-0.172 0.289,-0.124c0.149,-0.063 0.299,-0.124 0.449,-0.186c0.543,-0.22 0.989,-0.758 0.785,-1.384c-0.169,-0.523 -0.799,-1.023 -1.383,-0.785c-2.34,0.953 -4.607,2.064 -6.776,3.361c-0.505,0.301 -0.735,1.024 -0.403,1.539c0.327,0.507 0.998,0.726 1.539,0.403" id="Fill-21" fill="#363757"/>
   <path d="m39.3348,76.6118c2.453,-0.95 4.692,-2.303 6.661,-4.051c0.442,-0.391 0.43,-1.196 0,-1.591c-0.471,-0.432 -1.12,-0.418 -1.591,0c-0.213,0.19 -0.428,0.375 -0.649,0.555c-0.055,0.045 -0.11,0.09 -0.166,0.135c0.007,-0.005 -0.228,0.18 -0.138,0.11c0.081,-0.063 -0.083,0.063 -0.097,0.074c-0.058,0.043 -0.115,0.085 -0.172,0.127c-0.473,0.349 -0.961,0.677 -1.462,0.983c-0.487,0.297 -0.986,0.573 -1.494,0.827c-0.272,0.135 -0.545,0.264 -0.822,0.387c-0.065,0.029 -0.131,0.056 -0.195,0.086c-0.167,0.074 0.143,-0.057 -0.026,0.01c-0.15,0.06 -0.298,0.12 -0.448,0.178c-0.547,0.212 -0.985,0.766 -0.785,1.384c0.172,0.532 0.796,1.014 1.384,0.786" id="Fill-23" fill="#363757"/>
   <path d="m52.8104,63.6147c0.065,-1.746 0.132,-3.492 0.197,-5.237c0.023,-0.589 -0.533,-1.152 -1.125,-1.125c-0.628,0.027 -1.1,0.494 -1.125,1.125c-0.065,1.745 -0.132,3.491 -0.197,5.237c-0.022,0.589 0.533,1.151 1.125,1.125c0.629,-0.028 1.102,-0.494 1.125,-1.125" id="Fill-25" fill="#363757"/>
   <path d="m52.2684,50.6606c-0.557,-2.222 -1.543,-4.347 -2.899,-6.193c-0.347,-0.474 -0.992,-0.757 -1.539,-0.405c-0.468,0.303 -0.776,1.033 -0.404,1.54c0.641,0.872 1.199,1.801 1.663,2.779c0.051,0.108 0.102,0.217 0.151,0.327c0.016,0.037 0.178,0.423 0.09,0.205c0.103,0.254 0.203,0.51 0.294,0.768c0.184,0.518 0.341,1.044 0.475,1.578c0.143,0.571 0.815,0.969 1.384,0.785c0.591,-0.191 0.938,-0.772 0.785,-1.384" id="Fill-27" fill="#363757"/>
   <path d="m46.369,23.3676c-0.212,1.021 -0.264,2.138 -0.662,3.109c-0.717,1.747 -2.098,3.275 -3.402,4.605c-1.063,1.082 -2.243,2.261 -3.634,2.914c-0.555,0.261 -0.667,0.758 -0.516,1.199c0.034,0.194 0.122,0.389 0.288,0.568c0.947,1.021 1.893,2.043 2.838,3.064c-2.021,-0.034 -4.016,-0.615 -5.947,-1.238c-1.553,-0.502 -2.574,-0.009 -4.085,0.429c-4.239,1.231 -8.847,1.493 -13.082,0.147c-3.806,-1.209 -7.823,-3.388 -10.291,-6.616c-2.245,-2.936 -3.032,-6.613 -2.876,-10.251c0.091,-2.127 0.375,-4.395 1.24,-6.361c0.723,-1.645 1.917,-2.958 3.244,-4.141c3.436,-3.065 7.567,-5.154 12.094,-6.04c4.081,-0.8 9.12,-1.481 13.168,-0.142c1.942,0.643 3.75,1.857 5.393,3.051c1.786,1.298 3.386,2.725 4.523,4.639c1.187,1.998 2.031,4.338 2.199,6.668c0.108,1.5 -0.187,2.937 -0.492,4.396m1.922,-8.459c-0.727,-2.204 -1.826,-4.307 -3.361,-6.056c-1.565,-1.782 -3.657,-3.241 -5.663,-4.48c-1.943,-1.201 -3.909,-2.074 -6.176,-2.402c-2.394,-0.346 -4.798,-0.306 -7.2,-0.066c-5.264,0.526 -10.387,1.759 -14.821,4.777c-3.487,2.374 -6.596,5.388 -7.635,9.596c-1.064,4.307 -1.06,9.133 0.698,13.256c1.62,3.798 4.629,6.493 8.173,8.482c2.567,1.442 5.363,2.574 8.282,3.038c2.77,0.441 5.514,0.248 8.269,-0.21c1.293,-0.215 2.582,-0.493 3.824,-0.921c0.346,-0.12 0.651,-0.213 1.007,-0.291c0.131,-0.029 0.293,-0.085 0.423,-0.091c0.293,-0.014 0.281,0.09 0.182,0.072c1.674,0.292 3.258,1.035 4.963,1.292c1.587,0.239 3.125,0.225 4.699,-0.085c0.872,-0.171 1.031,-1.303 0.496,-1.88c-1.148,-1.239 -2.296,-2.478 -3.444,-3.718c0.885,-0.62 1.7,-1.382 2.446,-2.109c1.391,-1.354 2.719,-2.868 3.703,-4.549c1.127,-1.925 1.38,-4.248 1.744,-6.415c0.413,-2.463 0.173,-4.871 -0.609,-7.24" id="Fill-29" fill="#363757"/>
   <path d="m19.913,18.8051c4.274,0.252 8.562,0.41 12.843,0.475c1.448,0.022 1.449,-2.228 0,-2.25c-4.281,-0.065 -8.569,-0.223 -12.843,-0.475c-1.446,-0.085 -1.441,2.165 0,2.25" id="Fill-31" fill="#363757"/>
   <path d="m19.4471,26.2416c4.42,0.039 8.904,-0.193 13.309,0.256c0.605,0.061 1.125,-0.562 1.125,-1.125c0,-0.66 -0.518,-1.064 -1.125,-1.125c-4.405,-0.449 -8.889,-0.217 -13.309,-0.256c-1.448,-0.013 -1.45,2.237 0,2.25" id="Fill-33" fill="#363757"/>
  </g>
 </g>
</svg>