<svg width="85" height="85" xmlns="http://www.w3.org/2000/svg"><g fill="none" fill-rule="evenodd"><path d="M19.894 10.027c1.558-.428 3.512-.253 5.094-.29 1.424-.031 2.882-.83 3.47-2.125.207-.455.318-.989.706-1.303.385-.314.93-.317 1.427-.306l23.465.569c.53.013 1.207.18 1.252.707.104 1.204.813 1.707 1.202 1.745 4.343.4 4.5-.71 6.217.853 1.118 1.016 1.262 2.694 1.33 4.204l1.698 37.369c.068 1.51.127 3.08-.47 4.471-1.291 3.017-5.02 4.013-8.275 4.44a84.026 84.026 0 01-32.146-2.032c-1.935-.508-4.037-1.227-5.023-2.968-.687-1.213-.681-2.684-.657-4.078l.71-41.255" fill="#01BF7D"/><path d="M57.304 39.927c-1.444 1.845-4.405 1.94-6.53 2.173a92.127 92.127 0 01-17.168.258c-2-.157-5.443.023-6.73-1.87-1.215-1.787-.79-4.781-.787-6.81.007-5.6.348-11.184.8-16.763l31.414.282c.18 5.336.262 10.675.207 16.015-.023 2.15.207 4.909-1.206 6.715m4.217-12.88a363.23 363.23 0 00-.258-11.337c-.03-.816-.662-1.492-1.5-1.5l-34.253-.307c-.762-.007-1.22.458-1.38 1.022-.058.145-.105.3-.12.478-.516 6.082-.914 12.17-.921 18.276-.003 2.574-.241 5.492.94 7.869 1.215 2.444 3.79 3.182 6.3 3.49 6.364.786 12.864.797 19.24.185 2.673-.256 5.71-.371 8.096-1.743 2.335-1.343 3.359-3.744 3.67-6.317.404-3.322.208-6.776.186-10.115M28.81 50.516c-.52 1.183-.156 1.672-.009 2.222.292 1.098 1.74 1.43 2.806 1.037.65-.238 1.236-.71 1.494-1.35.42-1.048-.215-2.35-1.259-2.776-1.044-.425-2.328-.013-3.033.867M56.504 50.983c-.52-1.183-1.128-1.245-1.632-1.508-1.007-.528-2.23.315-2.661 1.367-.263.64-.312 1.39-.014 2.014.488 1.017 1.877 1.43 2.896.948s1.583-1.707 1.411-2.821M24.175 73.588l1.547-4.111c.145.041.301.068.48.062a438.12 438.12 0 0132.176.077c.37 1.348.76 2.69 1.172 4.025a678.378 678.378 0 00-35.375-.053m39.67 3.561a129.193 129.193 0 01-3.676-12.613c-.445-1.878-3.339-1.083-2.893.798.1.421.211.838.315 1.258a438.708 438.708 0 00-30.757-.069l.813-2.162c.286-.758-.317-1.644-1.048-1.845-.84-.231-1.558.287-1.845 1.048l-5.112 13.585c-.285.758.317 1.644 1.048 1.845.841.231 1.558-.287 1.845-1.048l.586-1.559c.215.132.477.214.798.205a678.912 678.912 0 0136.605.071c.143.427.28.857.427 1.283.266.765 1.028 1.272 1.846 1.048.743-.205 1.315-1.077 1.047-1.845M14.416 18.589a67.775 67.775 0 00-.375 9.859c.027.784.67 1.537 1.5 1.5.79-.035 1.53-.66 1.5-1.5a67.775 67.775 0 01.375-9.859c.087-.783-.752-1.534-1.5-1.5-.887.04-1.407.662-1.5 1.5M67.278 19.518c-.004 3.101.001 6.202-.01 9.302-.004.785.692 1.536 1.5 1.5.814-.036 1.496-.659 1.5-1.5.011-3.1.007-6.2.01-9.302 0-.785-.692-1.536-1.5-1.5-.814.036-1.5.66-1.5 1.5M32.502 11.794c5.75 0 11.495.646 17.24.28 1.918-.122 1.931-3.123 0-3-5.745.366-11.49-.28-17.24-.28-1.93 0-1.934 3 0 3" fill="#363757"/></g></svg>