<svg width="85" height="85" xmlns="http://www.w3.org/2000/svg"><g fill="none" fill-rule="evenodd"><path d="M23.267 63.557c3.873 6.965 10.912 8.993 18.88 9.181 7.968.188 15.8-3.51 21.265-9.312 2.045-2.173 3.804-4.658 4.875-7.444 2.927-7.628.276-16.389-4.227-23.207-3.792-5.743-9.317-10.852-16.114-11.928-5.418-.859-10.907.943-15.877 3.261-3.581 1.67-7.096 3.672-9.756 6.594-4.707 5.168-6.156 12.764-4.88 19.638 1.276 6.874 1.276 6.874 5.834 13.217" fill="#FFD314"/><path d="M68.336 66.048c-1.016.629-1.977.948-3.087.906-.58-.022-1.04-.135-1.687-.356-.727-.247-1.4-.617-2.057-1.008a18.205 18.205 0 00-.392-.336l-.01-.008c-.038-.065-.078-.128-.114-.194-.25-.452-.524-.911-.749-1.375-.505-1.043-.488-2.272-.05-3.335.453-1.093 1.338-1.712 2.421-2.173l.965 4.174c.435 1.88 3.327 1.084 2.893-.798l-.937-4.051c.217.02.431.055.638.128 1.045.366 1.86 1.043 2.536 1.78.061.068.12.137.178.207l.038.052c.121.19.245.377.353.576.288.524.424.856.616 1.38.347.949.303 1.499.332 2.54.001.024.006.048.01.072a.659.659 0 01-.03.13c-.05.078-.234.389-.295.46-.419.494-1.027.89-1.572 1.229m-45.59-1.401c-.339.427-.798.737-1.25 1.027-.25.16-.505.314-.766.457a8.377 8.377 0 01-.507.255c-.018.004-.045.013-.102.03a6.498 6.498 0 01-.685.192c-.062.013-.124.023-.187.034a9.221 9.221 0 00-.31.035c-.597.045-1.2.042-1.797.016l-.013-.003c-.088-.021-.178-.035-.267-.054a12.612 12.612 0 01-1.5-.436c-.06-.022-.099-.034-.125-.043l-.054-.026c-.107-.051-.209-.122-.318-.167-.002-.006.002-.004 0-.011.028.066-.144-.192-.204-.28a3.32 3.32 0 01-.31-.657 7.218 7.218 0 01-.23-.816 3.558 3.558 0 01-.102-.69c-.162-2.347.887-4.711 2.852-5.977.24-.08.48-.157.712-.26a8.68 8.68 0 00.17-.076.425.425 0 00.051-.013c.103 0 .21-.005.312-.005.38.004.762.028 1.14.06 1.03.09 2.2.312 3.055.968.764.587 1.057 1.64 1.12 2.656-1.568-.086-3.135-.175-4.702-.254-1.93-.098-1.925 2.902 0 3 1.48.075 2.962.162 4.446.25a2.78 2.78 0 01-.43.788m50.186-3.345c-.638-2.718-2.59-5.036-5.1-6.222-.985-.466-1.983-.612-2.983-.55-3.014-13.04-5.876-25.791-8.89-38.831.023-.101-.22-1.965-1.614-2.093-3.863-.356-7.749-.403-11.624-.604-.81-.042-1.5.719-1.5 1.5 0 .847.687 1.458 1.5 1.5l10.27.533 6.798 29.419c-1.622 2.455-2.939 5.104-4.36 7.676-1.22 2.208-2.544 5.154-4.655 6.677-.772.556-1.944.575-2.942.704a57.179 57.179 0 01-4.604.385c-3.423.16-6.853.083-10.275-.054a471.091 471.091 0 01-6.505-.318c-.04-1.386-.322-2.8-1.128-3.926-1.139-1.593-2.924-2.42-4.826-2.706-.905-.136-1.864-.27-2.78-.203a3.281 3.281 0 00-1.099.252c-.146.063-.29.133-.436.195.22-.092-.036-.008-.232.057a1.481 1.481 0 00-.444.165c-.026.012-.052.024-.076.037l-.014.007c-.016.01-.03.023-.047.034a1.43 1.43 0 00-.195.14c-2.535 1.712-4.076 4.615-4.166 7.672-.046 1.558.308 3.325 1.19 4.635.861 1.28 2.28 1.777 3.73 2.114 3.04.705 6.118-.196 8.442-2.233 1.01-.884 1.54-2.006 1.817-3.227 5.565.328 11.142.608 16.703.374a60.12 60.12 0 004.945-.4c1.353-.17 2.876-.226 4.096-.896 2.346-1.288 3.873-4.1 5.164-6.328 1.267-2.187 2.41-4.456 3.663-6.655l1.18 5.1c-1.554.6-3.003 1.446-3.94 2.87-1.094 1.659-1.41 3.887-.866 5.79.257.896.754 1.66 1.173 2.48.316.623.751 1.1 1.3 1.526l.006.003c.085.084.182.162.297.23 1.546.927 3.201 1.634 5.008 1.8 1.524.14 3.047-.27 4.388-.977 1.487-.785 3.223-2.02 3.761-3.69.384-1.197.15-2.77-.13-3.962" fill="#363757"/><path d="M19.985 51.823c.563 0 1.13.022 1.688.094a12.666 12.666 0 01.672.124c.284.062.565.135.84.22.224.069.608.206.712.251-.11-.047.22.105.253.121a7.565 7.565 0 011.006.591l.14.098a7.148 7.148 0 011.023 1.002l.047.055c.013.019.025.04.05.076.126.19.25.379.358.579.05.094.097.189.143.284-.013-.016.092.228.11.276.086.252.156.509.214.77.035.156.062.313.09.471l.019.118a25.438 25.438 0 01.125 1.891c.032.783.668 1.537 1.5 1.5.786-.036 1.534-.661 1.5-1.5-.056-1.402-.116-2.869-.61-4.198a7.997 7.997 0 00-2.188-3.228c-2.125-1.872-4.904-2.596-7.692-2.595-.784 0-1.536.69-1.5 1.5.036.813.659 1.5 1.5 1.5" fill="#363757"/></g></svg>