<svg width="85" height="85" xmlns="http://www.w3.org/2000/svg"><g fill="none" fill-rule="evenodd"><path d="M17.83 39.206c-4.387.075-7.196 2.966-9.354 6.786-2.158 3.82-2.393 8.583-.993 12.74.524 1.558 1.274 3.056 2.35 4.298 2.945 3.4 7.886 4.384 12.364 3.967 3.772-.353 7.686-1.71 9.971-4.732 1.822-2.408 2.37-5.54 2.534-8.555.118-2.17.057-4.397-.67-6.447-1.29-3.626-4.603-6.3-8.27-7.462-3.67-1.163-3.67-1.163-7.932-.595M62.088 35.97c-7.128 4.348-10.354 14.134-7.211 21.87.463 1.138 1.06 2.25 1.945 3.103 1.185 1.141 6.117 2.518 7.76 2.555 5.676.13 7.712-.314 12.23-3.33 1.524-1.016 2.929-2.27 3.837-3.86 1.088-1.908 1.387-4.159 1.525-6.35.226-3.606-.012-7.498-2.203-10.369-2.884-3.78-8.173-4.624-12.925-4.795-3.015-.108-2.061.391-4.958 1.175" fill="#464CD0"/><path d="M42.134 51.56l.013-.022c.013-.04.024-.077.04-.116-.015.004-.042.052-.053.138M42.316 50.944c0-.005.002-.01.003-.014.032-.163-.02-.261-.003.014M39.263 51.398l.005.018c.022.039.043.076.063.117.006-.002-.016-.05-.068-.135M39.171 50.263v.008a6.45 6.45 0 00.031-.152l-.03.144" fill="#363757"/><path d="M16.399 38.48c1.97-.263 3.687-.509 5.61.061.164.05.326.102.488.153a384.84 384.84 0 00-4.361 9.512c-.454 1.028.068 2.226 1.295 2.257l11.256.287c-.118 2.162-.496 4.37-1.603 6.224-2.527 4.232-8.777 5.218-13.252 4.358-2.371-.456-4.657-1.497-6.143-3.465-1.655-2.192-2.34-5.164-2.295-7.87.08-4.943 3.488-11.315 9.005-11.518m14.27 9.271l-8.953-.229a390.892 390.892 0 013.565-7.726c1.04.528 2.005 1.19 2.862 2.07 1.617 1.656 2.329 3.686 2.526 5.885m-.151-18.54c2.898 5.532 5.546 11.215 8.122 16.876.008.017.018.03.026.045a1.445 1.445 0 00-.17.08c-.013.005-.027.005-.04.012-.788.376-1.343 1.014-1.713 1.763a1.554 1.554 0 00-.484-.093l-2.562-.065c-.117-1.76-.484-3.49-1.271-5.088-1.227-2.488-3.386-4.395-5.84-5.655a387.615 387.615 0 013.932-7.876m-8.18-10.396c-.058-.01-.11-.029-.153-.039a5.288 5.288 0 01.033-1.179c.009.001.092-.35.115-.412-.071.191.119-.11.108-.138.068-.018.15-.035.22-.045.198-.029.45.004.658.003 1.098-.004 2.217-.093 3.309.055.905.135 1.799.287 2.699.452.788.145 1.543.306 2.066.796.035.032.04.035.052.043.007.01.002.005.014.021.032.044.059.097.085.148-.006.008.025.118.049.195a.17.17 0 000 .045c-.54.093-2.577.28-2.811.291a38.098 38.098 0 01-3.346.016c-1.025-.04-2.085-.079-3.098-.252m27.73 9.934a662.508 662.508 0 01-8.841 15.817c-2.44-5.362-4.943-10.743-7.663-15.997 5.5.232 11 .294 16.505.18m15.26 9.89c2.54.237 5.302.802 7.367 2.398 2.293 1.773 3.049 4.621 3.15 7.4.108 2.886.024 6.388-1.82 8.771-1.53 1.98-4.18 3.622-6.526 4.471-2.127.77-4.601.868-6.84.685-1.805-.148-4.153-.757-5.695-1.729-1.905-1.2-2.633-4.537-2.798-6.716-.375-4.944 1.597-9.994 5.334-13.224 1.69 2.703 3.44 5.37 5.194 8.022 1.06 1.603 3.66.102 2.59-1.514-1.764-2.67-3.535-5.356-5.242-8.08.533-.222 1.055-.449 1.456-.552 1.175-.303 2.64-.043 3.83.068M42.338 50.728c-.004.081-.027.175-.021.255l-.001-.04c-.027.14-.061.28-.103.416-.005.017-.017.041-.026.062.012-.003.017.015-.015.072l-.025.045c-.01.024-.021.052-.021.071 0-.02.005-.032.008-.049a8.78 8.78 0 01-.173.296 8.029 8.029 0 00-.131.13 2.064 2.064 0 01-.063.037c-.035.011-.07.022-.106.031-.381.003-.758.007-1.14-.016a6.59 6.59 0 01-.197-.015h-.018c-.076-.049-.383-.07-.453-.09-.057-.016-.113-.037-.17-.053l-.01-.007a3.723 3.723 0 00-.15-.088l-.043-.039-.076-.08c-.024-.043-.05-.087-.072-.134-.007.002-.04-.044-.062-.114l-.001-.003c-.017-.03-.031-.062-.05-.089.023.033.03.047.044.071-.018-.058-.036-.116-.052-.175-.017-.069-.03-.138-.044-.207-.01-.16-.02-.319-.015-.479a3.747 3.747 0 01.018-.265l-.016.072.017-.08c.015-.092.04-.195.032-.143.052-.248.103-.495.183-.737.01-.034.023-.068.035-.1l.007-.015a2.933 2.933 0 01.08-.14c.052-.047.118-.11.159-.153l.002-.002c.027-.017.057-.03.084-.045a6.613 6.613 0 01.697-.161c-.184.035.039-.003.087-.006a3.95 3.95 0 01.243-.01c.106-.002.21.007.314.014.048.01.096.02.144.033.148.04.468.215.012-.02.095.048.192.09.286.144.06.036.164.117.219.16.12.104.24.206.35.322a.662.662 0 01.022.023l.042.063c.022.037.07.17.067.151l.017.054c.032.112.044.262.08.38 0 .01.002.017.003.026a4.72 4.72 0 01.002.627m-30.33 12.56c5.435 2.337 13.048 1.67 17.59-2.293 2.456-2.14 3.518-5.269 3.912-8.414.073-.579.126-1.165.167-1.754l2.487.064c.032.824.235 1.687.7 2.368a3.927 3.927 0 002.668 1.666c.985.154 2.209.301 3.164-.05 1.147-.424 1.868-1.318 2.307-2.427.68-1.722.43-3.995-.923-5.315a5.887 5.887 0 00-.584-.492 657.6 657.6 0 008.59-15.338 124.01 124.01 0 003.832 6.817c-4.207 3.461-6.704 8.78-6.795 14.257-.053 3.102.659 6.597 2.519 9.14 1.593 2.176 4.426 2.95 6.952 3.515 5.858 1.31 11.869-.475 16.322-4.42 2.843-2.52 3.683-5.952 3.893-9.614.197-3.437-.09-7.225-2.164-10.11-2.17-3.017-5.69-4.45-9.264-4.997-1.792-.274-3.703-.514-5.517-.386-1.228.086-2.272.648-3.414 1.028-3.28-5.444-6.21-11.08-8.235-17.119 2.76-.567 5.7-.847 8.456-.45 1.007.143 2.24.561 1.618 1.795-.653 1.292-2.473 1.556-3.737 1.837-1.884.417-1.087 3.31.797 2.892 2.08-.46 4.272-1.135 5.44-3.067 1.07-1.768.862-4.068-.831-5.356-1.684-1.279-4.131-1.237-6.14-1.224-2.673.016-5.342.382-7.937 1.023-.771.191-1.281 1.085-1.047 1.845a68.238 68.238 0 002.615 7.048c-5.841.107-11.675.022-17.511-.26a156.301 156.301 0 00-1.961-3.518c.606-.053 1.21-.11 1.808-.2 1.514-.227 2.722-1.252 2.805-2.845.073-1.384-.686-2.566-1.795-3.33-1.511-1.04-3.587-1.173-5.37-1.439-1.417-.19-2.797-.165-4.221-.162-1.47.004-2.838.406-3.53 1.812-.531 1.083-.677 2.64-.386 3.816.444 1.79 2.033 2.08 3.616 2.25a40.47 40.47 0 003.679.211c.79 1.342 1.552 2.702 2.302 4.071-.171.121-.324.29-.444.523a381.51 381.51 0 00-4.623 9.252c-1.032-.348-2.101-.639-3.166-.754-1.42-.153-2.85.108-4.253.295-6.13.226-10.665 5.951-11.712 11.672-1.142 6.24 1.169 13.491 7.322 16.137M79.794 68.752a1646.894 1646.894 0 01-75.348-1.164c-1.93-.074-1.927 2.926 0 3a1649.05 1649.05 0 0058.628 1.205c5.574.015 11.147 0 16.72-.041 1.93-.014 1.934-3.014 0-3" fill="#363757"/></g></svg>