<svg width="85" height="85" xmlns="http://www.w3.org/2000/svg"><g fill="none" fill-rule="evenodd"><path d="M79.412 64.134l-.678-9.648c-.284-4.07-.861-8.71-3.959-10.976-1.353-.99-2.985-1.342-4.619-1.525-1.072-8.05-3.568-18.955-4.382-21.438-.915-2.79-2.322-3.031-2.898-3.441-.534-.381-3.246-.857-3.907-.884-15.462-.632-21.95.235-37.417.766-1.113.039-2.17.345-3.181.788-1.761.77-2.935 4.286-3.215 5.33-1.908 7.08-2.835 13.497-3.6 20.628-2.178 1.719-4.188 4.93-4.847 7.296-1.39 4.987-1.885 12.834-1.654 14.646.147 1.162 1.631 1.947 3.774 2.186 10.925 1.213 45.28 1.006 67.21-.484.547-.037 2.49-.652 2.903-1.05.536-.514.524-1.415.47-2.194" fill="#FFD314"/><path d="M73.17 62.246c-1.292.006-2.586.013-3.88.018-9.108.04-18.217.047-27.326.014-9.985-.037-19.971-.127-29.957-.24-.087-3.438.314-6.86 1.286-10.174.683-2.332 2.544-5.295 4.975-6.125 7.662-.244 15.325-.287 22.99-.422 4.492-.079 8.98-.242 13.472-.363 2.42-.064 4.84-.103 7.26-.065 2.354.037 4.824.003 7.147.433 1.97.364 3.436 1.355 4.217 3.236.685 1.652.86 3.49 1.002 5.254.2 2.52.402 5.041.58 7.563.01.151.044.9.088.853-.163.17-1.618.017-1.853.018M22.385 27.05c.292-1.29.55-2.63.977-3.884.415-1.219 1.163-1.324 2.354-1.378 2.72-.123 5.448-.179 8.17-.237 4.722-.1 9.442-.108 14.162-.009 2.543.053 5.084.133 7.625.227 1.355.051 2.81-.04 4.149.17.968.15 1.352 1.783 1.695 2.572 2.282 5.25 3.766 10.858 4.448 16.54-15.277.193-30.554.44-45.832.633.517-4.914 1.16-9.809 2.252-14.634m55.27 30.666c-.313-4.073-.12-9.027-2.773-12.425-1.428-1.83-3.52-2.664-5.78-3.05-.601-6.055-2.004-11.999-4.314-17.635-.953-2.325-1.735-5.306-4.624-5.635-3.047-.347-6.205-.273-9.271-.359a340.885 340.885 0 00-15.763-.085c-3.137.056-6.28.12-9.414.261-1.09.05-2.225.132-3.191.696-1.197.7-1.787 1.951-2.16 3.231-1.912 6.591-2.696 13.518-3.38 20.326-2.906 1.194-5.178 4.193-6.26 7.031-1.59 4.168-1.94 9.042-1.65 13.452.054.817.644 1.491 1.5 1.5 19.892.23 39.783.327 59.676.237 1.302-.006 2.605-.008 3.907-.019 1.11-.01 2.223-.046 3.042-.902.618-.646.786-1.533.775-2.399-.02-1.403-.212-2.825-.32-4.225" fill="#363757"/><path d="M20.103 50.579c-1.038 2.36-.309 3.336-.017 4.432.583 2.192 3.47 2.853 5.598 2.069 1.294-.476 2.465-1.416 2.98-2.695.836-2.087-.429-4.687-2.51-5.535-2.083-.85-4.645-.025-6.05 1.729M66.576 50.292c-1.962-1.67-3.107-1.25-4.241-1.286-2.267-.069-3.727 2.508-3.587 4.77.087 1.377.65 2.768 1.73 3.627 1.76 1.401 4.613.933 6.023-.819 1.408-1.752 1.353-4.442.075-6.292" fill="#363757"/><path d="M37.015 33.803c.36-.22.698-.466.972-.766 1.701-1.86 1.482-4.84-.253-6.958-2.599-1.958-4.036-1.558-5.485-1.66-2.896-.202-4.617 2.568-4.311 5.08.187 1.528.984 3.099 2.41 4.11.144.102.305.173.459.26-4.987 1.08-5.335 4.832-5.376 7.737l17.904-.093c-.25-1.26.099-6.511-6.32-7.71" fill="#464CD0"/></g></svg>