<svg width="255" height="174" xmlns="http://www.w3.org/2000/svg"><g fill="#FFD314" fill-rule="evenodd"><path d="M141.244 21.863c-3.675-6.745-8.618-12.075-14.831-15.989C120.198 1.957 113.204 0 105.422 0c-7.78 0-14.776 1.957-20.99 5.874-4.206 2.65-7.816 5.963-10.857 9.91-3.042-3.947-6.651-7.26-10.856-9.91C56.504 1.957 49.509 0 41.729 0c-7.78 0-14.778 1.957-20.99 5.874-6.215 3.914-11.16 9.244-14.83 15.989C2.232 28.607.396 36.275.396 44.869v37.637h18.965V44.87c0-4.568.971-8.512 2.917-11.83 1.945-3.318 4.62-5.873 8.022-7.666 3.405-1.795 7.214-2.693 11.427-2.693 4.216 0 8.025.898 11.427 2.693 3.405 1.793 6.08 4.348 8.025 7.666 1.927 3.29 2.897 7.196 2.914 11.713 0 .04-.003.078-.003.117v37.637h18.97V44.87c0-.033-.003-.064-.003-.097.014-4.525.984-8.439 2.915-11.733 1.944-3.318 4.62-5.873 8.022-7.666 3.405-1.795 7.214-2.693 11.427-2.693 4.215 0 8.025.898 11.428 2.693 3.405 1.793 6.078 4.348 8.023 7.666 1.945 3.318 2.918 7.262 2.918 11.83v37.637h18.964V44.87c0-8.594-1.84-16.262-5.51-23.006M132.425 147.507c-1.697 3.06-4.116 5.462-7.258 7.21-3.14 1.746-6.874 2.62-11.198 2.62l-71.26-.001c-4.323 0-8.057-.873-11.198-2.62s-5.56-4.15-7.258-7.208c-1.699-3.059-2.549-6.48-2.549-10.265 0-3.787.85-7.209 2.55-10.266 1.697-3.059 4.116-5.461 7.257-7.209 3.14-1.746 6.875-2.62 11.198-2.62h71.26c4.324 0 8.057.874 11.198 2.621 3.142 1.747 5.56 4.15 7.258 7.207 1.7 3.059 2.549 6.48 2.549 10.266 0 3.786-.85 7.208-2.549 10.265m18.022-29.374c-3.7-5.563-8.74-9.99-15.115-13.276-6.376-3.29-13.626-4.934-21.75-4.934H42.418c-8.124 0-15.374 1.646-21.75 4.933-6.375 3.29-11.414 7.716-15.115 13.277C1.851 123.697 0 129.958 0 136.923s1.85 13.229 5.553 18.79c3.701 5.564 8.74 9.99 15.116 13.277 6.375 3.29 13.625 4.933 21.75 4.933h71.163c8.124 0 15.374-1.645 21.75-4.932 6.376-3.29 11.415-7.716 15.115-13.277 3.703-5.564 5.553-11.825 5.553-18.791 0-6.964-1.85-13.228-5.553-18.79M228.973 143.338c-1.773 3.443-4.3 6.147-7.582 8.114-3.281 1.966-7.182 2.95-11.699 2.95h-18.35v-45.228h18.35c.033 0 .065-.003.097-.003 4.475.014 8.345.995 11.602 2.947 3.281 1.966 5.81 4.67 7.582 8.111 1.775 3.443 2.662 7.295 2.662 11.555 0 4.262-.887 8.113-2.662 11.554zm-37.63-97.773h18.35c4.516 0 8.417.983 11.698 2.95 3.281 1.966 5.81 4.67 7.582 8.112 1.775 3.443 2.662 7.294 2.662 11.554 0 4.262-.887 8.114-2.662 11.555-1.773 3.443-4.3 6.146-7.582 8.113-3.253 1.949-7.117 2.93-11.584 2.947-.039 0-.076-.003-.115-.003h-18.35V45.565zm47.227 54.418c3.922-3.056 7.215-6.68 9.848-10.904 3.893-6.243 5.838-13.268 5.838-21.083 0-7.813-1.945-14.841-5.838-21.081-3.89-6.242-9.187-11.209-15.89-14.895-6.703-3.692-14.324-5.537-22.865-5.537h-37.407v147h37.407c8.54 0 16.162-1.846 22.865-5.534 6.703-3.692 12-8.657 15.89-14.896 3.893-6.243 5.838-13.268 5.838-21.083 0-7.814-1.945-14.842-5.838-21.082-2.633-4.224-5.926-7.85-9.848-10.905z"/></g></svg>
