<svg width="551" height="278" xmlns="http://www.w3.org/2000/svg" xmlns:xlink="http://www.w3.org/1999/xlink" xml:space="preserve" overflow="hidden"><defs><clipPath id="clip0"><rect x="0" y="0" width="551" height="278"/></clipPath></defs><g clip-path="url(#clip0)"><path d="M0 0 680.26 0 680.26 382.646 0 382.646Z" fill="#FFFFFF" transform="matrix(1.00097 0 0 1 -45.322 -66.0983)"/><text font-family="Arial,Arial_MSFontService,sans-serif" font-weight="400" font-size="17" transform="matrix(0.851149 0 0 0.850325 -14.5935 -39)">API <tspan font-size="17" x="31.4583" y="0">–</tspan><tspan font-size="17" x="45.3125" y="0">Modèle </tspan><tspan font-size="17" x="102.313" y="0">&amp; </tspan><tspan font-size="17" x="118.312" y="0">BDD</tspan></text><path d="M52.295 109.976C52.295 89.3904 68.9828 72.7027 89.5681 72.7027L238.657 72.7027C259.243 72.7027 275.93 89.3904 275.93 109.976L275.93 299.03C275.93 319.616 259.243 336.303 238.657 336.303L89.5681 336.303C68.9828 336.303 52.295 319.616 52.295 299.03Z" stroke="#507E32" stroke-width="0.708604" stroke-miterlimit="8" fill="#70AD47" fill-rule="evenodd" transform="matrix(1.00097 0 0 1 -45.322 -66.0983)"/><path d="M83.757 182.821C83.757 168.497 95.369 156.885 109.693 156.885L221.084 156.885C235.407 156.885 247.019 168.497 247.019 182.821L247.019 286.559C247.019 300.882 235.407 312.494 221.084 312.494L109.693 312.494C95.369 312.494 83.757 300.882 83.757 286.559Z" stroke="#70AD47" stroke-width="0.354302" stroke-miterlimit="8" fill="#A9D18E" fill-rule="evenodd" transform="matrix(1.00097 0 0 1 -45.322 -66.0983)"/><text fill="#FFFFFF" font-family="Calibri,Calibri_MSFontService,sans-serif" font-weight="400" font-size="13" transform="matrix(0.851149 0 0 0.850325 82.2449 152)">Citoyens (Users<tspan font-size="13" x="83.3667" y="0">)</tspan><tspan font-size="13" x="20.8042" y="15.2883">Groupes</tspan><tspan font-size="13" x="-17.5875" y="31.7526">Utilisateurs Financeurs </tspan><tspan font-size="13" x="23.1" y="47.0409">(</tspan><tspan font-size="13" x="27.1625" y="47.0409">Users</tspan><tspan font-size="13" x="57.2458" y="47.0409">)</tspan><tspan font-weight="700" font-size="15" x="21.4341" y="-123.482">PGSQL</tspan></text><path d="M363.514 110.118C363.514 89.4541 380.265 72.7027 400.929 72.7027L550.584 72.7027C571.248 72.7027 587.999 89.4541 587.999 110.118L587.999 298.888C587.999 319.552 571.248 336.303 550.584 336.303L400.929 336.303C380.265 336.303 363.514 319.552 363.514 298.888Z" stroke="#507E32" stroke-width="0.708604" stroke-miterlimit="8" fill="#70AD47" fill-rule="evenodd" transform="matrix(1.00097 0 0 1 -45.322 -66.0983)"/><text fill="#FFFFFF" font-family="Calibri,Calibri_MSFontService,sans-serif" font-weight="700" font-size="15" transform="matrix(0.851149 0 0 0.850325 408.156 47)">MONGO</text><path d="M396.676 184.096C396.676 169.537 408.478 157.735 423.037 157.735L534.429 157.735C548.987 157.735 560.789 169.537 560.789 184.096L560.789 289.535C560.789 304.094 548.987 315.896 534.429 315.896L423.037 315.896C408.478 315.896 396.676 304.094 396.676 289.535Z" stroke="#70AD47" stroke-width="0.354302" stroke-miterlimit="8" fill="#A9D18E" fill-rule="evenodd" transform="matrix(1.00097 0 0 1 -45.322 -66.0983)"/><text fill="#FFFFFF" font-family="Calibri,Calibri_MSFontService,sans-serif" font-weight="400" font-size="12" transform="matrix(0.851149 0 0 0.850325 411.77 108)">Affiliations<tspan font-size="12" x="12.4417" y="14.1123">Aides</tspan><tspan font-size="12" x="-9.16245" y="28.2245">Communautés</tspan><tspan font-size="12" x="3.97082" y="42.3368">CronJobs</tspan><tspan font-size="12" x="-22.5041" y="56.449">Contrôle d</tspan><tspan font-size="12" x="33.4959" y="56.449">’</tspan><tspan font-size="12" x="36.4959" y="56.449">Eligibilité</tspan><tspan font-size="12" x="-0.166616" y="70.5613">Financeurs</tspan><tspan font-size="12" x="2.30423" y="84.6736">Metadata</tspan><tspan font-size="12" x="-0.0916442" y="98.7858">Migrations</tspan><tspan font-size="12" x="-6.2833" y="111.722">Souscriptions</tspan><tspan font-size="12" x="1.2709" y="125.834">Territoires</tspan><tspan font-size="12" x="-34.0125" y="139.947">Timestamp Souscriptions</tspan><tspan font-size="12" x="-28.4375" y="154.059">Utilisateurs Financeurs</tspan></text><path d="M3.98594-0.797179 123.854-0.797179 123.854 46.3388 123.056 45.5416 242.127 45.5416 242.127 47.136 122.26 47.136 122.26 0 123.056 0.797179 3.98594 0.797179ZM4.78308 2.39154 0 0 4.78308-2.39154ZM241.331 43.9472 246.114 46.3388 241.331 48.7303Z" fill="#ED7D31" transform="matrix(1.00097 0 0 -1 159.805 148.604)"/><path d="M226.771 241.545 326.005 241.545 326.005 301.494 325.207 300.696 423.644 300.696 423.644 302.29 324.411 302.29 324.411 242.342 325.207 243.14 226.771 243.14ZM227.568 244.734 222.785 242.342 227.568 239.951ZM422.848 299.102 427.631 301.494 422.848 303.885Z" fill="#ED7D31" transform="matrix(1.00097 0 0 1 -45.322 -66.0983)"/><path d="M207.221 227.127 444.709 229.321 444.694 230.915 207.206 228.721ZM207.989 230.322 203.228 227.887 208.033 225.54ZM443.927 227.719 448.688 230.155 443.883 232.502Z" fill="#ED7D31" transform="matrix(1.00097 0 0 1 -45.322 -66.0983)"/></g></svg>